<?xml version="1.0" standalone="no"?>
<!DOCTYPE svg PUBLIC "-//W3C//DTD SVG 20010904//EN"
 "http://www.w3.org/TR/2001/REC-SVG-20010904/DTD/svg10.dtd">
<svg version="1.0" xmlns="http://www.w3.org/2000/svg"
 width="700.000000pt" height="450.000000pt" viewBox="0 0 700.000000 450.000000"
 preserveAspectRatio="xMidYMid meet">
<metadata>
Created by potrace 1.16, written by Peter Selinger 2001-2019
</metadata>
<g transform="translate(0.000000,450.000000) scale(0.100000,-0.100000)"
fill="#000000" stroke="none">
<path d="M442 4463 c6 -21 16 -50 24 -65 20 -39 18 -47 -21 -64 -45 -18 -109
-18 -161 2 -39 15 -44 15 -82 -5 -23 -12 -57 -21 -75 -21 -19 0 -55 -3 -81 -6
-40 -6 -46 -10 -46 -31 l0 -24 85 7 c57 4 99 3 129 -6 41 -11 48 -10 82 11 40
24 123 32 177 15 26 -8 27 -7 27 25 l1 34 23 -29 c13 -16 28 -26 33 -23 12 8
55 -22 48 -33 -3 -4 3 -14 13 -21 15 -13 16 -12 3 4 -17 22 -14 22 45 -7 59
-28 159 -46 212 -36 29 5 20 7 -37 8 -51 0 -78 5 -85 14 -6 7 -22 19 -36 26
-14 7 -17 10 -8 8 9 -3 34 -7 55 -10 l38 -6 -35 11 c-139 43 -213 109 -259
232 -9 22 -17 27 -45 27 l-34 0 10 -37z"/>
<path d="M1148 4459 c-6 -22 -15 -39 -20 -39 -4 0 -8 -5 -8 -12 0 -6 -18 -35
-40 -65 -47 -62 -42 -68 13 -15 22 20 35 28 29 17 -12 -21 -64 -76 -97 -101
-18 -14 -18 -14 7 -2 14 7 45 30 67 51 39 36 54 40 28 7 -16 -21 -80 -69 -119
-90 -28 -15 -34 -25 -44 -81 -12 -67 -54 -172 -72 -183 -6 -4 -8 -14 -5 -24 3
-9 2 -14 -2 -9 -5 4 -19 -3 -32 -15 -17 -16 -23 -18 -23 -6 0 8 3 18 7 21 9
10 43 87 38 87 -3 0 -14 -19 -26 -42 -49 -96 -142 -196 -231 -246 -56 -32 -70
-22 -17 12 70 46 151 120 187 170 20 27 27 43 18 40 -9 -3 -16 -10 -16 -15 0
-16 -129 -136 -186 -175 -164 -108 -395 -134 -578 -64 -23 9 -24 8 -25 -49 0
-57 0 -59 32 -69 l32 -11 -35 4 -35 5 30 -15 c17 -8 36 -14 43 -15 6 0 12 -3
12 -7 0 -8 15 -9 150 -13 70 -1 89 -6 147 -36 36 -19 73 -34 82 -32 8 2 28
-10 44 -27 16 -16 25 -23 21 -15 -17 33 -88 100 -106 100 -10 0 -18 5 -18 10
0 26 46 5 91 -42 39 -41 49 -57 44 -75 -3 -13 -2 -23 3 -23 14 0 84 -148 89
-190 7 -53 -3 -51 -17 3 -15 58 -57 145 -86 180 -32 38 -31 23 1 -19 14 -18
25 -39 25 -48 0 -8 4 -18 10 -21 5 -3 19 -35 30 -71 38 -124 21 -285 -41 -404
-35 -65 -136 -161 -213 -201 -61 -32 -81 -49 -55 -49 6 0 19 5 29 10 16 8 18
7 14 -4 -7 -19 -59 -40 -79 -32 -9 3 -13 2 -10 -4 9 -14 -61 -25 -153 -24 -57
1 -80 -2 -73 -9 23 -23 214 -6 306 28 11 4 5 -2 -13 -14 -47 -30 -118 -43
-217 -39 -47 2 -85 -1 -85 -6 0 -7 105 -4 280 7 19 1 41 8 48 15 20 18 32 15
32 -8 0 -13 -10 -24 -24 -30 -32 -12 -49 -45 -41 -78 l7 -27 10 25 c12 34 48
70 67 70 13 -1 13 -3 -3 -15 -17 -13 -17 -15 -3 -21 10 -3 17 -15 17 -25 0
-10 5 -19 10 -19 6 0 10 -9 10 -20 0 -16 7 -20 37 -20 31 0 34 2 21 13 -9 6
-18 19 -21 27 -4 11 -6 9 -6 -5 -1 -16 -3 -17 -11 -5 -5 9 -5 19 2 27 16 19
26 16 42 -14 10 -19 15 -23 16 -11 0 9 -5 20 -10 23 -6 4 -8 11 -5 16 4 5 1 9
-4 9 -6 0 -11 7 -11 16 0 11 5 14 16 10 9 -3 17 -6 20 -6 2 0 1 -6 -2 -13 -6
-17 21 -41 35 -32 11 6 0 32 -27 66 -11 14 -10 19 3 33 19 19 16 20 -22 6 -27
-10 -27 -9 -8 6 13 10 31 13 50 10 30 -5 30 -5 6 8 l-23 13 23 7 c20 5 21 8 9
16 -8 5 -10 10 -5 10 6 0 3 5 -5 11 -12 9 -12 10 3 5 25 -8 44 4 26 15 -9 6
-1 8 23 6 27 -3 35 -1 31 9 -3 8 -10 11 -17 7 -6 -4 -5 1 3 10 18 23 31 21 31
-4 0 -11 5 -29 10 -40 10 -17 8 -18 -16 -9 -41 16 -65 4 -54 -25 5 -12 6 -26
2 -30 -3 -3 1 -3 10 0 10 4 14 14 11 26 -6 22 16 26 49 8 27 -14 31 -7 17 27
-7 16 -11 33 -10 37 0 4 -4 18 -11 30 -15 28 -19 49 -7 41 5 -3 6 -10 3 -16
-4 -6 -1 -9 7 -6 8 3 14 11 14 19 0 8 12 15 30 17 17 2 35 8 42 14 16 13 38 0
90 -54 48 -49 129 -185 138 -232 4 -17 16 -62 27 -100 17 -55 20 -87 16 -155
-3 -47 -2 -72 2 -56 l8 30 2 -30 c2 -26 3 -24 12 15 5 25 7 72 4 105 -3 33 -2
76 3 95 7 34 8 33 18 -30 l10 -65 3 55 2 55 10 -45 c12 -58 1 -195 -23 -285
-37 -144 -138 -306 -226 -366 -48 -32 -63 -47 -63 -61 -1 -42 134 91 205 201
51 80 87 170 110 275 14 63 16 105 12 205 -4 69 -9 140 -12 156 -4 25 -4 26 4
9 9 -21 15 -59 27 -186 4 -38 10 -68 13 -68 8 0 4 -87 -5 -117 -3 -13 -10 -21
-14 -18 -4 2 -5 -7 -2 -22 4 -19 2 -24 -8 -18 -10 6 -11 2 -6 -19 4 -15 3 -25
-1 -23 -4 3 -9 -7 -10 -21 0 -15 -6 -28 -12 -30 -5 -2 -7 -10 -4 -19 5 -12 3
-14 -7 -8 -8 5 -11 4 -6 -3 8 -13 -23 -95 -47 -123 -10 -11 -22 -17 -28 -14
-5 4 -9 3 -8 -2 4 -21 -2 -34 -13 -27 -7 4 -8 3 -4 -4 9 -14 -20 -59 -47 -73
-15 -9 -18 -8 -11 2 4 8 -17 -7 -46 -31 -30 -25 -56 -45 -57 -46 -2 0 4 -32
12 -70 27 -128 17 -240 -30 -342 -14 -29 -25 -55 -25 -58 0 -3 -6 -11 -13 -18
-6 -8 -19 -24 -27 -36 -8 -12 -21 -28 -27 -36 -7 -7 -13 -17 -13 -23 0 -6 -5
-11 -11 -11 -10 0 -56 -36 -110 -85 -9 -8 -23 -15 -31 -15 -9 0 -21 -7 -28
-15 -7 -9 -20 -13 -28 -10 -8 3 -21 0 -28 -6 -8 -6 -21 -8 -31 -5 -11 5 -23
-1 -35 -16 -12 -15 -16 -17 -12 -5 5 14 0 17 -32 17 -29 0 -35 -3 -24 -10 13
-8 12 -10 -4 -10 -12 0 -16 -5 -13 -15 4 -8 2 -17 -2 -19 -9 -6 -20 -48 -27
-100 -5 -36 -14 -47 -14 -18 0 18 -6 22 -32 22 -25 0 -39 -8 -60 -34 -15 -19
-52 -47 -83 -62 -43 -22 -55 -33 -55 -52 0 -20 4 -22 23 -16 12 4 39 17 59 30
33 21 47 26 115 40 13 2 23 13 26 27 3 14 5 7 7 -18 l3 -40 7 35 c6 29 8 22
10 -40 l3 -75 6 67 c8 84 16 94 17 20 0 -73 14 -163 26 -179 5 -7 7 -17 3 -23
-3 -5 -2 -10 4 -10 5 0 12 -8 15 -18 4 -10 31 -44 62 -75 64 -65 153 -112 229
-121 49 -6 48 -6 -21 16 -87 28 -162 75 -208 131 -36 45 -74 112 -80 143 -3
11 -9 39 -14 63 -19 79 28 250 73 268 8 3 12 10 8 16 -4 6 2 8 16 4 19 -5 20
-3 9 10 -11 14 -10 16 14 9 22 -5 28 -3 28 10 0 11 5 14 16 10 10 -4 23 1 31
11 14 17 14 17 9 1 -3 -10 -1 -18 4 -18 6 0 10 8 10 18 0 23 39 46 73 43 15
-1 27 2 27 8 0 6 9 11 20 11 12 0 20 7 20 18 0 15 2 15 10 2 9 -13 12 -13 21
3 13 22 72 23 135 1 65 -22 66 -10 2 15 -29 12 -39 19 -23 16 54 -12 122 -46
151 -77 l29 -31 -30 18 -30 17 25 -20 c13 -11 27 -19 31 -17 3 3 15 -3 25 -11
16 -13 17 -15 2 -10 -13 4 -10 -5 12 -36 17 -23 30 -47 30 -54 0 -18 19 -27
33 -16 9 8 12 3 14 -15 0 -16 -2 -21 -7 -13 -13 21 -18 -3 -7 -40 10 -34 10
-34 17 -10 l8 25 1 -27 c1 -16 -2 -28 -6 -28 -5 0 -9 -30 -9 -68 -1 -40 -9
-88 -22 -119 -13 -34 -16 -53 -9 -56 18 -6 -9 -59 -56 -109 -51 -55 -92 -82
-108 -72 -7 4 -9 3 -6 -3 12 -19 -94 -55 -175 -60 -130 -9 -234 27 -320 112
-27 25 -48 51 -48 56 0 6 -12 21 -26 34 -14 13 -27 30 -28 38 -1 8 -6 21 -12
28 -15 21 -37 110 -35 143 1 17 -1 27 -4 24 -8 -8 -9 -85 -2 -118 14 -66 70
-162 124 -211 35 -33 130 -94 161 -104 13 -4 21 -9 19 -12 -3 -2 -31 7 -62 20
-61 26 -100 25 -90 0 3 -10 1 -13 -9 -10 -8 3 -16 2 -18 -2 -2 -5 -30 -15 -63
-23 -59 -15 -60 -15 -67 6 -6 20 -6 20 -7 -2 -1 -29 -33 -26 -43 3 -6 19 -6
19 -7 -1 -1 -17 -6 -20 -25 -17 -15 3 -27 13 -29 27 -4 20 -4 20 -6 -2 -1 -21
-4 -22 -38 -16 -21 4 -46 11 -56 16 -15 8 -17 3 -17 -37 l0 -45 384 0 c271 0
387 3 392 11 4 8 9 7 15 -2 7 -11 9 -10 9 5 0 12 5 16 15 12 8 -3 27 -1 41 4
14 6 23 7 21 2 -3 -4 2 -14 11 -21 14 -13 15 -12 10 7 -6 23 1 26 60 25 12 0
22 4 22 9 0 5 5 6 10 3 6 -3 10 -17 10 -31 0 -21 4 -24 39 -24 l39 0 -6 47
c-3 26 -11 54 -19 61 -7 7 -13 17 -13 21 0 11 -48 32 -52 23 -7 -15 -69 -43
-80 -36 -6 4 -8 3 -5 -3 9 -14 -61 -45 -85 -37 -12 3 -18 2 -15 -3 3 -5 -4 -8
-16 -7 -12 1 -42 3 -67 4 -45 2 -45 2 15 11 127 18 239 83 311 181 24 33 44
55 44 49 0 -7 5 -9 10 -6 6 3 10 2 10 -4 0 -15 -18 -23 -22 -9 -3 7 -7 5 -11
-6 -4 -10 -3 -15 3 -11 17 10 11 -7 -8 -24 -34 -31 -61 -72 -55 -87 3 -7 9
-12 14 -9 4 3 16 -6 25 -20 20 -31 38 -33 29 -3 -6 16 -4 20 8 15 21 -8 28 2
16 26 -8 14 -8 18 1 12 7 -4 13 1 17 14 3 12 8 21 12 21 3 0 4 22 3 50 -4 49
-3 50 25 49 25 0 26 -1 7 -9 -23 -9 -29 -56 -6 -54 45 4 56 6 44 11 -6 2 -10
9 -7 14 4 5 -1 6 -9 3 -9 -3 -16 -1 -16 5 0 14 37 15 45 1 3 -5 11 -10 17 -10
7 0 6 6 -2 15 -7 8 -19 15 -26 15 -8 0 -14 5 -14 10 0 12 2 12 35 0 15 -6 24
-6 20 -1 -5 9 -45 21 -91 26 -13 1 -22 -1 -19 -5 2 -4 -2 -7 -10 -7 -10 0 -12
11 -8 41 12 82 5 218 -10 209 -7 -4 -8 1 -2 13 4 10 7 27 7 38 -1 28 -35 116
-44 116 -5 0 -6 12 -3 28 3 15 2 21 -1 14 -4 -9 -21 2 -55 37 -59 61 -114 97
-194 127 -33 13 -50 23 -38 23 12 1 23 4 26 9 2 4 2 1 1 -5 -3 -12 2 -14 39
-17 6 -1 17 -7 22 -13 6 -8 20 -10 34 -6 l23 6 -23 13 c-13 7 -19 13 -12 14 7
0 10 16 8 45 -2 24 1 47 6 51 5 3 7 14 4 24 -3 10 -1 21 4 24 5 4 8 15 6 26
-3 15 2 20 18 20 16 0 18 3 9 12 -15 15 -16 42 0 32 8 -5 9 0 6 14 -4 15 -2
22 8 22 8 0 14 9 14 20 0 11 6 23 14 26 8 3 16 14 19 25 4 14 10 17 24 12 15
-6 16 -4 6 8 -10 12 -6 20 23 43 19 15 32 31 29 36 -3 5 5 14 17 21 21 11 22
11 9 -4 -7 -10 -9 -17 -3 -17 5 0 17 10 26 22 9 13 14 17 11 11 -9 -18 20 -16
35 2 7 8 21 15 30 15 10 0 21 6 23 13 4 9 8 8 16 -3 6 -8 11 -10 11 -4 0 12
157 13 205 1 21 -5 24 -5 10 2 -16 7 -13 8 17 8 29 -1 33 -3 21 -12 -12 -9
-11 -13 11 -23 20 -9 26 -9 26 1 0 6 10 0 21 -16 11 -15 24 -25 29 -22 4 3 10
-2 14 -10 3 -8 11 -15 18 -15 15 0 52 -39 53 -55 0 -5 -4 -13 -10 -18 -5 -4 2
-5 18 -3 15 3 27 1 27 -4 0 -5 6 -15 13 -22 19 -19 68 -117 66 -131 -1 -7 4
-25 11 -42 16 -39 24 -115 16 -159 -5 -28 -12 -36 -29 -37 -17 -1 -18 -2 -4
-6 21 -6 21 -8 0 -69 -18 -52 -47 -107 -71 -137 -12 -13 -17 -15 -24 -5 -5 9
-8 6 -8 -9 0 -15 -17 -36 -51 -63 -28 -22 -55 -40 -59 -40 -5 0 -15 -6 -23
-14 -40 -40 -178 -60 -196 -28 -6 9 -11 12 -11 6 0 -7 -9 -14 -20 -17 -11 -3
-18 -2 -16 2 3 4 1 13 -5 21 -6 10 -9 11 -9 3 0 -7 -7 -13 -15 -13 -8 0 -15 5
-15 10 0 6 -5 10 -11 10 -6 0 -27 14 -46 30 -18 17 -30 30 -24 30 17 0 22 34
6 43 -15 8 -15 10 2 23 17 13 17 13 -2 14 -11 0 -26 -9 -32 -19 -11 -17 -9
-21 8 -26 11 -4 18 -9 15 -13 -3 -3 -17 1 -31 8 l-24 13 21 31 c102 149 184
256 204 267 15 7 24 21 24 35 0 37 21 77 58 110 32 29 33 32 17 47 -26 26 -42
20 -49 -18 -5 -23 -20 -45 -48 -70 -23 -19 -45 -35 -49 -35 -4 0 -10 -15 -13
-33 -3 -18 -25 -63 -49 -100 -102 -160 -127 -203 -127 -224 0 -13 4 -23 8 -23
9 0 12 -14 12 -67 0 -19 6 -33 13 -33 8 0 7 -3 -2 -9 -8 -5 -16 -17 -17 -26
-2 -12 3 -14 19 -10 19 5 20 5 4 -5 -9 -6 -15 -15 -12 -21 4 -5 2 -9 -3 -9 -5
0 -7 -11 -5 -25 3 -13 0 -38 -6 -56 -10 -30 -10 -31 14 -26 14 2 28 1 31 -4 3
-5 13 -4 23 3 13 8 26 8 47 0 18 -7 22 -11 11 -11 -10 -1 -15 -6 -12 -11 4 -7
13 -7 26 0 15 8 19 7 19 -4 0 -8 -7 -21 -15 -29 -12 -13 -12 -18 6 -38 16 -18
22 -20 28 -10 5 7 11 9 13 5 3 -5 2 -2 0 6 -3 8 -6 27 -6 41 -1 14 -14 42 -29
62 -21 28 -35 37 -58 37 -17 0 -32 -6 -35 -15 -4 -8 -10 -15 -15 -15 -5 0 -3
11 3 25 13 28 34 31 85 13 25 -9 38 -24 58 -65 14 -30 25 -57 25 -62 0 -5 21
-37 46 -71 46 -63 46 -63 17 -56 -27 7 -35 15 -69 61 -12 16 -16 18 -23 6 -7
-10 2 -30 29 -66 21 -29 46 -69 54 -90 9 -20 25 -39 36 -42 11 -3 20 -14 20
-24 0 -17 9 -19 111 -19 100 0 110 2 105 18 -2 9 -8 42 -12 72 l-8 55 -6 -45
-6 -45 -8 38 c-9 42 1 130 14 122 4 -3 6 3 3 13 -5 22 35 114 47 107 5 -3 12
0 16 6 4 8 3 9 -4 5 -19 -11 -14 9 6 27 10 10 22 14 27 10 4 -5 5 -3 1 4 -11
19 54 72 132 109 60 28 85 34 135 33 34 0 80 -6 102 -14 l40 -13 -50 5 c-27 2
-59 6 -69 8 -25 5 -132 -23 -175 -46 -46 -25 -30 -24 35 0 80 31 140 35 214
16 87 -22 151 -59 204 -115 76 -81 105 -165 107 -309 l1 -66 19 74 c23 89 29
98 29 42 0 -23 -3 -40 -7 -38 -5 3 -8 -13 -8 -34 -1 -21 0 -39 2 -39 1 0 8 20
14 45 11 42 13 44 45 43 19 -1 37 2 41 5 3 4 -5 7 -18 7 l-24 1 25 14 c14 8
34 14 46 15 11 0 37 16 58 35 28 26 48 35 72 35 22 0 34 5 34 14 0 19 -30 42
-38 30 -17 -25 -60 -44 -99 -44 -27 0 -45 -5 -50 -15 -5 -8 -23 -19 -40 -24
-25 -7 -30 -6 -30 8 1 42 -36 144 -68 186 -21 28 -22 33 -9 55 l15 25 -7 -24
c-4 -16 -3 -21 5 -17 6 4 11 0 11 -8 0 -9 7 -16 16 -16 14 0 14 1 0 16 -9 8
-16 24 -16 35 0 26 -27 24 -35 -2 -7 -21 -8 -21 -37 10 -36 39 -30 49 53 92
133 67 277 57 405 -27 37 -24 70 -44 73 -44 6 0 25 -22 57 -65 13 -18 13 -17
0 10 -7 17 -38 55 -68 84 -53 54 -53 55 -13 31 21 -13 48 -33 58 -43 14 -14
21 -16 27 -8 5 9 14 9 36 0 16 -7 79 -12 142 -13 85 0 105 -3 80 -9 -18 -5
-78 -7 -133 -3 -55 3 -95 2 -89 -2 14 -9 75 -144 73 -160 -4 -25 2 -42 13 -36
8 5 9 -2 5 -27 -5 -24 -4 -30 3 -19 5 8 10 30 10 48 0 17 5 32 10 32 6 0 10
12 10 28 0 47 11 72 31 72 11 0 19 7 19 18 0 12 3 13 8 5 6 -10 12 -10 28 2
17 13 14 15 -41 16 -60 2 -59 2 20 9 44 4 91 10 105 14 14 3 32 2 40 -4 13 -8
10 -14 -17 -36 -24 -18 -33 -34 -33 -55 0 -16 5 -29 10 -29 6 0 10 8 10 17 0
9 10 27 22 40 l22 23 28 -60 c16 -33 33 -60 39 -60 16 0 10 -39 -8 -49 -17
-10 -17 -10 0 -11 14 0 17 -10 17 -59 0 -32 3 -79 6 -105 l7 -46 44 0 44 0 -5
53 c-4 37 -3 45 3 27 5 -14 9 -37 10 -52 1 -23 6 -28 27 -28 21 0 25 3 18 18
-12 26 -14 253 -2 246 6 -4 8 1 4 12 -3 11 0 39 8 64 7 25 11 50 9 57 -2 6 6
29 19 50 13 21 34 59 47 85 14 26 30 44 35 41 6 -4 8 -3 4 1 -13 15 74 127
146 189 39 33 70 63 69 66 -2 7 56 37 122 62 28 11 39 17 25 14 -14 -3 -36 -7
-50 -10 -14 -3 -2 3 25 14 28 11 59 19 70 20 l20 0 -20 -10 c-16 -7 -12 -8 14
-4 18 3 39 5 45 6 6 1 0 4 -14 8 -68 21 194 26 295 6 29 -5 29 -5 5 6 -38 17
-230 23 -303 9 -69 -13 -205 -57 -224 -72 -7 -6 -13 -7 -13 -3 0 4 -16 -2 -36
-14 -40 -24 -51 -27 -32 -8 22 22 84 57 145 82 32 13 52 24 45 25 -7 0 -39
-11 -72 -24 -64 -26 -80 -27 -31 -1 137 70 367 95 524 55 101 -25 152 -48 221
-99 31 -23 58 -41 61 -41 10 1 33 -25 28 -33 -2 -4 -17 2 -33 13 -15 11 -33
20 -38 20 -6 0 -25 12 -42 26 -17 15 -34 24 -37 20 -3 -3 -11 -2 -17 2 -17 13
-95 36 -101 30 -7 -7 82 -40 112 -42 11 0 19 -4 17 -8 -2 -3 20 -20 49 -36
121 -68 222 -178 285 -310 42 -88 38 -106 -6 -25 -36 68 -74 125 -121 182 -38
46 -171 151 -196 155 -9 1 -20 9 -25 16 -5 8 -12 12 -15 8 -10 -9 34 -50 45
-43 6 4 10 2 10 -3 0 -5 16 -17 35 -28 20 -10 70 -55 113 -99 165 -172 232
-391 192 -630 -5 -33 -10 -61 -10 -62 0 -2 7 -3 15 -3 8 0 19 15 25 33 l10 32
-5 -32 c-4 -32 -3 -33 31 -33 32 0 35 2 29 23 -5 17 -4 19 4 7 6 -8 11 -13 12
-10 0 3 7 61 14 130 l14 125 -4 -115 c-2 -63 -7 -126 -11 -140 -4 -19 -3 -22
5 -10 7 10 11 11 11 3 0 -18 196 -18 203 0 4 9 6 9 6 0 1 -17 78 -17 84 0 4 9
7 9 14 0 11 -15 187 -17 178 -2 -4 5 -2 9 4 9 5 0 11 -5 13 -11 2 -6 19 -9 38
-7 l35 3 -35 22 c-19 13 -29 23 -22 23 7 0 30 -11 50 -25 50 -34 64 -31 22 5
-45 38 -31 38 25 0 24 -16 50 -30 57 -29 7 0 3 5 -9 11 -13 6 -23 15 -23 20 0
12 8 10 36 -8 14 -10 24 -13 23 -8 -4 21 2 28 11 14 8 -13 10 -12 10 3 0 9 5
17 11 17 7 0 9 10 5 26 -6 24 -6 25 9 10 22 -22 28 -20 14 5 -9 17 -8 20 2 17
16 -5 39 15 39 34 0 7 25 40 57 73 111 118 152 208 157 345 2 47 2 65 0 40 -5
-56 -34 -169 -46 -176 -4 -3 -8 1 -8 8 0 7 -18 -23 -40 -67 -24 -47 -55 -92
-75 -109 -22 -17 -33 -22 -29 -12 3 9 10 16 14 16 14 0 98 135 111 179 10 34
14 39 20 25 6 -16 8 -15 14 9 11 43 1 217 -13 226 -7 4 -10 14 -7 22 3 8 -12
49 -34 92 l-39 77 31 -32 c35 -37 63 -90 82 -158 9 -32 13 -38 14 -20 1 30
-32 121 -62 170 -15 25 -16 31 -5 22 17 -14 59 -95 78 -152 16 -46 23 -230 10
-230 -6 0 -10 -9 -10 -20 0 -25 18 -26 36 -2 7 9 13 13 14 7 0 -18 -14 -33
-35 -37 -14 -2 -19 -10 -17 -25 2 -12 -4 -33 -12 -46 -9 -13 -13 -27 -9 -31 4
-4 0 -4 -10 0 -11 4 -17 1 -18 -7 0 -8 -2 -24 -5 -37 -3 -16 0 -21 8 -16 7 5
8 3 3 -6 -5 -8 -3 -11 6 -8 8 3 23 -8 35 -23 11 -16 24 -26 27 -23 3 3 -3 15
-14 27 -10 11 -19 29 -19 39 0 11 -4 16 -10 13 -5 -3 -10 -2 -10 3 0 14 26 33
33 25 4 -3 7 -1 7 5 0 7 7 12 15 12 11 0 12 5 5 24 -14 39 -8 66 15 66 11 0
27 5 35 10 13 9 12 12 -4 25 -16 12 -17 17 -6 30 11 13 10 14 -4 9 -12 -5 -16
0 -16 20 0 14 -6 26 -12 26 -9 0 -10 3 -2 8 7 4 11 46 11 114 -1 101 1 108 27
142 29 39 46 46 46 19 0 -40 66 -151 126 -211 61 -61 179 -129 207 -119 7 2
-6 10 -28 16 -44 14 -82 38 -73 46 3 3 21 -3 39 -14 19 -10 67 -27 108 -37 62
-14 86 -16 146 -7 69 10 195 58 195 74 0 9 -28 1 -46 -13 -6 -4 -20 -6 -30 -2
-13 4 -15 3 -6 -3 21 -16 -82 -43 -162 -43 -82 0 -167 19 -219 50 -20 12 -42
18 -48 14 -7 -4 -9 -3 -6 3 4 6 -9 23 -28 38 -42 31 -89 98 -83 117 3 8 11 1
20 -17 17 -31 66 -80 111 -110 41 -27 32 -3 -11 30 -41 31 -92 95 -92 117 -1
7 -7 31 -15 53 -9 25 -11 43 -5 49 14 14 12 39 -2 30 -7 -4 -8 -3 -4 4 10 17
68 15 92 -3 18 -14 18 -14 -2 -9 -27 7 -40 -12 -24 -31 16 -19 40 -19 40 0 0
8 6 15 14 15 8 0 17 7 20 16 4 11 2 15 -8 11 -8 -3 -19 0 -25 7 -9 10 -1 14
36 19 27 3 82 19 122 36 75 31 94 34 67 12 -12 -10 -11 -15 8 -34 15 -16 26
-49 39 -122 28 -158 38 -207 42 -203 2 2 -1 66 -6 143 -6 77 -8 158 -5 180 3
22 2 47 -4 55 -10 15 13 50 34 50 6 0 27 14 46 31 l35 31 -35 -21 c-89 -55
-208 -106 -330 -143 -58 -17 -308 -16 -369 1 -62 18 -43 25 26 10 77 -17 256
-15 319 4 27 8 51 15 54 15 29 4 177 72 254 117 89 52 186 142 186 173 0 23
-1 23 -31 -7 -33 -33 -52 -40 -43 -16 4 8 10 15 16 15 5 0 7 4 4 8 -3 5 8 22
24 37 17 16 30 36 30 44 0 9 -11 1 -27 -19 -38 -46 -91 -97 -133 -129 -19 -14
-37 -29 -40 -32 -3 -3 -21 -14 -40 -25 -19 -10 -42 -24 -50 -30 -24 -17 -101
-43 -150 -49 -43 -6 -43 -6 20 18 79 29 153 66 215 108 57 38 175 151 175 168
0 6 0 14 -1 18 0 4 8 10 18 14 16 7 16 8 1 8 -9 1 -27 -14 -39 -32 -13 -17
-29 -36 -36 -40 -7 -4 -13 -15 -13 -24 0 -9 -2 -14 -5 -11 -3 3 -22 -10 -43
-30 -86 -80 -217 -147 -346 -177 -103 -24 -292 -17 -380 14 -75 26 -186 88
-193 107 -3 9 -12 13 -19 10 -7 -3 -12 0 -10 7 1 7 1 9 -1 4 -3 -4 -10 -4 -16
0 -7 4 -4 -5 6 -21 10 -15 15 -31 12 -34 -4 -4 -15 4 -24 18 -33 52 -78 93
-90 85 -9 -5 -1 -19 29 -50 22 -23 42 -53 43 -66 1 -13 9 -35 16 -49 8 -14 16
-66 19 -121 4 -88 2 -102 -22 -154 -14 -31 -38 -73 -54 -93 -30 -39 -32 -78
-5 -68 12 5 13 4 5 -7 -7 -8 -9 -17 -5 -20 3 -4 -1 -7 -10 -7 -10 0 -17 -7
-17 -15 0 -9 -6 -18 -14 -21 -8 -3 -12 -12 -9 -20 7 -20 20 -17 26 6 3 13 10
18 21 14 9 -3 14 -10 11 -14 -3 -5 -1 -11 4 -14 5 -3 11 3 14 14 4 14 0 20
-11 20 -12 0 -13 3 -5 8 6 4 11 15 10 25 -1 10 10 25 26 35 27 16 29 16 38 0
13 -23 24 -23 49 2 17 17 18 20 3 20 -15 0 -14 2 3 19 13 12 21 15 26 7 5 -6
8 -1 8 12 0 12 7 25 15 28 8 4 15 14 15 23 1 13 3 12 12 -4 6 -11 22 -33 35
-49 16 -19 23 -38 20 -55 -2 -14 -2 -20 0 -13 3 7 9 10 14 7 5 -4 8 -45 7 -93
l-1 -87 -7 65 c-4 40 -7 51 -8 29 -6 -124 -44 -216 -121 -299 -118 -124 -299
-172 -449 -120 -86 30 -107 49 -106 96 1 50 25 106 41 100 16 -6 16 -1 2 26
-10 19 -9 20 10 15 23 -6 27 3 9 21 -9 9 -8 18 2 37 11 21 15 23 22 10 5 -8
13 -15 18 -15 10 0 8 19 -4 39 -7 10 1 12 42 10 56 -4 58 2 10 22 l-33 14 35
7 c26 5 20 6 -20 3 -33 -2 -69 3 -89 11 -18 8 -37 14 -41 14 -4 0 -10 -26 -14
-57 -4 -32 -11 -65 -17 -73 -6 -10 -7 2 -2 40 4 30 7 63 7 73 0 9 5 17 11 18
5 0 0 4 -13 9 -31 13 -56 2 -41 -17 16 -19 13 -70 -6 -117 -38 -90 -61 -101
-91 -45 -9 18 -23 29 -35 29 -15 0 -19 5 -15 15 3 8 -1 20 -8 28 -7 7 -16 35
-19 62 -8 75 -15 87 -40 73 -19 -10 -20 -9 -10 3 17 21 12 38 -24 87 -31 42
-34 68 -10 84 13 8 -11 33 -40 40 -16 4 -20 2 -16 -8 3 -8 1 -14 -4 -14 -6 0
-10 12 -9 27 1 16 6 28 11 27 6 -1 15 5 20 12 7 9 22 12 46 8 32 -5 38 -11 52
-53 10 -25 17 -51 17 -57 0 -7 18 -29 40 -51 29 -30 38 -45 33 -61 -3 -13 -1
-22 6 -22 6 0 11 -8 11 -17 1 -17 1 -17 11 0 10 17 12 17 43 -3 39 -24 58 -27
30 -5 -16 13 -13 13 21 -1 70 -29 82 -26 18 5 -68 32 -123 78 -153 127 -25 39
-27 62 -5 44 8 -7 15 -17 15 -22 0 -13 81 -98 93 -98 5 0 -10 22 -35 48 -61
65 -90 143 -90 247 -1 143 49 234 176 319 53 35 35 33 -31 -4 -57 -32 -73 -25
-22 10 16 12 28 25 25 27 -3 3 -21 -6 -40 -21 -44 -33 -55 -34 -22 -1 31 31
112 75 138 75 15 0 18 5 12 22 -6 21 -5 21 10 9 15 -12 19 -12 33 2 14 14 15
22 4 59 -7 24 -17 52 -22 63 -15 34 -42 167 -46 228 -4 53 -6 57 -26 52 -21
-6 -21 -5 2 15 24 21 23 42 -1 22 -7 -5 -47 -13 -88 -17 -41 -4 -76 -7 -76 -8
-1 -1 -5 -12 -8 -25 -5 -16 -3 -24 10 -29 29 -11 -73 -32 -156 -32 -105 -1
-184 25 -275 88 -89 61 -150 142 -199 261 -3 8 -3 0 0 -19 4 -23 3 -31 -5 -27
-7 5 -8 1 -4 -9 5 -13 7 -14 14 -3 6 9 9 6 9 -10 0 -38 -23 -20 -42 34 -13 34
-17 67 -14 109 3 42 2 51 -4 30 -6 -24 -8 -18 -8 30 0 49 2 54 9 30 5 -21 6
-13 2 25 -11 126 78 286 222 396 40 31 133 66 150 56 11 -7 -41 -31 -68 -32
-24 0 -169 -119 -161 -132 4 -6 2 -8 -3 -5 -6 4 -17 -1 -24 -10 -27 -32 26 -4
72 38 62 57 151 98 229 105 36 3 67 8 69 10 2 2 11 -6 19 -17 11 -15 17 -18
22 -9 6 9 11 6 20 -10 6 -12 27 -39 47 -61 31 -35 33 -40 20 -54 -14 -14 -20
-13 -54 6 -21 11 -42 25 -47 29 -9 9 -76 -27 -76 -41 0 -11 14 -12 24 -2 31
31 136 -16 121 -55 -6 -16 -7 -16 -16 1 -12 21 -29 23 -29 3 0 -8 -9 -18 -20
-21 -11 -3 -20 -12 -20 -20 0 -7 -7 -15 -15 -19 -22 -8 -18 -31 11 -65 l26
-31 35 45 c20 25 37 45 39 45 2 0 4 -11 4 -25 0 -14 -6 -25 -12 -25 -18 0 -39
-48 -25 -57 9 -5 31 16 78 75 6 7 7 21 4 32 -9 28 11 25 37 -5 12 -14 25 -25
30 -25 15 0 8 27 -12 45 -22 20 -26 40 -10 50 15 9 95 -38 95 -55 0 -10 10
-15 28 -15 25 1 27 -1 12 -11 -9 -7 -14 -17 -10 -23 4 -7 14 -3 28 10 19 17
23 18 25 5 2 -9 8 -16 13 -16 6 0 8 4 5 9 -4 5 3 7 15 4 16 -5 18 -8 7 -15 -9
-7 -7 -8 10 -5 12 3 20 1 16 -4 -3 -5 -1 -9 5 -9 6 0 8 -7 5 -15 -4 -8 -2 -15
2 -15 5 0 17 -7 26 -14 17 -12 16 -18 -16 -87 -19 -41 -44 -112 -56 -159 -24
-95 -38 -294 -23 -350 7 -26 9 -3 10 95 0 189 39 334 122 465 37 59 60 87 43
55 -112 -223 -135 -311 -135 -500 0 -115 4 -153 23 -215 12 -41 23 -82 24 -92
1 -9 7 -22 13 -30 20 -26 22 -35 8 -35 -13 0 -52 81 -81 169 l-14 43 6 -39 c6
-39 59 -208 74 -235 5 -9 28 -16 56 -18 27 -2 58 -5 69 -6 11 -1 40 -12 63
-25 l44 -23 -23 33 c-12 18 -30 42 -39 53 -58 67 -128 249 -131 344 -2 32 -2
33 -6 7 -5 -32 21 -159 43 -213 9 -19 17 -52 19 -72 2 -20 1 -30 -2 -23 -2 6
-9 10 -14 7 -4 -3 -18 16 -30 42 -11 26 -25 56 -30 65 -45 86 -57 348 -21 473
21 78 53 165 65 180 4 6 25 38 47 72 22 35 44 63 50 63 12 0 8 -8 -20 -50 -48
-72 -118 -225 -107 -236 3 -3 12 17 21 43 19 57 104 200 122 207 7 3 -4 -23
-24 -57 -40 -65 -65 -117 -60 -123 2 -1 18 25 36 59 39 74 78 124 89 114 4 -5
1 -12 -6 -16 -18 -12 -5 -31 21 -31 18 0 19 2 7 16 -12 15 -11 16 10 9 19 -6
23 -4 18 7 -4 11 1 14 19 10 13 -2 24 0 24 6 0 5 16 13 35 16 19 4 35 11 35
17 0 6 5 7 10 4 6 -4 7 -11 4 -17 -4 -7 -2 -8 5 -4 6 4 9 11 6 16 -3 5 8 11
24 15 22 5 28 11 24 23 -3 12 -2 13 4 5 7 -9 18 -10 42 -3 19 5 38 7 42 4 5
-3 6 2 3 11 -4 10 -2 15 7 13 8 -2 13 3 11 11 -2 8 3 11 13 8 8 -4 15 -1 15 5
0 7 5 6 15 -2 9 -8 15 -8 15 -2 0 6 26 25 58 43 31 18 60 37 64 43 4 7 9 5 12
-4 2 -8 7 -22 9 -30 3 -8 6 2 6 23 1 26 5 37 14 34 6 -2 18 5 25 17 8 13 12
15 11 6 -3 -30 1 -41 12 -34 6 3 9 14 6 23 -5 20 -7 20 97 27 61 5 77 3 71 -6
-5 -8 -3 -11 6 -8 8 3 14 10 14 16 0 6 15 25 33 42 37 34 54 40 27 10 -17 -19
-9 -29 10 -12 6 4 -22 -23 -62 -60 -58 -55 -80 -87 -118 -163 -45 -90 -47 -99
-53 -201 -4 -87 -3 -106 8 -99 9 6 11 4 5 -4 -8 -15 -21 -5 -29 24 -3 11 -4 0
-2 -25 4 -47 33 -126 43 -116 3 3 0 19 -7 35 -9 22 -9 34 -1 48 9 15 10 13 5
-11 -5 -22 -4 -27 6 -21 9 5 11 4 6 -3 -4 -7 -2 -12 4 -12 7 0 9 12 5 33 -14
75 -17 95 -20 147 -3 42 -2 49 5 30 7 -19 8 -16 4 17 -4 27 1 62 12 95 20 62
53 120 64 113 4 -3 14 3 21 13 13 15 12 16 -3 3 -10 -7 -18 -9 -18 -3 0 10 29
37 39 37 3 0 5 4 3 11 -2 11 59 72 93 90 92 50 117 61 170 74 33 8 90 15 128
15 37 0 67 3 67 7 0 11 -86 21 -132 14 -112 -16 -203 -18 -221 -4 -15 11 -2
13 85 13 153 0 297 39 264 72 -4 4 -28 -1 -54 -10 -82 -28 -252 -47 -252 -28
0 4 39 11 88 13 87 6 198 31 217 51 7 7 4 7 -10 2 -49 -19 -174 -45 -217 -45
-69 0 -59 20 10 22 l57 1 -55 7 c-30 4 -44 8 -30 10 18 2 20 4 8 7 -10 2 -18
9 -18 14 0 10 -9 23 -40 57 -16 19 -13 72 13 229 l14 81 -24 11 c-21 10 -23 8
-24 -17 -11 -207 -15 -262 -23 -261 -5 0 -12 -5 -16 -11 -13 -21 -32 1 -28 31
3 16 1 29 -4 29 -5 0 -8 9 -6 19 2 10 -6 29 -16 40 -18 20 -18 21 -2 15 15 -6
14 1 -8 45 -15 28 -27 54 -29 58 -1 5 -5 7 -9 6 -5 -2 -8 2 -8 7 0 6 5 10 11
10 5 0 7 5 4 10 -4 6 -11 7 -17 4 -7 -5 -9 -1 -5 9 4 12 2 14 -10 10 -11 -4
-14 -2 -9 5 4 7 3 12 -2 12 -5 0 -15 13 -22 29 -8 21 -17 28 -28 24 -11 -5
-13 -3 -7 7 6 10 4 12 -8 7 -12 -4 -21 2 -32 23 -9 17 -18 30 -21 30 -3 0 -2
-5 2 -11 4 -7 1 -10 -7 -7 -8 3 -13 11 -12 17 2 6 -2 11 -7 11 -6 0 -22 11
-36 25 -19 19 -23 29 -15 43 8 15 6 18 -12 18 -18 -1 -22 4 -22 32 0 24 -4 32
-16 30 -9 -2 -46 25 -82 59 -36 33 -74 66 -84 73 -13 8 -14 13 -5 16 6 3 10
10 6 15 -9 15 47 127 72 144 14 9 48 18 77 21 28 3 57 10 63 15 7 5 16 9 20 8
19 -5 44 14 44 33 0 13 5 18 14 15 9 -4 13 3 12 24 -1 33 -4 34 -42 14 -19
-10 -58 -15 -110 -15 -87 0 -143 17 -199 62 -24 19 -28 20 -22 5 6 -17 5 -17
-22 -1 -34 20 -95 110 -87 129 3 8 0 15 -7 18 -9 3 -9 10 0 30 7 15 8 27 4 27
-5 0 -11 -8 -13 -17 -2 -10 -3 24 -2 74 0 51 4 96 7 100 4 3 4 -7 1 -24 -3
-18 -1 -33 5 -37 6 -4 11 -25 11 -47 0 -21 3 -39 8 -39 4 0 7 25 8 56 0 34 6
59 14 64 7 4 10 12 6 18 -3 6 -2 13 4 17 5 3 10 13 10 22 0 13 -3 13 -15 3
-13 -11 -14 -10 -9 4 7 19 15 20 33 4 11 -11 13 -10 8 5 -4 9 -2 17 3 17 6 0
10 8 10 18 0 14 -2 15 -10 2 -5 -8 -10 -11 -10 -6 0 5 14 22 32 38 31 27 31
28 8 28 -13 0 -32 -8 -43 -17 -19 -17 -20 -17 -14 -1 5 15 -2 17 -68 16 -57 0
-75 -4 -75 -14 0 -8 -4 -14 -10 -14 -5 0 -7 8 -3 18 4 13 2 12 -10 -4 -9 -11
-19 -34 -23 -50 -10 -42 -60 -131 -106 -192 -51 -66 -206 -201 -232 -202 -6 0
10 14 35 32 66 47 190 177 226 239 17 30 43 83 56 120 l25 65 -32 2 c-29 2
-33 -2 -60 -60 -34 -70 -47 -65 -16 6 23 54 23 56 11 56 -5 0 -14 -14 -22 -32
-38 -93 -142 -219 -244 -294 -104 -78 -321 -143 -435 -130 -108 12 -273 60
-308 88 -7 6 -15 8 -19 5 -3 -3 30 -23 72 -44 43 -21 77 -42 76 -47 -2 -5 3
-13 11 -17 7 -5 9 -9 3 -9 -5 0 -17 5 -25 10 -13 9 -13 10 0 11 10 0 8 3 -5 9
-27 12 -43 12 -25 0 13 -8 12 -10 -3 -10 -9 0 -25 4 -35 9 -9 5 -42 21 -72 36
-133 68 -253 194 -320 338 -31 64 -46 85 -56 74 -8 -8 42 -113 89 -184 73
-113 198 -226 305 -274 28 -13 52 -28 52 -32 0 -5 4 -6 9 -2 6 3 25 -1 43 -8
l33 -14 -30 2 c-95 6 -241 90 -337 193 -63 67 -141 188 -170 262 -24 62 -43
83 -28 31 23 -80 103 -209 186 -300 33 -36 51 -62 42 -58 -10 3 -18 2 -18 -3
0 -6 -9 -10 -19 -10 -11 0 -31 -13 -44 -30 -14 -16 -30 -30 -36 -30 -15 0 -14
27 2 33 8 3 6 10 -8 22 -11 9 -15 14 -9 11 7 -3 18 1 25 10 10 13 10 17 -2 25
-12 7 -11 9 3 9 15 0 15 4 2 47 -8 25 -21 54 -29 63 -8 9 -15 21 -15 26 0 6
-8 19 -18 30 -19 20 -50 84 -73 147 -12 35 -15 37 -55 37 -42 0 -42 0 -53 -47
-7 -27 -13 -55 -16 -63 -2 -8 -4 -17 -4 -20 -1 -3 -12 -18 -26 -34 -14 -16
-25 -33 -25 -38 0 -4 -5 -8 -11 -8 -8 0 -7 6 2 18 11 13 9 13 -9 -2 -12 -11
-18 -22 -13 -26 6 -3 1 -11 -10 -19 -15 -9 -19 -9 -14 0 5 7 3 10 -6 7 -8 -3
-13 -14 -11 -24 2 -15 1 -16 -6 -5 -8 11 -14 11 -33 -3 -13 -9 -23 -19 -21
-23 1 -3 -12 -8 -30 -10 -31 -3 -30 -2 19 27 29 16 73 50 98 74 49 48 105 145
104 180 0 14 -6 7 -18 -22 -9 -23 -21 -39 -26 -35 -4 4 -5 2 -1 -4 4 -7 -6
-32 -24 -57 -61 -90 -174 -158 -280 -169 -60 -6 -43 7 23 18 51 8 47 24 -5 19
-28 -2 -35 -1 -20 4 l22 7 -21 13 c-12 8 -18 9 -14 3 3 -6 1 -11 -4 -11 -6 0
-11 7 -11 15 0 8 -4 15 -10 15 -5 0 -10 -7 -10 -16 0 -25 -59 27 -59 53 -1 12
-7 23 -13 26 -7 2 -4 3 7 1 15 -2 21 3 22 17 1 10 -2 17 -7 14 -12 -8 -22 26
-10 39 5 7 7 29 3 49 -5 35 -8 37 -44 37 -27 0 -39 -5 -42 -17 -4 -17 -5 -17
-6 0 -1 20 -27 23 -34 5 -4 -10 -6 -10 -6 0 -1 6 -14 12 -29 12 -27 0 -29 -3
-41 -67 -7 -38 -19 -83 -28 -101 -8 -17 -13 -41 -10 -52 3 -12 0 -20 -8 -20
-7 0 -15 -17 -19 -39 -3 -21 -13 -44 -21 -51 -17 -14 -21 -35 -4 -24 16 9 -17
-50 -36 -66 -9 -8 -26 -15 -37 -17 -18 -3 -19 -1 -8 12 7 9 15 13 18 10 7 -7
52 36 52 49 0 6 -11 -2 -25 -19 -13 -16 -24 -25 -25 -18 0 6 -13 -2 -30 -17
-30 -28 -43 -53 -15 -30 12 10 15 10 15 0 0 -9 4 -9 18 1 15 13 16 12 3 -3 -7
-10 -17 -16 -21 -13 -4 3 -13 -2 -20 -10 -14 -17 -35 -20 -24 -4 9 15 -2 10
-48 -21 -21 -14 -38 -29 -38 -34 0 -4 16 4 36 19 19 15 38 25 41 22 2 -3 -15
-20 -39 -37 -23 -17 -43 -36 -43 -42 0 -6 -5 -13 -12 -15 -13 -5 -12 14 1 35
7 12 4 12 -14 2 -16 -9 -19 -14 -11 -20 9 -5 8 -9 -4 -14 -23 -8 -27 -8 -20 4
9 15 -7 12 -29 -5 -14 -11 -16 -15 -5 -15 8 -1 3 -7 -11 -15 -14 -8 -20 -14
-15 -14 6 0 21 6 35 14 33 19 50 18 26 0 -11 -8 -15 -15 -10 -15 6 0 52 27
102 60 81 53 199 167 211 203 2 7 19 31 38 54 20 26 31 48 27 55 -4 7 -3 10 1
5 5 -4 16 10 26 30 10 23 18 31 18 20 1 -18 -50 -130 -71 -154 -6 -8 -8 -16
-6 -19 8 -7 45 47 69 101 11 26 23 44 25 42 8 -8 -51 -119 -91 -173 -91 -120
-194 -206 -319 -265 -92 -43 -200 -74 -218 -63 -7 5 -8 3 -3 -6 6 -10 0 -12
-31 -7 -21 4 -53 7 -70 7 -19 0 -31 5 -31 13 0 16 134 41 164 31 17 -5 17 -5
0 6 -13 8 -36 8 -92 0 -94 -14 -225 0 -334 36 -86 28 -109 40 -99 50 4 3 35
-5 70 -19 112 -44 209 -60 327 -54 119 7 160 15 139 28 -10 7 -8 9 6 9 11 0
17 2 14 5 -3 4 -18 3 -33 -1 -18 -4 -23 -9 -15 -14 7 -4 -13 -11 -46 -14 -65
-7 -223 12 -319 39 -177 48 -362 202 -444 370 -35 72 -68 171 -73 220 -3 29
-4 30 -66 33 l-63 3 5 -53 5 -53 -10 53 c-10 48 -13 52 -39 52 l-29 0 14 -41
c8 -23 15 -49 14 -58 0 -12 -37 78 -39 97 0 1 -4 2 -9 2 -5 0 0 -28 11 -62 26
-81 28 -212 5 -287 -9 -29 -15 -57 -12 -61 2 -4 -10 -20 -27 -36 -17 -16 -44
-49 -59 -73 -31 -48 -39 -49 -14 -2 8 16 11 32 7 36 -4 5 -1 5 6 1 7 -4 12 -2
12 6 0 7 9 19 20 26 12 7 18 17 15 22 -3 5 0 12 6 16 8 5 9 3 4 -6 -5 -8 -4
-11 3 -6 16 9 6 30 -21 41 -15 7 -21 17 -20 35 1 14 0 19 -3 13 -10 -22 -33
-14 -40 12 -3 14 -10 25 -15 25 -6 0 -5 -9 1 -21 6 -11 9 -25 7 -32 -3 -7 -10
0 -16 16 -12 32 -21 35 -21 7 0 -10 9 -28 21 -39 24 -22 11 -21 -43 3 -21 9
-41 16 -46 16 -5 0 -20 16 -34 36 -14 19 -53 64 -88 100 l-62 65 18 27 c10 15
26 33 36 40 15 11 16 15 5 27 -8 7 -22 15 -33 17 -14 2 -20 -5 -25 -35 -9 -56
-21 -63 -57 -32 -21 17 -32 38 -37 65 l-7 41 -64 -2 -64 -2 -12 -38z m3012
-160 c0 -6 6 -9 13 -6 18 7 31 -17 47 -81 25 -106 -8 -228 -84 -306 -28 -29
-51 -46 -53 -39 -3 8 -15 10 -34 6 -21 -4 -30 -1 -35 11 -3 9 -14 16 -23 16
-13 0 -14 2 -2 9 12 8 12 11 -1 25 -9 8 -18 13 -21 10 -3 -4 -9 10 -12 30 -4
20 -10 36 -14 36 -15 0 6 97 27 127 12 17 22 36 22 42 0 6 11 17 25 23 13 6
27 19 30 30 4 10 11 18 16 18 6 0 8 4 5 8 -2 4 0 14 6 22 8 12 9 11 4 -4 -7
-19 -6 -19 12 -3 10 9 27 17 38 17 16 0 17 2 4 10 -12 8 -11 10 8 10 12 0 22
-5 22 -11z m-2875 -39 c-3 -5 -1 -10 5 -10 26 0 90 -64 144 -143 31 -46 56
-89 56 -96 0 -6 9 -11 21 -11 18 0 20 4 15 28 l-6 27 15 -28 c9 -15 20 -25 24
-22 5 2 13 -1 19 -8 8 -9 2 -12 -26 -12 -32 0 -38 -4 -40 -24 -3 -16 3 -30 15
-38 15 -12 16 -15 4 -23 -11 -6 -5 -10 22 -15 19 -4 40 -4 46 0 6 3 11 1 11
-5 0 -6 5 -8 10 -5 6 3 10 2 10 -3 0 -9 -48 -8 -110 3 l-35 6 28 -21 c15 -12
27 -28 27 -35 0 -8 10 -16 23 -18 21 -4 21 -5 2 -11 -17 -6 -20 -17 -22 -74 0
-37 -8 -92 -16 -123 -15 -56 -56 -160 -67 -169 -14 -13 -41 -62 -29 -54 22 13
-27 -49 -67 -86 -21 -19 -30 -25 -20 -13 18 22 18 23 -8 32 -30 12 -36 36 -6
26 14 -5 20 -2 20 10 0 11 -7 15 -22 13 -13 -2 -23 2 -23 7 -1 6 -5 35 -10 65
-8 51 -9 53 -16 25 -6 -21 -7 -11 -4 30 3 54 3 56 -7 25 -5 -19 -8 -60 -5 -90
3 -34 2 -47 -3 -35 -8 18 -9 18 -9 -5 -1 -27 -35 -128 -47 -139 -7 -6 -7 -3
25 104 12 38 21 88 21 110 0 47 -25 160 -41 184 -9 13 -9 13 -4 -4 19 -58 28
-136 17 -147 -9 -9 -12 -4 -13 23 -1 31 -2 31 -8 9 -7 -24 -8 -23 -13 10 -4
19 -10 44 -14 54 -5 13 -4 17 3 13 14 -9 -9 59 -25 75 -7 7 -12 18 -12 25 0 7
-5 13 -10 13 -6 0 -4 -14 5 -31 9 -17 14 -33 12 -35 -5 -5 -31 55 -32 73 0 14
-83 103 -96 103 -5 0 -9 5 -9 11 0 8 4 9 13 0 8 -6 16 -8 20 -5 8 8 127 -113
127 -130 0 -19 30 -44 30 -25 1 8 7 3 15 -11 8 -14 14 -20 14 -15 1 15 -17 40
-28 40 -9 0 -61 70 -61 82 0 3 9 -2 20 -12 43 -39 16 4 -41 64 -33 35 -58 69
-56 76 3 6 -6 21 -19 34 -13 13 -24 28 -24 35 0 6 5 4 10 -4 5 -8 10 -13 11
-10 0 3 3 18 5 33 4 26 49 116 63 127 4 3 30 38 60 78 52 70 72 91 52 53 -9
-16 -8 -18 9 -14 11 3 20 11 20 18 0 8 8 16 18 18 9 3 18 5 20 6 2 0 0 -3 -3
-9z m2245 -25 c-7 -8 -10 -22 -6 -30 3 -9 2 -14 -3 -11 -5 3 -16 -12 -25 -33
-8 -22 -20 -42 -25 -45 -6 -4 -8 -13 -4 -21 3 -10 -1 -15 -12 -15 -9 0 -13 -4
-10 -10 3 -5 2 -10 -4 -10 -6 0 -15 -10 -22 -21 -9 -17 -8 -20 3 -14 7 5 -20
-24 -60 -64 -41 -40 -78 -68 -84 -65 -7 5 -9 1 -5 -9 4 -12 2 -14 -10 -10 -11
4 -14 2 -9 -5 5 -8 1 -10 -10 -5 -13 5 -15 3 -9 -8 4 -8 5 -11 0 -7 -4 4 -16
-3 -27 -15 -11 -12 -16 -15 -12 -7 6 12 4 12 -12 -1 -10 -9 -29 -20 -41 -23
-11 -4 -24 -13 -27 -21 -3 -8 -11 -15 -18 -15 -9 0 -8 3 2 10 8 5 11 10 7 10
-5 0 -24 -12 -42 -26 -19 -14 -39 -23 -45 -19 -6 4 -22 0 -35 -9 -27 -18 -39
-21 -31 -7 3 4 -15 4 -39 -2 -24 -6 -42 -13 -40 -17 7 -11 -62 -20 -150 -19
-78 1 -163 14 -120 19 11 1 -15 10 -58 20 -42 10 -83 22 -90 28 -6 5 -36 18
-65 27 -29 10 -68 27 -85 39 -18 11 -44 27 -59 35 -34 17 -165 137 -158 144 3
3 35 -23 72 -58 44 -40 97 -77 150 -103 100 -50 258 -102 301 -101 31 1 31 1
7 9 -18 6 -11 8 25 5 218 -18 246 -17 345 14 52 17 121 46 154 66 32 19 62 35
66 35 4 0 46 37 94 81 94 88 158 171 202 262 16 32 30 53 32 47 2 -6 -2 -17
-8 -25z m-1593 -49 c7 -16 12 -30 11 -31 -2 -1 -24 -9 -49 -18 -25 -10 -54
-24 -65 -32 -17 -13 -17 -14 -2 -15 9 0 20 5 23 10 7 12 71 40 90 40 7 0 33
-28 58 -62 94 -131 224 -244 333 -288 49 -20 54 -25 40 -36 -15 -11 -15 -12 1
-19 17 -7 17 -8 -2 -15 -16 -7 -17 -9 -3 -9 13 -1 16 -8 12 -28 -7 -43 -36
-113 -45 -113 -5 0 -9 -9 -9 -21 0 -11 -4 -17 -10 -14 -6 3 -7 -1 -4 -9 3 -9
2 -16 -3 -16 -4 0 -14 -10 -21 -22 -16 -27 65 55 91 92 l17 25 -12 -30 c-16
-40 -69 -115 -81 -115 -6 0 -7 -3 -3 -7 4 -5 30 17 58 47 40 44 46 49 31 21
-25 -47 -98 -109 -163 -139 -30 -13 -62 -28 -71 -33 -9 -4 -26 -5 -38 -2 -11
3 -21 1 -20 -3 1 -15 57 -55 63 -45 4 5 2 12 -4 16 -5 3 -10 11 -10 16 0 17
83 1 110 -21 43 -35 87 -51 130 -45 41 5 49 -2 28 -24 -11 -11 -10 -13 2 -9 8
3 16 14 18 26 2 12 5 22 7 22 2 0 25 -20 51 -45 49 -48 144 -115 162 -115 7 0
21 -18 32 -40 11 -22 19 -40 16 -40 -2 0 2 -21 10 -47 8 -25 14 -49 14 -52 0
-3 -18 -26 -41 -51 -23 -25 -59 -71 -82 -103 -28 -40 -43 -55 -51 -47 -7 7 -7
16 2 30 15 25 16 38 0 22 -16 -16 -29 -15 -22 2 3 7 -3 21 -12 31 -16 16 -18
16 -27 0 -6 -11 -5 -21 3 -28 10 -9 12 -8 7 6 -4 9 -2 17 3 17 6 0 10 -10 10
-23 0 -13 6 -32 14 -42 8 -11 11 -25 9 -32 -3 -8 -18 6 -38 37 -17 27 -36 46
-40 42 -5 -4 -5 -2 -2 5 10 16 -101 114 -171 151 -79 42 -193 72 -277 72 -56
1 -66 3 -51 12 12 6 49 9 100 5 45 -3 68 -2 52 1 -32 8 -36 20 -72 199 l-18
92 -50 12 c-57 14 -132 45 -141 59 -3 5 20 -3 52 -18 48 -22 75 -27 155 -30
53 -2 104 1 114 6 12 7 -5 8 -54 4 -50 -3 -72 -1 -72 7 0 6 -12 11 -27 11 -16
0 -35 5 -43 10 -10 7 6 9 55 6 69 -5 70 -5 15 4 -186 30 -302 137 -328 304
-11 68 7 177 33 206 12 14 13 20 4 26 -8 4 -10 3 -5 -4 4 -7 5 -12 2 -12 -2 0
-13 -3 -23 -6 -15 -6 -16 -4 -5 7 6 7 12 21 12 31 0 10 23 42 50 70 28 29 46
54 40 56 -5 2 -8 8 -4 13 6 11 110 59 126 59 7 0 5 5 -4 13 -9 6 -18 30 -22
52 -5 36 -4 37 6 15 6 -14 17 -38 25 -54z m-932 -33 c-3 -21 -9 -49 -11 -63
-5 -20 -3 -22 5 -10 14 19 14 11 0 -28 -6 -18 -15 -30 -19 -27 -4 3 -11 -2
-14 -11 -9 -23 -7 -31 4 -14 5 8 12 11 16 7 8 -8 -15 -39 -26 -32 -4 2 -12 -8
-19 -23 -11 -25 -10 -26 4 -8 16 21 19 18 9 -8 -3 -9 -12 -16 -20 -16 -8 0
-14 -8 -14 -19 0 -10 -10 -26 -22 -35 -13 -9 -17 -14 -10 -10 11 5 12 2 3 -15
-7 -11 -14 -21 -17 -21 -3 0 -2 6 1 13 4 6 -7 -4 -24 -23 -17 -19 -29 -40 -27
-46 5 -12 -53 -74 -69 -74 -5 0 6 13 25 30 18 16 31 32 29 34 -3 3 -20 -10
-39 -28 -19 -18 -65 -51 -101 -74 -129 -82 -240 -118 -369 -119 -64 -1 -64 -1
19 8 119 13 210 44 299 101 42 27 82 55 87 62 6 6 23 19 38 29 15 10 25 23 21
29 -4 6 -3 8 3 5 21 -13 141 142 128 164 -4 5 -1 8 5 7 12 -3 72 136 90 210
13 52 25 56 15 5z m4905 -71 c0 -3 -7 3 -16 14 -15 18 -15 18 -9 -9 4 -19 2
-26 -5 -22 -5 3 -22 -2 -38 -13 -15 -11 -34 -22 -42 -25 -11 -4 -9 -6 5 -6 11
-1 26 -10 33 -21 7 -11 16 -20 20 -20 16 1 72 59 62 65 -5 3 -10 12 -10 18 0
7 7 3 16 -8 8 -11 24 -30 34 -42 24 -27 15 -30 -14 -5 -12 10 -9 3 8 -21 16
-20 40 -46 55 -56 33 -25 21 -38 -19 -21 -28 12 -34 11 -53 -8 -12 -12 -16
-22 -9 -22 7 0 12 5 12 11 0 15 63 6 68 -10 3 -8 0 -11 -6 -7 -13 8 -42 -32
-42 -58 0 -18 1 -19 20 -1 11 10 20 13 20 7 0 -25 18 -10 25 21 4 17 9 27 12
20 5 -14 -26 -83 -38 -83 -5 0 -6 8 -2 18 3 9 -3 6 -12 -8 -10 -14 -20 -27
-21 -29 -8 -10 -32 23 -38 51 -3 17 -9 29 -11 26 -8 -8 23 -92 35 -96 5 -2 10
-10 10 -17 0 -17 -127 24 -141 46 -6 10 -9 10 -9 2 0 -18 -46 -16 -64 3 -36
36 2 236 51 267 7 4 13 16 13 25 0 15 2 15 10 2 8 -12 10 -10 10 9 0 16 4 21
15 17 8 -3 14 -2 14 2 -1 4 -1 16 0 27 1 17 3 18 11 5 8 -12 10 -12 10 5 1 14
5 10 15 -14 8 -18 15 -36 15 -39z m-1375 -4 c26 -18 59 -41 73 -50 15 -10 21
-18 14 -18 -7 0 -40 18 -72 40 -33 21 -60 35 -60 31 0 -4 -22 -34 -50 -65 -27
-31 -50 -61 -50 -67 0 -20 36 -2 42 21 4 19 29 45 42 45 6 0 10 8 8 17 -1 9 1
19 6 22 12 7 8 -25 -7 -52 -7 -13 -17 -20 -24 -16 -7 4 -9 3 -4 -1 4 -5 -2
-19 -14 -31 -13 -14 -17 -24 -10 -29 6 -3 11 -16 11 -28 1 -31 44 -77 74 -77
13 0 27 -6 30 -12 5 -10 7 -10 12 0 8 18 54 15 54 -3 0 -9 7 -18 15 -21 19 -8
45 13 45 36 0 10 7 20 15 24 19 7 19 5 0 -30 -17 -32 -21 -129 -5 -119 5 3 7
0 4 -9 -3 -8 2 -28 10 -45 9 -17 16 -33 16 -36 0 -2 12 -16 26 -30 14 -15 23
-29 20 -32 -12 -12 -77 62 -87 99 -8 31 -14 38 -34 38 -14 0 -25 -4 -25 -10 0
-5 7 -7 15 -4 8 4 15 2 15 -4 0 -11 -29 -21 -47 -15 -7 2 -9 11 -6 19 4 10 0
12 -13 7 -12 -5 -15 -3 -9 6 5 10 2 11 -12 7 -14 -5 -28 4 -53 34 -18 21 -37
37 -42 34 -5 -3 -3 -11 4 -17 7 -7 27 -27 43 -45 l30 -33 -30 5 c-16 2 -40 5
-53 5 -13 1 -20 6 -17 11 3 6 -1 10 -9 10 -9 0 -16 -5 -16 -11 0 -20 -30 12
-46 49 -8 19 -14 56 -14 82 0 31 -5 52 -16 60 -19 16 -41 56 -26 46 13 -8 28
57 17 73 -3 6 -2 11 3 11 6 0 12 -7 16 -15 3 -8 12 -15 20 -15 16 0 116 111
116 129 0 16 4 14 55 -21z m367 -168 c6 0 8 -13 6 -29 -2 -17 -1 -28 4 -25 4
3 8 0 8 -5 0 -6 -4 -11 -10 -11 -14 0 -13 -47 2 -52 8 -3 8 -9 0 -24 -8 -15
-7 -23 6 -37 11 -13 12 -17 3 -15 -7 2 -18 -5 -24 -15 -10 -14 -9 -20 3 -27
10 -6 11 -10 3 -10 -7 0 -13 -4 -13 -10 0 -5 8 -10 19 -10 15 0 20 10 25 50 4
28 4 55 1 60 -3 6 -1 10 4 10 6 0 11 -13 11 -29 0 -25 3 -28 22 -23 14 3 19 2
14 -6 -4 -7 -1 -12 8 -12 9 0 16 5 16 10 0 6 4 10 10 10 11 0 -16 -63 -43 -99
-44 -60 -151 -86 -183 -44 -40 52 -73 213 -44 213 6 0 10 5 10 11 0 5 -6 7
-12 4 -7 -4 -5 0 5 8 10 9 18 18 18 21 -1 3 2 5 7 4 4 -2 6 -6 5 -10 -2 -5 2
-8 7 -8 6 0 4 -12 -4 -29 -14 -25 -21 -74 -17 -108 2 -22 27 -14 39 11 14 32
2 43 -16 14 -9 -15 -11 -17 -8 -5 3 10 6 24 6 31 0 8 10 11 30 8 28 -4 30 -7
30 -44 0 -31 -3 -39 -15 -35 -8 4 -17 2 -20 -3 -4 -6 3 -10 13 -10 11 0 22 -7
26 -15 3 -8 11 -15 18 -14 10 0 10 2 1 6 -14 5 -19 93 -5 93 13 0 14 130 1
146 -6 8 -9 18 -5 21 4 4 12 1 17 -7 8 -12 9 -11 7 5 -2 11 -9 21 -16 21 -22
2 -23 4 -17 15 4 6 14 8 22 5 8 -3 19 -6 25 -6z m-1037 -29 c17 1 16 2 -5 9
-38 12 0 11 45 -1 22 -6 43 -16 47 -23 5 -8 10 -8 19 1 12 12 59 -2 59 -19 0
-5 10 -4 21 3 15 8 19 8 15 0 -4 -6 -2 -11 4 -11 6 0 8 -5 4 -12 -4 -6 -3 -8
2 -5 10 6 94 -28 94 -38 0 -3 -5 -3 -12 1 -7 4 -8 3 -4 -5 4 -6 11 -9 16 -6
11 7 41 -5 35 -15 -3 -4 3 -7 13 -6 9 0 16 -4 15 -9 -1 -6 7 -11 17 -11 10 0
16 4 13 9 -3 5 1 13 8 18 11 7 9 9 -5 9 -16 0 -17 3 -8 12 20 20 50 -19 67
-86 9 -33 23 -66 33 -73 10 -9 11 -12 2 -7 -13 7 -13 5 -1 -9 7 -9 17 -15 21
-12 4 3 7 -3 6 -12 0 -10 9 -19 22 -22 13 -4 30 -17 37 -31 14 -24 14 -24 15
-3 0 12 4 24 9 27 30 19 227 -50 273 -96 10 -10 22 -18 27 -18 20 0 96 -86 95
-107 -1 -12 3 -27 8 -35 8 -10 9 -9 4 4 -3 10 -1 20 4 23 9 6 14 -8 11 -28 -1
-5 3 -6 9 -2 13 8 -12 58 -51 103 -28 31 -40 70 -19 57 6 -4 7 -11 4 -17 -4
-6 1 -8 14 -4 11 4 23 2 27 -4 9 -14 58 -34 123 -49 28 -7 52 -17 52 -21 0 -8
-40 -1 -87 14 -29 9 -29 9 7 -61 17 -31 30 -52 30 -45 0 6 4 12 9 12 6 0 5
-13 -1 -32 l-11 -32 -10 24 c-38 96 -72 152 -101 166 l-31 16 27 -24 c27 -24
65 -87 88 -148 8 -21 14 -87 15 -165 2 -131 32 -286 58 -302 7 -4 8 0 2 13
-51 120 -60 312 -20 449 24 81 54 153 54 130 1 -5 -11 -46 -25 -90 -36 -110
-44 -287 -19 -383 23 -84 56 -160 95 -218 16 -25 30 -48 30 -51 0 -14 -34 26
-67 79 -20 32 -38 56 -40 54 -3 -2 0 -14 7 -25 10 -19 8 -21 -22 -20 -25 1
-27 3 -10 6 13 3 21 10 18 16 -2 7 -16 39 -30 72 -14 33 -26 52 -26 42 0 -10
-4 -16 -10 -12 -6 4 -5 15 2 30 8 17 8 36 -1 69 -6 25 -11 75 -11 111 0 75
-18 158 -32 149 -5 -3 -4 -12 3 -21 21 -25 23 -179 4 -253 -17 -67 -33 -105
-41 -97 -3 2 5 28 16 57 12 29 19 63 17 74 -2 15 -7 8 -16 -24 -16 -58 -43
-120 -52 -120 -4 0 -9 -10 -13 -22 -12 -48 -110 -129 -136 -113 -6 3 -7 -1 -4
-9 6 -16 -5 -21 -35 -17 -7 2 -10 -2 -6 -8 3 -6 0 -17 -7 -25 -11 -11 -15 -11
-26 3 -13 15 -13 15 -8 -1 7 -22 -16 -28 -34 -8 -17 18 -22 47 -13 70 3 8 6
27 7 42 1 23 -3 27 -19 23 -11 -3 -14 -2 -7 1 6 3 12 14 12 25 0 10 7 19 15
19 8 0 15 4 15 10 0 5 -6 7 -13 5 -9 -4 -12 23 -12 115 0 88 -4 123 -13 129
-7 4 -16 39 -20 82 -7 73 -7 72 -13 -61 -3 -74 -11 -146 -18 -160 -11 -23 -11
-22 -5 10 17 89 1 305 -30 403 -22 70 -82 184 -124 237 -143 179 -332 279
-582 306 l-75 9 60 5 c33 3 64 2 70 -2 5 -5 18 -8 30 -7z m120 -63 c180 -62
319 -176 394 -323 45 -88 50 -105 23 -78 -19 20 -72 99 -72 109 0 18 -194 184
-215 184 -5 0 1 -10 15 -21 17 -15 19 -19 7 -15 -11 3 -16 2 -12 -4 9 -14 -9
-12 -23 2 -6 6 -14 10 -16 7 -2 -2 18 -19 45 -37 27 -18 49 -29 48 -25 -1 5
-1 14 0 22 1 16 16 5 16 -12 0 -7 8 -11 18 -9 11 2 15 -2 11 -12 -3 -8 0 -17
5 -21 6 -3 8 -11 5 -17 -5 -7 -2 -8 6 -3 10 6 12 4 6 -11 -6 -15 -5 -16 5 -7
10 10 9 16 -1 28 -7 8 -10 18 -8 21 3 3 22 -14 42 -37 36 -43 47 -67 24 -52
-19 11 -38 12 -38 2 0 -5 7 -9 15 -9 8 0 14 -3 13 -7 -2 -11 35 -73 45 -73 4
0 7 -6 7 -14 0 -7 11 -38 24 -67 43 -98 60 -277 34 -364 -6 -22 -11 -44 -10
-48 1 -4 -15 -5 -35 -1 -46 8 -104 61 -82 75 10 6 8 9 -10 9 -13 0 -40 14 -61
30 -53 42 -154 88 -225 101 -71 14 -71 14 -56 32 8 11 6 18 -10 33 -21 19 -21
19 -45 -11 -13 -17 -24 -33 -24 -37 0 -5 -5 -8 -10 -8 -6 0 -1 18 10 40 24 48
24 50 3 50 -14 1 -10 8 15 29 l32 28 -20 18 c-12 11 -32 21 -46 22 -22 3 -24
0 -24 -38 0 -54 -37 -117 -91 -158 l-42 -30 47 -12 c25 -6 46 -15 46 -18 0 -4
16 -15 35 -24 22 -10 34 -12 32 -5 -3 17 106 10 177 -13 179 -55 315 -232 337
-436 8 -77 8 -76 4 22 -2 55 -7 114 -10 130 l-5 30 11 -28 c6 -15 14 -25 18
-22 5 2 6 -7 3 -22 -3 -17 -1 -24 6 -19 6 4 12 -5 15 -21 3 -16 3 -8 1 17 -2
25 -6 56 -9 70 -5 19 -4 21 4 9 13 -20 31 -130 31 -189 0 -25 -7 -70 -16 -100
-8 -30 -16 -62 -18 -70 -1 -8 -7 -25 -14 -36 -6 -12 -8 -25 -4 -29 4 -5 1 -5
-5 -1 -8 4 -13 1 -13 -8 0 -21 -103 -142 -108 -127 -2 7 7 25 20 39 46 52 61
76 23 38 -22 -22 -41 -34 -43 -27 -2 6 2 19 10 28 7 9 8 14 2 10 -8 -4 -12 8
-12 39 -1 43 -20 136 -45 219 -21 73 -115 233 -171 293 -23 25 -27 35 -18 44
7 7 12 19 12 28 -1 10 -5 7 -14 -9 -12 -21 -14 -22 -27 -7 -22 26 -159 129
-206 154 -74 40 -250 101 -315 109 -58 7 -63 10 -66 34 -3 25 0 27 49 33 61 8
104 28 119 55 5 11 9 44 9 73 l-1 53 -9 -48 c-5 -26 -18 -56 -29 -67 -19 -19
-82 -39 -122 -40 -27 0 -21 29 7 36 14 3 25 10 25 16 0 5 -4 7 -8 4 -10 -6 -9
25 1 41 5 7 3 22 -3 33 -8 14 -8 20 0 20 6 0 10 10 9 23 -2 12 -1 27 3 32 4 6
-8 10 -28 10 -33 0 -34 -1 -34 -42 0 -31 -4 -43 -15 -43 -16 0 -29 39 -22 67
3 10 5 3 6 -16 1 -41 14 -34 17 9 2 28 0 30 -34 29 -21 0 -31 -3 -24 -6 16 -6
15 -60 -2 -66 -7 -3 -13 0 -13 6 1 43 -4 57 -22 57 -15 0 -20 -9 -23 -47 -3
-27 -1 -55 3 -62 4 -8 3 -25 -2 -38 -7 -20 -5 -23 16 -23 16 0 25 -6 25 -16 0
-14 -8 -16 -45 -12 -28 4 -42 2 -39 -4 4 -6 -4 -5 -16 2 -12 7 -20 7 -16 2 3
-6 0 -13 -6 -15 -7 -3 2 -8 20 -12 25 -6 32 -13 32 -31 0 -12 5 -26 11 -30 9
-5 10 1 5 20 -5 20 -3 26 10 26 9 0 19 -10 22 -22 6 -23 6 -23 13 2 6 23 7 23
8 -7 1 -28 -2 -32 -21 -30 -11 2 -55 -4 -97 -14 -42 -10 -82 -18 -88 -19 -16
0 -10 59 14 144 13 46 18 55 24 40 5 -12 8 0 9 36 l2 55 13 -50 13 -50 0 40
c0 22 5 54 11 70 24 62 36 85 43 85 5 0 8 6 8 13 0 15 47 42 67 38 6 -1 14 3
18 9 13 22 165 -23 165 -49 0 -5 7 -12 16 -15 28 -11 -24 51 -55 65 -21 9 -27
18 -24 33 3 13 1 17 -4 10 -5 -8 -22 -9 -46 -5 l-38 6 33 19 c18 10 52 32 76
47 47 32 191 79 240 79 19 0 32 5 32 13 0 8 4 7 10 -3 9 -13 10 -13 10 0 0 13
1 13 10 0 8 -12 10 -12 10 -1 0 11 15 13 78 8 46 -3 69 -2 57 3 l-20 9 20 0
c11 0 29 -4 40 -9 19 -8 19 -9 1 -9 -11 -1 -17 -3 -14 -6 3 -3 20 -2 38 2 32
6 32 7 10 15 -32 12 -197 38 -250 39 l-45 1 45 10 c41 8 69 7 185 -7 l40 -5
-45 15 -45 15 45 -6 c25 -2 72 -14 105 -26z m1066 -30 c5 -10 8 -35 4 -54 -3
-23 0 -43 9 -56 13 -19 14 -19 19 -1 3 13 6 9 12 -14 8 -35 25 -42 45 -18 10
12 10 18 -1 31 -11 13 -11 15 2 14 39 -6 80 1 73 12 -4 6 -3 8 3 5 6 -4 33 0
61 8 44 13 112 18 112 7 0 -16 -39 -36 -69 -36 -20 1 -28 -1 -18 -3 9 -3 15
-8 12 -13 -3 -5 -12 -7 -20 -3 -8 3 -15 0 -15 -6 0 -17 -58 -71 -75 -71 -8 0
-15 -6 -15 -14 0 -7 -7 -19 -15 -26 -9 -7 -36 -40 -61 -73 -25 -34 -54 -61
-64 -62 -11 -1 -17 2 -15 6 3 4 -14 10 -38 13 -23 4 -62 18 -85 31 -24 14 -49
22 -55 18 -5 -3 -7 -1 -3 5 3 6 2 13 -4 17 -19 12 -10 25 18 25 15 0 40 7 55
15 15 8 33 13 40 11 7 -1 9 -1 5 1 -13 7 -9 23 5 23 7 0 25 27 40 59 29 64 33
81 17 81 -7 0 -7 6 0 19 8 16 5 26 -15 49 l-24 29 25 -5 c13 -2 29 -13 35 -24z
m-4054 -60 c1 -10 -2 -18 -8 -18 -5 0 -9 -13 -9 -30 0 -16 4 -30 9 -30 4 0 6
11 3 25 -2 14 0 25 6 25 5 0 13 10 17 23 6 19 8 19 12 5 5 -20 23 -25 23 -7 0
8 5 7 15 -1 13 -11 13 -15 3 -22 -9 -6 -7 -8 6 -6 13 2 27 -8 40 -29 12 -18
26 -32 33 -33 6 0 15 -5 19 -12 5 -8 2 -9 -9 -5 -15 6 -15 2 3 -32 16 -33 19
-56 17 -138 -2 -86 -6 -105 -32 -156 -36 -70 -115 -156 -169 -181 -57 -27 -96
-37 -96 -24 0 7 -4 7 -13 -1 -8 -6 -17 -7 -21 -3 -4 4 -11 7 -15 7 -15 0 -37
30 -38 53 -1 12 2 20 7 17 5 -3 11 -1 14 4 4 5 1 13 -5 17 -8 5 -9 3 -4 -6 6
-9 4 -11 -5 -5 -10 6 -8 12 10 27 12 10 20 21 17 25 -4 3 -13 0 -22 -7 -10 -8
-15 -9 -15 -1 0 6 5 11 10 11 6 0 10 7 10 16 0 11 -6 15 -18 12 -15 -4 -18 1
-16 33 1 22 -2 39 -8 39 -5 0 -2 7 6 16 9 8 20 12 26 9 19 -12 10 6 -15 29
-29 27 -31 36 -10 36 8 0 24 18 35 39 20 40 63 81 85 81 18 0 7 37 -13 45 -11
4 -21 0 -27 -11 -18 -32 -54 -64 -71 -64 -13 0 -14 3 -4 15 6 8 10 18 8 22 -3
4 1 26 8 48 7 22 13 33 13 25 1 -8 11 3 22 25 22 42 38 57 50 49 4 -2 11 1 15
7 5 8 3 9 -7 4 -8 -4 -4 2 8 14 12 11 29 21 37 21 8 0 17 4 20 8 9 15 42 8 43
-10z m4793 -93 c55 -7 133 -37 208 -79 28 -16 125 -109 172 -165 19 -23 42
-49 50 -58 8 -9 15 -21 16 -28 5 -31 16 -55 25 -50 5 4 9 1 9 -6 0 -7 3 -10 6
-6 10 10 -7 48 -18 41 -8 -5 -9 -1 -5 10 7 17 -43 129 -63 141 -5 3 -10 13
-10 22 0 13 3 13 15 3 8 -7 15 -9 15 -4 1 5 12 -4 25 -21 35 -43 31 -16 -5 33
-30 42 -43 74 -15 37 63 -84 85 -117 85 -125 0 -6 6 -9 13 -8 7 2 13 -8 14
-22 1 -14 11 -50 23 -80 12 -30 26 -72 32 -92 6 -21 14 -35 19 -32 5 3 9 3 9
0 0 -2 3 -12 7 -22 5 -13 3 -15 -8 -9 -12 8 -12 6 0 -8 9 -11 21 -15 35 -12
12 4 16 3 10 -2 -6 -4 -14 -17 -17 -27 -6 -16 -5 -17 8 -6 10 8 15 9 15 1 0
-6 -4 -11 -10 -11 -5 0 -10 -7 -10 -15 0 -8 5 -15 10 -15 6 0 10 5 10 12 0 6
2 9 5 6 10 -10 -8 -39 -21 -34 -8 3 -14 1 -14 -4 0 -6 7 -10 15 -10 8 0 15 -4
15 -10 0 -20 -29 -10 -36 13 -4 12 -12 25 -18 29 -7 5 -4 8 8 8 12 0 16 5 12
16 -3 9 -6 22 -6 30 0 8 -5 14 -11 14 -6 0 -9 -6 -6 -13 3 -8 2 -19 -2 -26 -4
-7 -8 4 -9 25 -2 62 -12 51 -12 -14 0 -48 4 -63 18 -71 9 -6 11 -11 5 -11 -7
0 -13 -10 -13 -22 0 -13 -6 -35 -14 -50 -8 -15 -12 -36 -9 -46 2 -11 -6 -31
-21 -49 -17 -20 -24 -37 -19 -49 4 -11 3 -15 -4 -11 -10 6 -28 -19 -25 -35 1
-3 -5 -11 -13 -18 -7 -6 -11 -19 -8 -28 4 -15 3 -15 -6 -2 -9 13 -11 13 -11
-2 0 -9 -3 -18 -7 -20 -5 -1 -26 -23 -47 -48 -61 -70 -237 -192 -253 -176 -3
3 6 10 21 16 68 25 263 200 250 222 -4 6 -3 8 3 5 12 -7 46 49 38 63 -3 6 -12
10 -20 10 -10 0 -8 14 12 58 38 86 43 102 34 102 -5 0 -12 -11 -15 -25 -4 -14
-10 -24 -15 -21 -4 3 -13 -6 -20 -20 -8 -18 -8 -23 0 -18 16 9 2 -31 -27 -82
-26 -45 -134 -162 -174 -188 -48 -32 -43 -15 10 32 30 26 67 60 83 76 41 41
99 134 91 147 -3 6 -15 -8 -26 -31 -33 -67 -167 -194 -245 -233 -81 -41 -189
-67 -275 -67 -61 0 -182 26 -223 47 -11 6 -33 17 -50 24 -51 22 -57 29 -43 48
12 14 11 14 -4 3 -15 -12 -22 -9 -59 25 -46 42 -103 101 -124 129 -8 11 -15
14 -15 7 0 -6 5 -15 10 -18 12 -7 13 -25 2 -25 -5 0 -19 23 -32 51 -13 28 -28
53 -33 56 -13 8 49 -108 73 -137 19 -22 20 -22 11 -3 -15 30 -14 38 4 23 8 -7
14 -23 13 -36 -2 -22 -3 -22 -22 -6 -33 29 -82 114 -111 192 -26 68 -28 87
-29 210 0 180 23 255 122 393 56 79 121 135 177 154 17 6 39 14 50 18 11 4
-14 -15 -55 -43 -85 -56 -137 -110 -192 -199 -39 -65 -45 -79 -28 -68 6 3 10
0 10 -7 0 -7 16 14 34 47 36 63 125 165 144 165 5 0 12 4 14 8 6 15 100 62
111 55 6 -3 7 -1 3 5 -6 11 19 18 47 13 4 0 7 3 7 7 0 5 6 9 13 10 6 1 53 9
102 16 50 8 101 12 115 11 14 -2 45 -7 70 -10z m-4151 -82 c-2 -16 -6 -32 -10
-38 -3 -5 -12 -28 -19 -50 -15 -48 -84 -170 -116 -205 -75 -83 -103 -110 -113
-110 -6 0 -11 -5 -11 -11 0 -5 -4 -8 -9 -5 -5 3 -11 0 -14 -7 -9 -23 -225
-118 -265 -116 -9 0 6 8 33 18 144 52 262 132 355 244 80 95 80 95 80 104 0 5
11 25 24 44 14 20 33 64 43 98 20 66 26 76 22 34z m1400 -70 c-66 -136 -93
-223 -87 -278 2 -19 0 -31 -4 -29 -4 3 -8 -4 -8 -15 0 -19 -1 -19 -72 3 -93
29 -149 57 -141 69 3 6 1 7 -6 3 -14 -9 -43 12 -36 24 3 5 0 12 -6 16 -8 4 -9
3 -5 -4 4 -7 2 -12 -3 -12 -6 0 -11 5 -11 10 0 6 -8 18 -19 29 -28 28 -71 94
-71 109 0 7 7 20 15 29 9 8 14 18 11 21 -10 9 -35 -19 -41 -48 -6 -29 -35 -63
-35 -41 0 6 5 11 11 11 8 0 10 18 7 55 -4 41 -1 55 9 55 7 0 13 -4 13 -10 0
-5 11 -10 25 -10 17 0 25 6 26 18 0 13 2 14 6 2 12 -31 37 -50 68 -50 32 0 54
23 35 35 -6 4 -10 9 -10 13 0 10 52 31 75 30 11 0 52 5 92 11 39 7 77 11 85
10 7 -2 23 2 35 9 12 6 31 13 42 15 11 2 24 6 27 10 21 21 11 -12 -27 -90z
m-1526 -83 c-42 -79 -48 -89 -73 -115 -13 -14 -21 -27 -19 -30 3 -2 20 14 37
37 18 23 32 37 32 31 0 -13 -88 -105 -143 -150 -46 -38 -173 -103 -208 -107
-14 -1 -31 -6 -38 -10 -7 -4 -14 -6 -17 -3 -5 5 79 57 91 57 4 0 27 14 52 30
24 17 47 30 51 30 10 1 52 37 52 45 0 4 -6 5 -14 2 -15 -6 -16 17 -1 30 4 4 5
2 1 -4 -4 -7 -3 -13 1 -13 5 0 15 6 23 13 12 10 12 9 1 -5 -29 -38 9 -15 50
30 78 85 98 110 92 116 -4 3 -2 6 4 6 5 0 18 16 28 35 11 19 21 33 23 31 2 -2
-9 -28 -25 -56z m337 -16 c22 -9 40 -23 40 -31 0 -11 7 -13 30 -8 32 7 41 -10
18 -33 -9 -9 -9 -12 1 -12 7 0 15 9 18 20 7 25 43 27 43 3 0 -25 19 -191 26
-230 l6 -33 -73 0 c-41 0 -81 4 -89 10 -17 10 -17 10 35 35 49 24 55 32 54 70
-1 28 -1 28 -8 6 -10 -36 -101 -92 -101 -62 0 6 5 11 10 11 6 0 10 12 10 28 0
21 2 24 10 12 6 -10 10 -11 10 -3 0 7 -9 18 -20 25 -11 7 -20 23 -20 36 0 16
-5 22 -17 20 -21 -4 -35 -30 -20 -39 5 -4 6 -12 2 -19 -5 -8 -12 -2 -21 16
-12 22 -12 29 -2 36 9 6 7 8 -7 5 -20 -3 -22 -9 -10 -39 14 -35 -15 -18 -29
17 -10 22 -22 35 -33 35 -16 -1 -15 -3 4 -19 20 -17 21 -20 6 -25 -9 -4 -21
-2 -26 3 -29 29 40 91 102 91 20 0 47 -7 59 -16 13 -9 25 -14 28 -11 9 9 -82
47 -114 47 -34 0 -102 -51 -102 -76 0 -7 -9 -18 -20 -24 -26 -14 -25 -43 1
-79 20 -27 22 -28 40 -13 23 20 24 30 2 54 -16 18 -16 18 3 12 27 -10 44 -25
43 -38 -3 -25 14 -55 34 -61 22 -6 22 -6 2 -14 -11 -5 -25 -6 -31 -4 -6 2 -17
-3 -24 -12 -11 -13 -7 -15 34 -15 34 0 46 -4 46 -15 0 -16 -26 -21 -32 -6 -1
5 -10 2 -18 -7 -13 -14 -12 -15 3 -9 28 11 19 -1 -13 -18 -17 -9 -29 -19 -26
-23 9 -15 -42 -5 -59 12 -14 14 -20 14 -34 4 -9 -7 -18 -14 -21 -16 -3 -2 8
-2 25 0 21 2 30 -2 33 -13 4 -21 -14 -28 -55 -22 -24 4 -30 9 -25 22 5 14 3
14 -11 3 -23 -19 -10 -45 19 -38 34 9 30 -4 -18 -56 -55 -57 -78 -86 -78 -96
0 -4 -9 -18 -19 -31 l-19 -25 -7 68 c-8 77 0 198 15 227 6 10 16 18 23 16 6
-1 13 9 15 23 2 14 7 27 12 30 4 3 15 20 24 38 9 18 24 36 31 39 8 3 12 9 9
14 -3 5 2 9 10 9 8 0 13 6 10 13 -2 7 9 20 25 30 19 11 28 23 24 32 -3 9 1 15
11 15 11 0 16 9 16 28 0 21 2 24 10 12 9 -13 10 -13 10 0 1 8 12 24 26 35 14
11 31 25 37 32 16 17 49 16 97 -3z m1690 -258 c90 -20 116 -29 190 -65 105
-51 122 -63 225 -166 44 -44 97 -105 116 -135 39 -60 119 -248 118 -277 0 -10
-9 5 -20 32 -61 151 -118 247 -203 342 -47 52 -176 153 -196 153 -5 0 -10 4
-10 8 0 5 -26 18 -57 31 -32 12 -65 26 -73 31 -9 4 -42 13 -73 20 -31 7 -57
17 -57 21 0 4 -8 10 -17 12 -42 11 -3 6 57 -7z m48 -72 c244 -63 460 -279 547
-549 27 -83 30 -102 30 -240 l0 -151 -54 -104 c-71 -139 -102 -192 -109 -186
-3 3 0 11 5 18 43 54 97 188 120 298 3 14 11 31 17 39 6 8 7 12 1 9 -6 -4 -10
39 -11 120 -1 94 -5 137 -17 166 -10 21 -17 44 -17 51 0 19 -40 109 -45 103
-3 -3 3 -25 14 -49 10 -24 22 -64 25 -89 l6 -45 -19 53 c-10 29 -22 56 -26 60
-5 4 -5 -2 -1 -13 22 -59 38 -139 43 -211 6 -88 -4 -217 -16 -209 -5 2 -6 -8
-4 -23 4 -22 2 -24 -7 -12 -8 12 -9 9 -4 -14 5 -20 4 -27 -4 -22 -8 5 -10 2
-6 -8 4 -10 1 -16 -7 -16 -7 0 -10 -3 -7 -6 9 -9 -31 -94 -70 -149 -109 -151
-238 -249 -407 -307 -50 -18 -87 -21 -229 -23 -94 -1 -162 1 -153 4 12 4 2 10
-29 17 -43 10 -45 10 -28 -4 19 -14 19 -15 -1 -7 -11 4 -36 14 -55 21 -19 7
-34 17 -33 23 2 6 -5 7 -14 4 -11 -4 -14 -3 -9 5 4 8 2 10 -8 6 -18 -7 -127
62 -124 78 2 7 -4 12 -13 11 -8 -2 -30 13 -49 32 -40 41 -29 47 14 8 17 -15 9
-4 -18 24 -28 29 -52 50 -54 48 -7 -7 -32 15 -32 27 0 6 8 4 18 -3 15 -13 16
-12 4 3 -8 10 -17 17 -20 16 -4 0 -10 1 -14 2 -5 1 -13 3 -20 4 -6 0 -13 7
-16 15 -3 8 0 11 6 7 17 -10 21 18 6 45 -8 14 -13 18 -14 9 0 -13 -1 -13 -10
0 -13 20 -13 33 0 25 6 -4 5 4 -1 19 -7 14 -17 23 -22 19 -6 -4 -8 0 -4 9 7
21 -17 101 -28 91 -4 -4 -5 -2 -1 5 4 7 2 46 -5 87 -9 59 -9 95 1 168 24 184
90 319 215 443 94 93 190 151 317 191 73 24 99 27 213 26 119 0 177 -8 270
-38 13 -4 11 -1 -5 8 -14 8 -55 22 -92 32 -38 10 -68 22 -68 27 0 5 4 7 9 3 5
-3 12 -1 15 4 4 5 -4 12 -16 14 -13 2 -4 2 20 0 24 -2 69 -11 100 -19z m-1390
-76 c118 -42 213 -113 278 -208 50 -73 67 -111 55 -123 -8 -8 -14 -2 -21 19
-6 17 -17 31 -24 31 -11 0 -10 -11 6 -46 15 -37 17 -49 7 -67 -6 -12 -11 -35
-11 -51 0 -15 -6 -50 -14 -77 -8 -28 -14 -93 -14 -151 0 -93 -2 -106 -26 -141
-61 -92 -199 -192 -289 -208 -16 -3 -39 -7 -50 -10 -11 -3 -51 -7 -90 -10 -38
-2 -78 -7 -87 -11 -11 -4 -18 -3 -18 4 0 6 8 11 18 12 9 1 -1 7 -23 14 -31 10
-36 14 -22 20 9 4 16 17 16 29 -1 15 -3 16 -6 4 -6 -23 -33 -32 -34 -10 -1 19
-3 34 -14 73 -9 36 26 47 42 13 9 -19 8 -24 -3 -24 -8 0 -14 -4 -14 -10 0 -14
16 -12 29 4 7 8 9 25 5 40 -5 20 -12 26 -34 26 -20 0 -31 6 -35 21 -4 11 -4
23 -1 26 3 4 6 -1 6 -10 0 -9 4 -18 9 -21 5 -4 7 3 4 14 -3 11 -9 23 -14 26
-5 3 -9 21 -9 41 0 46 -20 114 -32 107 -5 -3 -4 -12 3 -20 6 -7 9 -21 5 -29
-3 -9 -2 -13 4 -10 6 4 10 -14 10 -45 0 -28 -4 -49 -9 -46 -4 3 -11 -14 -14
-39 -6 -42 -50 -139 -68 -150 -4 -3 6 24 22 60 26 54 32 81 34 148 1 45 0 62
-2 38 -2 -24 -11 -50 -19 -58 -8 -8 -14 -25 -14 -37 0 -27 -36 -112 -51 -122
-6 -3 -4 8 5 24 27 52 17 50 -13 -3 -35 -60 -75 -98 -144 -133 -46 -24 -64
-27 -147 -27 -72 0 -103 4 -128 18 -18 10 -30 21 -28 26 7 11 -38 8 -47 -4 -5
-6 -7 -4 -4 5 2 8 10 14 16 12 8 -1 7 4 -1 18 -7 11 -16 20 -19 20 -4 0 -9 9
-12 20 -4 14 0 20 11 20 10 0 22 11 29 25 11 26 7 30 -21 19 -13 -5 -14 -9 -5
-20 14 -17 -2 -19 -19 -2 -9 9 0 19 36 42 105 69 171 106 186 106 9 0 22 11
28 25 6 14 28 33 50 42 21 10 37 24 35 32 -3 23 -25 24 -32 2 -4 -13 -21 -25
-48 -33 -23 -6 -57 -27 -76 -45 -19 -18 -38 -33 -43 -33 -5 0 -32 -17 -61 -38
-50 -38 -110 -73 -95 -57 4 5 4 13 -1 19 -5 6 -5 20 0 31 7 19 8 19 8 1 1 -25
9 -16 20 21 6 22 5 30 -4 30 -7 0 -11 -7 -8 -16 2 -9 -5 2 -16 23 -20 38 -21
41 -4 84 16 44 16 44 -8 63 -21 16 -22 21 -12 38 7 11 10 26 7 34 -8 22 95
109 152 130 94 33 237 16 320 -38 13 -8 24 -12 24 -7 0 5 -16 17 -35 28 -19
10 -35 22 -35 26 0 14 11 9 71 -31 33 -22 59 -36 59 -32 0 4 -12 14 -28 23
-15 9 -36 26 -46 37 -18 20 -18 21 5 30 22 9 22 9 -8 8 -17 -1 -29 -5 -27 -9
3 -4 -2 -5 -10 -2 -9 3 -13 10 -10 15 3 5 -2 12 -10 15 -22 8 -20 22 11 85 31
61 32 63 90 124 59 62 123 101 135 83 8 -10 9 -9 5 3 -6 17 11 28 73 47 74 22
156 34 204 29 34 -4 43 -3 26 3 -14 4 -47 9 -75 9 -27 1 -61 4 -75 8 l-25 7
25 8 c49 15 182 2 258 -24z m-1078 -87 c0 -15 -34 -85 -58 -118 -30 -42 -105
-102 -95 -76 3 10 3 15 -2 11 -11 -11 -38 20 -31 37 3 8 1 17 -3 20 -17 10
-17 53 -1 75 16 21 17 21 34 4 15 -14 19 -15 27 -3 13 20 11 27 -8 32 -14 4
-12 5 5 6 14 1 22 -5 22 -15 0 -9 6 -14 13 -11 6 2 12 12 11 23 -1 16 7 19 43
21 23 1 43 -2 43 -6z m1505 -133 c-89 -144 -127 -289 -128 -488 -1 -143 19
-233 78 -359 111 -233 338 -416 588 -471 31 -7 54 -16 52 -21 -3 -4 -26 -1
-53 6 -26 8 -67 20 -92 27 -25 7 -53 11 -63 10 -10 -1 -16 2 -13 7 6 10 -24
25 -32 16 -3 -3 1 -5 8 -5 7 0 10 -3 7 -7 -4 -3 -18 4 -32 17 -14 13 -28 20
-31 17 -4 -4 -18 6 -31 21 -14 16 -21 20 -17 10 7 -20 -3 -23 -26 -8 -13 9
-13 11 0 21 12 8 10 9 -9 4 -16 -5 -21 -4 -16 4 9 16 -13 41 -36 41 -10 0 -24
8 -31 18 -7 10 -20 22 -27 27 -25 15 25 -49 73 -93 25 -23 46 -45 46 -47 0
-11 -29 -4 -34 8 -3 8 -5 7 -3 -3 1 -8 -28 -45 -63 -81 -77 -77 -130 -139
-120 -139 4 0 -5 -26 -20 -57 -15 -32 -33 -85 -40 -118 -17 -89 -20 -95 -41
-95 -17 0 -19 -7 -19 -65 0 -41 -4 -65 -11 -65 -7 0 -9 -11 -5 -30 6 -31 -6
-64 -65 -182 -16 -31 -26 -64 -23 -72 3 -9 2 -16 -4 -16 -15 0 -22 26 -10 38
13 13 0 35 -15 26 -7 -4 -8 -3 -4 2 5 5 12 8 15 7 10 -2 32 18 32 29 0 6 -6 6
-14 -1 -11 -9 -16 -9 -22 0 -4 7 -3 10 2 7 5 -2 22 8 39 24 16 15 24 28 18 28
-7 0 -15 -4 -18 -10 -9 -15 -27 -12 -20 3 4 6 -3 1 -14 -12 -14 -15 -21 -18
-21 -9 0 19 20 38 42 38 13 0 18 8 18 28 l0 27 -20 -25 -19 -25 11 38 c8 25
14 33 20 25 6 -10 8 -10 8 2 0 12 2 13 9 1 5 -7 6 -23 3 -35 -5 -21 -5 -21 15
-1 11 11 18 26 15 33 -4 11 -6 11 -14 0 -7 -9 -7 -5 -3 12 25 88 14 271 -23
359 -61 149 -237 297 -403 341 -47 12 -235 9 -294 -5 -30 -7 -30 -7 -7 10 12
9 27 13 32 10 6 -3 10 -2 10 3 0 5 20 13 45 16 39 6 45 10 45 31 0 23 53 193
71 228 7 13 6 17 -6 17 -27 0 -135 33 -135 41 0 5 10 4 23 -1 33 -14 171 -40
213 -40 53 0 37 -9 -19 -11 -25 -1 -50 -5 -55 -8 -15 -10 -34 -51 -23 -51 5 0
-1 -30 -14 -67 -12 -38 -26 -83 -30 -100 -6 -29 -4 -33 14 -33 14 0 22 8 27
28 13 59 37 133 50 149 13 17 13 17 14 0 0 -10 -5 -27 -10 -38 -6 -11 -7 -19
-1 -19 5 0 12 11 15 25 5 21 11 24 31 19 27 -7 32 4 13 25 -11 11 -10 13 5 8
9 -4 17 -2 17 3 0 6 6 10 14 10 8 0 16 5 18 10 2 6 20 11 41 12 20 1 37 5 37
9 0 5 6 6 14 3 8 -3 17 -1 20 5 4 6 13 8 21 4 10 -3 15 1 16 13 1 18 1 18 6 1
4 -14 11 -18 31 -14 18 3 30 -1 42 -16 12 -15 22 -18 36 -12 18 8 18 8 1 12
-28 7 -16 36 22 54 32 15 33 17 15 27 -21 12 -14 15 41 13 26 -1 28 1 10 9
-16 8 -13 9 15 5 25 -3 42 1 58 14 26 23 28 31 6 31 -12 0 -15 6 -11 22 7 27
-2 70 -13 63 -4 -3 -8 12 -8 33 0 20 -3 89 -7 152 -6 103 -4 126 18 220 34
139 60 207 108 280 46 69 63 81 24 18z m-1316 -11 c5 -13 11 -39 13 -58 1 -19
7 -37 12 -40 16 -12 -41 -39 -92 -43 l-52 -5 3 42 c1 23 9 50 17 59 33 36 40
48 33 49 -8 1 34 16 50 18 4 1 11 -10 16 -22z m1277 -716 c-6 -11 96 -182 143
-241 59 -74 194 -190 207 -177 3 3 -5 11 -18 18 -32 17 -158 129 -158 141 0 5
5 6 12 2 7 -4 8 -3 4 5 -4 6 -11 9 -15 7 -9 -6 -44 31 -54 57 -11 28 0 19 24
-19 13 -22 24 -31 29 -24 5 8 10 7 19 -4 7 -8 10 -20 6 -25 -8 -15 65 -83 82
-77 8 3 12 2 9 -3 -8 -12 30 -43 94 -80 58 -32 62 -42 7 -16 l-32 16 23 -20
c12 -11 44 -28 70 -37 26 -10 53 -24 61 -32 8 -8 24 -11 40 -7 21 4 23 3 11
-5 -12 -9 -9 -11 13 -7 15 2 27 1 27 -3 0 -4 16 -11 36 -15 20 -3 34 -8 32
-11 -10 -9 -172 28 -226 52 -30 13 -57 22 -60 20 -4 -5 49 -31 123 -59 24 -10
32 -16 20 -16 -34 -1 -217 93 -280 144 -150 121 -235 250 -277 420 -11 43 -12
63 -4 71 8 8 14 0 23 -29 7 -22 11 -43 9 -46z m1914 49 c10 -5 22 -24 25 -42
4 -18 18 -59 31 -90 13 -32 24 -60 24 -63 0 -13 -29 -3 -46 16 -10 11 -27 25
-37 31 -24 12 -77 0 -77 -18 0 -11 5 -11 25 -2 22 10 30 8 53 -9 15 -11 28
-31 30 -44 4 -24 3 -24 -13 -4 -11 14 -18 16 -21 8 -3 -7 -11 -13 -18 -13 -7
0 -29 -15 -49 -34 -21 -19 -38 -28 -41 -22 -3 7 -5 7 -5 -1 -1 -7 8 -17 19
-23 11 -6 20 -7 20 -3 0 5 13 14 29 20 26 9 30 8 35 -11 6 -20 7 -20 20 -3 7
9 18 17 25 17 6 0 11 6 11 13 0 12 59 51 67 43 2 -2 -10 -14 -26 -26 -17 -12
-31 -28 -31 -36 0 -8 -4 -13 -9 -9 -6 3 -13 0 -18 -7 -4 -7 -20 -19 -35 -27
-21 -11 -25 -17 -17 -27 8 -10 4 -11 -22 -1 -24 9 -27 13 -12 15 27 4 47 38
27 46 -10 4 -13 2 -8 -6 5 -8 2 -9 -9 -5 -10 4 -20 0 -26 -11 -8 -12 -10 -13
-11 -3 0 8 -2 12 -5 9 -9 -9 14 -58 26 -56 6 2 13 -2 16 -9 7 -20 -35 -2 -51
22 -27 41 -29 71 -6 122 20 47 20 48 1 28 -12 -12 -24 -43 -30 -75 -5 -30 -9
-44 -10 -30 -2 40 -13 70 -22 64 -5 -3 -9 1 -9 9 0 8 -17 34 -38 58 -20 24
-44 53 -52 64 -14 18 -13 18 12 -1 15 -12 42 -38 60 -58 17 -20 35 -36 40 -36
8 0 -17 33 -54 72 -22 22 -23 32 -3 24 18 -6 20 5 3 22 -6 6 -8 15 -3 19 4 5
10 2 12 -4 3 -7 9 -13 14 -13 6 0 6 8 -1 19 -14 27 -13 41 3 41 8 0 24 11 37
25 19 21 33 25 77 25 30 0 63 -4 73 -10z m-203 -328 c20 -35 41 -66 48 -68 6
-3 10 -17 7 -34 -2 -17 0 -30 5 -30 20 0 45 -164 41 -268 -1 -55 1 -98 6 -95
4 3 11 1 15 -4 3 -6 20 -13 36 -16 17 -3 24 -4 18 -1 -8 4 -14 28 -15 62 l-2
57 -3 -52 c-2 -29 -8 -53 -14 -53 -5 0 -7 11 -3 25 9 36 10 189 2 255 -3 30
-4 46 -1 35 10 -39 20 -36 13 5 -8 44 -20 65 -20 35 0 -10 -3 -16 -6 -12 -3 3
-3 21 2 39 l7 33 13 -30 c10 -24 13 -26 15 -10 1 17 2 16 9 -5 4 -14 8 -34 8
-45 0 -16 -2 -15 -8 5 l-8 25 0 -25 c0 -31 15 -81 18 -60 5 30 18 -77 17 -135
l-1 -60 -7 65 c-5 54 -6 47 -4 -35 2 -61 0 -92 -5 -80 -8 19 -9 19 -9 -2 -1
-27 46 -66 72 -59 10 2 16 2 13 -2 -4 -3 8 -13 26 -21 42 -20 87 -49 115 -75
13 -10 26 -16 30 -12 4 3 -3 13 -15 22 -12 8 -22 24 -22 34 0 10 -4 21 -9 25
-6 3 -8 14 -6 25 2 11 -1 20 -6 20 -6 0 -9 10 -8 23 2 12 0 28 -5 35 -13 22 2
27 23 8 11 -10 28 -16 38 -14 14 3 18 13 18 51 0 26 4 47 10 47 7 0 7 3 0 8
-6 4 -21 20 -33 36 -12 16 -22 25 -22 21 0 -4 9 -19 21 -33 l21 -27 -31 -3
c-17 -2 -31 -7 -31 -13 0 -5 -4 -9 -8 -9 -5 0 -9 7 -9 15 0 8 7 15 14 15 8 0
11 5 8 10 -4 6 -11 8 -16 5 -5 -3 -6 1 -3 9 3 9 10 13 15 10 5 -3 6 2 3 10 -3
9 -11 13 -17 9 -6 -3 -7 -1 -3 5 4 6 13 9 21 5 17 -6 18 -2 9 21 -3 9 -10 13
-15 10 -5 -3 -6 3 -2 12 6 16 7 15 20 -2 7 -10 13 -23 13 -28 1 -13 63 -82
105 -116 l30 -25 -29 33 c-18 19 -24 32 -16 32 9 0 5 10 -12 28 -14 15 -33 41
-43 57 l-18 30 26 -30 26 -30 -1 27 c-1 15 -6 25 -10 22 -10 -7 -30 35 -24 51
2 7 -2 16 -10 19 -8 3 -14 10 -14 16 0 6 5 8 10 5 14 -9 13 8 -2 23 -8 8 -8
12 -1 12 6 0 9 14 8 30 -1 17 2 30 9 30 6 0 4 5 -4 10 -25 15 2 35 29 21 24
-13 28 -31 6 -31 -8 0 -15 -7 -15 -15 0 -18 66 -22 72 -5 2 7 20 3 48 -9 25
-11 69 -23 99 -27 l53 -7 -6 -38 c-6 -39 2 -53 26 -44 9 4 13 17 10 39 l-4 33
69 6 c37 3 77 8 88 12 14 5 13 2 -5 -10 -25 -16 -25 -16 21 -13 31 2 46 -1 46
-9 0 -8 -9 -11 -24 -9 -12 3 -23 0 -23 -5 0 -5 15 -9 34 -9 19 0 37 -6 39 -12
4 -10 8 -9 16 2 6 9 7 16 1 18 -6 2 -10 11 -9 20 0 11 2 12 6 5 2 -7 11 -13
18 -13 8 0 12 -8 10 -20 -2 -11 1 -20 6 -20 6 0 7 -5 4 -10 -4 -6 -10 -8 -15
-5 -5 3 -11 1 -15 -5 -3 -5 2 -10 12 -10 17 -1 17 -1 1 -14 -10 -7 -15 -16
-11 -20 4 -3 -2 -13 -13 -22 -19 -15 -19 -16 1 -9 20 6 20 6 0 -13 -11 -11
-23 -18 -27 -15 -5 2 -8 -2 -8 -9 0 -7 -10 -19 -21 -27 -18 -11 -23 -11 -31 1
-7 10 -8 8 -6 -5 2 -14 -9 -24 -47 -39 -40 -16 -66 -19 -133 -16 -45 3 -77 1
-70 -4 7 -4 42 -9 78 -10 l65 -1 -55 -7 c-46 -6 -41 -7 30 -5 78 2 82 1 55
-11 -16 -7 -64 -14 -105 -15 -73 -1 -74 -1 -30 -10 42 -9 78 -7 139 8 17 4 22
2 17 -6 -4 -6 -18 -11 -32 -11 -13 0 -24 -4 -24 -9 0 -11 89 -9 91 2 1 4 2 13
3 20 2 25 102 130 117 122 4 -3 19 -1 33 5 14 5 28 5 30 1 3 -5 -8 -11 -24
-14 -33 -7 -113 -74 -104 -88 3 -5 0 -9 -6 -9 -6 0 -9 -4 -6 -8 3 -5 -3 -14
-13 -21 -12 -9 -16 -23 -14 -44 3 -26 1 -28 -6 -12 -8 17 -10 14 -10 -16 -1
-19 -5 -39 -11 -45 -15 -15 -50 -133 -51 -173 -1 -31 -2 -33 -8 -11 -9 34 -40
39 -49 8 l-6 -23 -7 25 c-7 24 -7 24 -8 3 -1 -20 -6 -23 -45 -23 -24 0 -51 -3
-59 -6 -11 -4 -13 1 -10 20 5 22 2 26 -20 26 -37 0 -67 15 -115 58 -41 37 -42
38 -25 62 l17 24 7 -24 c7 -24 7 -24 8 -2 1 27 -23 39 -44 22 -12 -10 -15 -10
-15 0 0 8 -3 10 -7 7 -3 -4 -13 -1 -22 5 -9 7 -3 -3 14 -21 24 -25 26 -31 10
-25 -11 4 3 -16 33 -46 54 -54 68 -83 15 -33 -73 71 -201 156 -221 148 -7 -2
-11 -1 -8 4 6 9 -14 18 -104 47 -78 26 -282 26 -365 0 -83 -25 -205 -90 -260
-138 -25 -22 -48 -38 -51 -36 -5 5 67 72 102 96 10 7 2 4 -19 -8 -21 -11 -42
-18 -47 -15 -39 24 -57 181 -22 193 17 5 15 22 -2 22 -8 0 -17 -13 -21 -29 -3
-16 -12 -34 -19 -40 -21 -18 -7 102 19 156 14 27 19 50 14 54 -11 6 54 69 71
69 17 0 207 194 215 219 3 11 10 21 14 21 4 0 13 11 19 24 8 18 16 23 31 19
12 -3 21 -1 21 4 0 6 10 10 23 9 16 -1 35 -21 69 -71 25 -38 45 -72 43 -75 -1
-3 3 -11 11 -18 21 -19 17 -8 -16 56 -41 78 -50 90 -92 137 -21 22 -38 45 -37
50 0 20 101 -101 136 -163z m-3141 36 c-22 -34 -10 -103 25 -137 35 -35 98
-50 111 -27 5 9 16 16 23 16 8 0 14 3 13 8 -1 4 4 18 11 30 7 13 10 27 6 30
-4 4 -10 0 -15 -9 -25 -44 -47 -61 -80 -62 -53 -1 -80 27 -80 84 0 49 13 68
43 63 25 -4 35 -14 13 -14 -9 0 -15 -4 -11 -9 3 -5 1 -12 -5 -16 -5 -3 -10
-17 -10 -31 0 -19 4 -24 18 -22 9 2 16 10 15 16 -2 7 2 12 7 12 6 0 8 -12 5
-27 -2 -16 2 -8 10 17 9 25 14 53 11 63 -2 10 0 14 6 11 9 -6 7 -65 -3 -89 -2
-5 0 -10 6 -10 10 0 14 12 18 51 2 19 7 21 37 17 l35 -4 -25 16 -25 16 29 -6
c15 -3 44 -1 63 6 39 12 83 -2 83 -28 0 -7 5 -13 11 -13 8 0 10 -17 6 -52 -4
-35 -3 -46 3 -33 l9 20 1 -20 c1 -11 10 14 20 55 l18 75 -2 -101 c-2 -56 -6
-107 -10 -113 -4 -6 -1 -11 7 -11 9 0 19 30 32 100 10 55 22 100 27 100 13 0
9 -79 -7 -145 l-14 -60 26 -22 c15 -12 30 -20 34 -17 4 2 9 -3 13 -11 3 -8 10
-15 16 -15 11 0 26 -11 67 -48 24 -22 26 -22 39 -5 7 10 14 24 14 32 0 9 8 12
24 9 18 -4 23 -1 18 10 -4 12 0 14 19 9 13 -3 40 -2 59 3 31 7 28 8 -27 9 -35
1 -63 -2 -63 -6 0 -5 -27 -9 -61 -10 -50 -1 -58 1 -49 12 31 37 247 45 321 12
109 -48 128 -57 134 -67 9 -15 2 -13 -52 14 -26 13 -66 27 -88 30 -29 5 -19
-2 41 -24 120 -46 238 -149 291 -257 9 -18 21 -29 26 -26 6 4 7 1 3 -6 -12
-18 2 -61 19 -61 17 0 20 -17 4 -22 -7 -2 -7 -12 0 -31 12 -32 13 -146 1 -192
l-8 -30 -1 27 c0 15 -6 30 -11 33 -7 4 -9 -3 -6 -20 3 -15 -2 -37 -10 -51 -9
-12 -15 -24 -14 -26 1 -2 -2 -12 -5 -23 -17 -53 -37 -85 -84 -137 -28 -31 -51
-60 -51 -64 0 -5 7 0 15 10 8 11 17 17 20 14 8 -8 -6 -38 -17 -38 -5 0 -16 -7
-25 -16 -9 -9 -22 -12 -32 -8 -29 12 -115 21 -168 17 l-51 -4 -6 68 c-4 38 -8
86 -11 108 -4 36 -1 41 17 42 22 2 40 22 32 35 -9 14 -24 8 -25 -9 0 -15 -1
-15 -8 2 -15 36 -7 70 17 70 12 0 21 4 19 10 -1 5 -11 8 -22 7 -20 -4 -20 -4
0 11 11 9 17 19 13 23 -4 4 -14 1 -23 -6 -20 -16 -32 -5 -16 14 9 11 10 27 3
58 l-9 43 -8 -57 c-4 -32 -4 -66 -1 -75 6 -14 5 -15 -5 -6 -9 9 -10 32 -3 92
6 46 6 77 1 72 -5 -5 -12 -50 -16 -100 -11 -126 -21 -126 -14 0 7 132 -6 202
-57 305 -38 76 -112 164 -175 208 -58 40 -147 78 -171 72 -16 -4 -23 -3 -20 3
4 5 -8 13 -26 16 -18 4 -36 12 -39 18 -11 17 -110 22 -120 6 -5 -8 -9 -9 -9
-3 0 8 -12 8 -45 1 -24 -6 -42 -14 -39 -18 3 -5 -2 -6 -11 -3 -16 7 -120 -31
-146 -53 -8 -7 -19 -13 -23 -13 -4 0 -32 -20 -60 -45 -29 -25 -57 -45 -62 -45
-4 0 -3 5 4 12 9 9 9 15 -1 27 -10 12 -9 14 6 8 14 -5 17 0 19 26 1 18 2 40 2
50 1 10 6 21 11 25 15 11 12 67 -3 64 -10 -2 -10 2 -2 18 13 24 22 27 13 3 -5
-12 -3 -14 7 -8 9 5 11 4 6 -3 -5 -8 -2 -10 9 -6 13 5 13 9 3 22 -11 13 -10
15 6 9 14 -6 17 -4 12 8 -9 24 4 18 38 -19 26 -29 34 -33 48 -22 9 7 18 25 20
40 3 26 0 29 -32 32 -34 4 -61 26 -59 48 0 6 3 5 6 -1 2 -7 9 -13 15 -13 6 0
8 7 4 15 -4 10 1 15 17 15 12 1 40 12 62 25 51 30 59 31 41 3z m324 -252 c19
-1 41 -5 48 -10 7 -4 24 -9 38 -11 34 -3 131 -69 181 -123 43 -46 107 -155
101 -173 -2 -5 -17 13 -33 41 -16 27 -33 50 -38 50 -4 0 4 -20 18 -43 14 -24
25 -48 25 -53 0 -5 -14 15 -30 44 -17 29 -35 50 -40 47 -6 -3 -7 1 -3 10 5 13
7 14 14 3 5 -7 9 -8 9 -3 0 20 -154 155 -176 155 -15 0 29 -39 62 -55 18 -9
33 -21 31 -27 -1 -7 3 -12 10 -13 18 0 28 -15 10 -15 -9 0 -22 8 -29 18 -7 10
-29 28 -49 40 -19 12 -40 32 -46 45 -10 22 -20 26 -183 76 l-35 11 40 -7 c22
-3 56 -7 75 -7z m1583 -100 c21 -9 43 -16 50 -14 7 1 23 -4 37 -12 17 -10 66
-16 155 -18 72 -2 134 -8 139 -13 13 -12 29 -12 22 0 -3 5 6 12 20 15 21 6 32
1 54 -21 30 -31 48 -69 27 -57 -6 4 -18 16 -26 27 -11 15 -15 16 -22 6 -6 -10
-9 -11 -9 -1 0 6 -10 12 -22 12 -22 -1 -22 -1 5 -18 15 -9 27 -21 27 -25 0 -5
9 -20 19 -33 11 -14 34 -59 51 -101 29 -68 32 -89 33 -173 1 -139 -38 -241
-130 -341 -47 -51 -58 -57 -71 -47 -13 11 -15 10 -9 -4 4 -12 -3 -24 -22 -38
-35 -24 -40 -25 -57 -2 -12 16 -13 15 -8 -4 6 -22 -7 -31 -56 -40 -13 -3 -29
-9 -35 -14 -5 -4 -19 -10 -30 -13 -11 -2 1 -3 27 -1 25 3 49 1 52 -4 3 -5 -7
-7 -22 -5 -23 3 -24 2 -7 -6 14 -7 4 -8 -35 -6 -47 3 -50 3 -20 -5 24 -5 0 -7
-75 -5 -60 2 -123 7 -139 11 -21 5 -27 4 -22 -5 13 -20 -4 -12 -29 15 -13 14
-22 34 -20 44 2 10 -3 21 -10 24 -9 3 -12 0 -8 -10 3 -7 1 -14 -5 -14 -6 0 -9
8 -8 18 4 23 -24 41 -57 38 -15 -2 -24 1 -21 5 3 5 1 9 -4 9 -5 0 -9 11 -9 25
0 13 2 23 6 21 4 -3 7 3 7 13 0 10 -6 18 -13 18 -7 0 -10 -4 -8 -8 7 -11 -6
-39 -17 -39 -6 0 -8 6 -5 14 3 8 2 16 -2 18 -11 4 -74 117 -88 158 -7 19 -10
43 -7 53 3 9 1 17 -4 17 -6 0 -9 43 -8 103 2 87 6 112 31 172 47 116 119 199
215 249 71 37 102 39 163 12z m1288 -222 c107 -20 134 -35 54 -29 -213 16
-377 -27 -521 -137 -93 -71 -101 -74 -51 -22 26 28 44 54 40 59 -5 4 -2 5 5 1
6 -4 12 -2 12 4 0 31 159 104 275 125 93 17 90 17 186 -1z m-6 -64 c11 -4 45
-13 75 -20 110 -26 228 -94 297 -173 17 -19 40 -38 52 -42 12 -3 19 -10 16
-15 -3 -5 0 -12 6 -16 8 -4 9 -3 5 4 -4 7 -2 12 4 12 7 0 14 -9 17 -20 3 -11
9 -17 14 -15 4 3 11 -1 16 -8 4 -7 16 -17 26 -20 11 -4 15 -12 11 -18 -4 -7
-3 -9 3 -6 10 7 83 -65 83 -81 0 -4 -15 10 -33 31 -18 20 -36 37 -40 37 -4 0
9 -18 29 -40 21 -22 44 -40 53 -40 13 0 13 -2 3 -9 -11 -6 -6 -20 21 -62 78
-122 128 -255 126 -334 -1 -20 -7 -6 -18 40 -20 81 -30 108 -72 190 -66 127
-203 296 -228 281 -6 -4 -9 -1 -6 6 9 25 -161 122 -275 157 -114 35 -227 46
-332 32 -105 -14 -226 -49 -310 -91 -32 -16 -58 -27 -58 -25 0 10 88 63 95 57
5 -4 5 -1 1 5 -6 10 -14 10 -37 -2 -37 -20 -39 -1 -1 20 15 9 19 14 10 11 -10
-3 -18 -1 -18 4 0 6 4 10 9 10 5 0 13 12 19 28 6 18 27 37 61 56 29 15 55 25
58 22 3 -3 12 2 18 11 8 10 26 17 48 17 20 0 34 3 31 7 -2 4 6 9 18 11 35 6
180 -2 203 -12z"/>
<path d="M5855 3110 c-34 -23 -92 -26 -142 -8 -28 10 -38 9 -70 -9 -21 -12
-69 -26 -108 -31 -38 -6 -135 -24 -215 -41 -80 -16 -158 -32 -175 -34 -29 -4
-28 -4 5 -5 19 -1 130 7 245 19 116 11 231 17 257 14 39 -6 52 -3 74 14 29 23
94 44 115 37 58 -18 69 -17 69 8 0 28 -9 56 -19 56 -3 0 -19 -9 -36 -20z"/>
<path d="M3634 2633 c-100 -104 -196 -206 -215 -227 -19 -22 -53 -48 -76 -58
-37 -16 -44 -25 -57 -69 -9 -28 -25 -66 -36 -84 -22 -36 -76 -75 -104 -75 -19
0 -19 -2 -6 -32 12 -24 57 -51 71 -42 5 3 9 14 9 25 0 52 58 115 132 143 42
16 48 23 68 74 11 32 38 75 59 97 34 35 89 105 258 327 24 32 48 60 53 63 10
6 34 45 28 45 -2 0 -85 -84 -184 -187z"/>
<path d="M2198 2854 c-7 -16 -22 -45 -34 -64 -12 -19 -49 -89 -83 -155 -34
-66 -73 -131 -87 -146 -16 -17 -24 -37 -24 -62 0 -45 -17 -86 -49 -114 -22
-19 -23 -23 -8 -37 8 -9 25 -16 36 -16 17 0 21 6 21 36 0 42 29 95 65 118 20
13 25 25 25 59 0 24 4 47 9 52 5 6 37 78 71 160 33 83 65 158 71 168 6 11 8
21 5 24 -3 3 -11 -7 -18 -23z"/>
<path d="M2671 1658 c7 -13 27 -41 45 -64 l34 -41 -23 -12 c-12 -6 -46 -13
-75 -15 -48 -4 -58 -9 -96 -47 -45 -47 -188 -125 -208 -114 -7 4 -2 -3 12 -14
14 -11 21 -21 15 -21 -5 0 -2 -5 8 -11 15 -9 33 -3 90 31 46 26 90 44 121 47
43 5 55 13 112 70 40 40 69 62 76 57 7 -4 -1 8 -18 27 -17 19 -46 55 -64 82
-36 50 -48 61 -29 25z"/>
<path d="M3160 1143 c0 -40 -6 -56 -35 -92 -25 -31 -33 -50 -29 -66 5 -19 -88
-420 -99 -432 -8 -8 -37 10 -31 19 4 6 -1 8 -14 4 -14 -5 -24 -1 -31 11 -6 10
-11 14 -11 10 0 -4 -9 -3 -21 3 -17 10 -18 14 -7 28 12 15 11 16 -4 4 -9 -8
-23 -10 -30 -6 -22 12 26 -30 57 -51 32 -21 43 -45 23 -45 -7 -1 -2 -7 12 -15
14 -8 32 -14 40 -14 8 0 2 7 -15 14 -16 8 -25 14 -18 15 7 0 10 7 6 15 -5 13
-2 14 20 4 15 -7 24 -16 21 -20 -3 -5 2 -6 10 -3 8 3 12 12 10 19 -3 8 13 65
36 127 23 62 53 147 66 189 13 41 33 86 44 99 17 19 19 32 14 70 -6 46 13 105
39 122 15 9 -11 38 -34 38 -16 0 -19 -8 -19 -47z"/>
<path d="M6760 4231 c-30 -10 -68 -23 -85 -30 -32 -13 -138 -89 -143 -103 -2
-4 -9 -8 -15 -8 -6 0 5 16 24 36 20 22 26 32 14 26 -11 -6 -31 -22 -44 -36
-14 -14 -30 -26 -37 -26 -7 0 -11 -8 -9 -17 4 -29 -5 -34 -33 -16 l-27 17 18
-21 c12 -14 15 -23 7 -28 -5 -3 -8 -11 -4 -16 3 -6 -2 -17 -12 -24 -12 -9 -14
-14 -6 -15 9 0 10 -5 2 -19 -15 -29 -12 -38 5 -15 14 18 14 17 5 -9 -5 -15
-20 -38 -33 -50 -18 -16 -22 -27 -16 -42 l8 -20 0 20 c1 11 5 26 10 33 7 11 9
10 14 -3 4 -9 3 -14 -1 -11 -16 10 -42 -136 -33 -186 4 -27 4 -48 0 -48 -12 0
-22 104 -16 167 6 54 5 55 -4 18 -6 -22 -9 -66 -7 -98 4 -53 3 -58 -14 -54
-10 3 -18 1 -18 -4 0 -5 9 -9 20 -9 13 0 22 -9 26 -25 3 -13 10 -23 15 -22 6
1 18 -20 27 -48 33 -93 98 -178 191 -249 62 -47 176 -97 219 -95 22 1 20 3
-17 15 -56 17 -162 66 -157 72 2 2 26 -6 51 -17 76 -34 76 -24 0 14 -72 36
-132 81 -121 92 3 3 12 0 21 -7 9 -7 17 -11 19 -9 1 2 -16 20 -38 39 -23 19
-32 25 -22 12 11 -12 17 -25 13 -28 -7 -8 -47 38 -74 87 -32 55 -29 60 7 11
17 -23 33 -42 37 -42 3 0 -1 8 -9 18 -9 9 -29 44 -46 77 -73 149 -41 368 75
495 19 22 28 38 19 34 -31 -12 -16 19 29 63 25 24 53 43 62 43 15 0 14 -2 -3
-16 -18 -14 -18 -15 4 -4 12 6 20 15 17 21 -4 5 15 19 42 31 38 17 73 22 166
26 64 2 117 8 117 13 0 16 -181 8 -240 -10z"/>
<path d="M6835 4035 c3 -27 11 -86 17 -130 6 -44 12 -105 12 -135 1 -39 8 -66
24 -91 14 -24 22 -52 22 -83 0 -47 9 -56 40 -36 12 7 12 12 -3 28 -14 15 -18
35 -16 86 1 43 -3 77 -13 98 -9 18 -21 58 -27 88 -14 65 -40 165 -52 200 -7
18 -8 11 -4 -25z"/>
<path d="M133 3243 c-8 -3 -13 -24 -13 -52 0 -36 -7 -59 -29 -91 -23 -34 -28
-51 -24 -77 3 -19 -1 -60 -10 -91 -17 -63 -48 -228 -46 -252 1 -20 67 181 80
245 6 28 22 66 35 85 20 30 22 41 15 67 -11 36 -1 91 22 123 13 19 14 25 2 36
-7 8 -15 14 -17 13 -2 0 -9 -3 -15 -6z"/>
<path d="M42 2428 c-9 -67 -16 -88 -28 -88 -8 0 -14 -10 -14 -23 0 -25 5 -29
124 -78 38 -16 86 -45 107 -64 35 -32 45 -35 98 -35 73 0 106 -12 148 -52 32
-31 33 -31 53 -13 11 10 20 29 20 42 0 21 -4 23 -46 23 -59 0 -106 23 -148 71
-29 35 -39 40 -87 43 -30 2 -74 13 -99 24 l-45 19 2 72 c2 64 0 71 -18 71 -17
0 -19 -7 -19 -59 0 -35 -5 -63 -12 -67 -8 -5 -10 10 -5 59 6 60 4 67 -12 67
-10 0 -18 -6 -19 -12z"/>
<path d="M4961 2380 c-2 -47 19 -99 52 -125 l32 -27 -54 7 c-63 7 -364 25
-368 21 -1 -1 32 -8 75 -15 42 -7 110 -19 151 -27 40 -8 89 -14 107 -14 19 0
51 -7 71 -15 28 -12 54 -14 105 -9 55 5 72 3 94 -11 26 -16 28 -17 40 -1 11
16 9 56 -4 56 -3 0 -19 -5 -36 -11 -23 -8 -39 -8 -60 1 l-30 11 50 23 c31 14
54 33 61 49 8 16 9 27 3 27 -6 0 -10 -4 -10 -10 0 -20 -87 -60 -131 -60 -75 0
-124 42 -140 120 -5 27 -7 29 -8 10z"/>
<path d="M6560 2350 c0 -5 4 -10 8 -10 5 0 61 -31 126 -70 65 -38 122 -70 126
-70 4 0 23 -15 43 -34 26 -24 48 -35 83 -40 26 -3 49 -4 51 -2 10 10 -80 86
-101 86 -13 0 -63 20 -112 44 -49 24 -111 54 -139 66 -27 12 -58 27 -67 32
-12 5 -18 5 -18 -2z"/>
<path d="M5617 1921 c12 -5 52 -14 90 -20 37 -6 102 -17 143 -25 200 -39 250
-47 310 -53 41 -3 82 -15 112 -30 37 -20 54 -24 85 -19 21 4 61 10 90 12 51 6
52 6 38 28 -8 12 -30 28 -50 35 -19 7 -35 16 -35 20 0 5 -14 14 -30 21 -24 10
-33 10 -45 0 -9 -8 -28 -10 -52 -6 -29 5 -34 4 -23 -4 12 -9 8 -10 -15 -6 -48
8 -257 26 -430 36 -88 6 -171 12 -185 15 -23 5 -23 5 -3 -4z"/>
<path d="M185 1900 c-100 -19 -147 -30 -168 -41 -21 -12 -21 -12 -2 -20 17 -6
17 -8 3 -8 -10 -1 -18 -5 -18 -11 0 -14 4 -13 53 9 75 35 121 43 218 40 78 -3
99 -8 115 -23 19 -19 19 -20 -6 -13 -14 4 -34 7 -45 8 l-20 0 20 9 c32 13
-123 0 -195 -17 -71 -17 -140 -48 -140 -63 0 -5 7 -7 15 -4 8 4 15 10 15 16 0
5 5 6 10 3 6 -4 16 -3 23 2 45 34 230 45 317 19 120 -36 236 -126 284 -221 38
-75 70 -207 63 -263 -3 -26 -2 -56 3 -67 7 -16 9 -14 9 15 1 57 18 177 20 145
2 -26 3 -27 11 -10 6 14 9 -1 9 -47 1 -44 -3 -68 -10 -68 -6 0 -9 -6 -6 -14
13 -33 -33 -160 -82 -226 -45 -62 -143 -140 -173 -140 -7 0 -1 8 15 18 27 17
35 32 17 32 -5 0 -10 -4 -10 -8 0 -14 -100 -60 -165 -77 -66 -17 -180 -21
-155 -5 17 11 12 13 -68 29 -29 6 -72 20 -94 31 -23 11 -43 20 -45 20 -9 0 -1
-70 8 -76 8 -4 7 -9 -2 -15 -11 -7 -10 -9 3 -9 9 0 18 -4 20 -9 1 -5 17 -12
33 -15 25 -5 27 -5 10 4 -15 8 -8 8 25 3 81 -14 261 -8 312 10 93 33 139 60
206 123 168 155 218 398 127 618 -6 14 -5 17 3 12 7 -4 12 -3 12 2 0 5 10 20
23 34 56 61 147 187 147 203 0 5 -5 2 -11 -8 -6 -9 -14 -15 -19 -12 -5 3 -12
0 -16 -6 -5 -8 -3 -9 6 -4 8 5 11 3 8 -6 -3 -8 -11 -13 -17 -11 -7 1 -10 -2
-7 -7 10 -15 -5 -43 -20 -37 -7 3 -18 -3 -26 -12 -12 -15 -11 -16 5 -3 9 7 17
9 17 3 0 -15 -23 -28 -47 -26 -29 2 -92 -50 -77 -65 7 -8 20 -1 44 24 19 19
38 35 42 35 17 0 6 -16 -32 -44 -21 -16 -37 -33 -34 -38 3 -4 1 -8 -5 -8 -5 0
-23 24 -40 53 -16 28 -43 66 -60 84 -35 39 -145 111 -181 120 -14 3 -34 11
-45 18 -25 15 -176 25 -230 15z"/>
<path d="M3 1467 c2 -7 45 -33 96 -58 51 -26 104 -57 117 -70 14 -13 34 -23
44 -21 34 6 95 -17 114 -42 15 -22 20 -23 32 -11 23 22 17 45 -11 45 -34 0
-79 24 -103 55 -13 16 -30 25 -47 25 -15 0 -63 16 -107 36 -100 45 -141 57
-135 41z"/>
<path d="M6956 525 c-15 -14 -32 -25 -39 -25 -8 0 -6 4 3 11 12 9 12 10 -3 5
-10 -3 -21 -6 -23 -6 -3 0 -2 -4 1 -10 3 -5 0 -10 -7 -10 -7 0 -24 -3 -38 -5
-17 -4 -19 -3 -8 2 10 5 -32 8 -92 8 -59 0 -106 -2 -104 -5 3 -2 44 -7 92 -10
75 -5 84 -8 62 -17 -17 -8 -20 -12 -8 -12 47 -2 -32 -192 -118 -287 -24 -26
-41 -51 -37 -57 3 -6 1 -7 -6 -3 -7 5 -34 -11 -68 -38 -30 -25 -62 -46 -69
-46 -8 0 -14 -4 -14 -9 0 -15 153 -12 162 2 6 9 8 9 8 0 0 -24 19 -13 67 38
61 65 69 86 12 34 l-44 -40 44 47 c24 26 49 46 55 45 6 -1 10 6 8 17 -2 10 1
15 7 12 5 -4 12 -2 16 4 3 5 1 10 -5 10 -6 0 -8 5 -4 11 5 8 9 8 14 -1 5 -8 9
-7 14 5 3 9 3 22 -1 27 -3 6 -1 8 4 5 14 -9 68 97 58 114 -5 8 -4 10 3 5 18
-11 15 -32 -13 -86 -27 -54 -30 -64 -15 -55 17 10 11 -12 -7 -26 -11 -10 -14
-10 -9 -1 4 6 3 12 -3 12 -6 0 -15 -9 -21 -20 -9 -16 -8 -20 7 -21 12 -1 9 -3
-7 -8 -16 -4 -25 -14 -25 -26 0 -11 -5 -19 -12 -18 -9 2 -103 -83 -103 -93 0
-12 24 -1 43 19 12 13 16 16 10 7 -7 -9 -13 -20 -13 -23 0 -4 56 -7 123 -7
123 0 124 0 135 25 14 31 17 525 3 525 -4 0 -20 -11 -35 -25z"/>
<path d="M4252 469 c-13 -5 -22 -12 -19 -16 43 -83 46 -147 12 -214 -18 -34
-16 -60 9 -124 8 -22 15 -57 16 -77 0 -33 3 -38 24 -38 23 0 25 4 28 68 3 37
11 82 19 100 11 26 11 36 1 50 -43 62 -55 153 -26 211 9 18 14 34 13 35 -12
10 -57 13 -77 5z"/>
<path d="M3279 267 c-12 -27 -58 -57 -87 -57 -11 0 -30 -15 -43 -35 -13 -19
-33 -39 -45 -46 -13 -6 -24 -24 -27 -43 -3 -17 -9 -40 -13 -50 -5 -13 -4 -17
4 -12 8 5 10 2 6 -8 -3 -9 -1 -16 5 -16 10 0 15 14 12 33 -1 4 7 3 17 -2 14
-8 19 -6 19 5 0 7 -4 14 -9 14 -4 0 -8 7 -8 15 0 9 6 12 16 8 11 -4 15 -1 12
12 -2 12 11 26 40 44 24 14 52 41 63 59 11 18 35 40 54 48 31 13 34 17 25 34
-14 26 -28 25 -41 -3z"/>
</g>
</svg>
