<?xml version="1.0" standalone="no"?>
<!DOCTYPE svg PUBLIC "-//W3C//DTD SVG 20010904//EN"
 "http://www.w3.org/TR/2001/REC-SVG-20010904/DTD/svg10.dtd">
<svg version="1.0" xmlns="http://www.w3.org/2000/svg"
 width="979.000000pt" height="1024.000000pt" viewBox="0 0 979.000000 1024.000000"
 preserveAspectRatio="xMidYMid meet">
<metadata>
Created by potrace 1.16, written by Peter Selinger 2001-2019
</metadata>
<g transform="translate(0.000000,1024.000000) scale(0.100000,-0.100000)"
fill="#000000" stroke="none">
<path d="M0 9266 c0 -722 3 -975 11 -978 9 -3 9 -9 0 -25 -16 -32 -16 -823 1
-823 9 0 9 -3 0 -12 -16 -16 -17 -458 -2 -458 7 0 7 -6 0 -19 -6 -13 -10 -160
-10 -409 0 -431 -5 -402 64 -402 30 0 33 -3 29 -24 l-5 -24 -35 24 c-20 13
-40 24 -44 24 -5 0 -9 -232 -9 -516 l0 -516 25 6 c14 4 25 2 25 -4 0 -5 17
-11 38 -11 20 -1 51 -5 67 -9 20 -5 8 -6 -37 -5 -38 2 -68 -1 -68 -6 0 -5 -11
-7 -25 -3 l-25 6 0 -236 c0 -130 4 -236 8 -236 4 0 8 -9 8 -20 0 -11 -4 -20
-8 -20 -4 0 -8 -175 -8 -390 l0 -390 63 23 c63 23 63 23 63 3 -1 -18 -9 -22
-61 -26 l-60 -5 -2 -423 c-3 -418 -3 -423 17 -417 14 5 20 2 20 -9 0 -9 -9
-16 -20 -16 -20 0 -20 -7 -20 -1145 0 -630 3 -1145 6 -1145 17 0 49 27 86 73
23 29 39 45 36 36 -8 -22 2 -34 37 -47 24 -8 26 -11 9 -11 -22 -1 -174 -67
-174 -75 0 -3 8 -3 18 0 14 5 14 3 -3 -11 -16 -13 -17 -17 -6 -24 9 -6 10 -11
2 -15 -8 -5 -11 -92 -11 -282 l0 -274 347 0 347 0 35 33 c21 19 27 22 13 6
-12 -14 -22 -28 -22 -32 0 -4 167 -7 372 -7 l372 0 60 58 c34 31 50 45 38 31
-12 -14 -19 -29 -15 -32 4 -4 33 21 66 55 63 67 64 62 3 -15 -21 -26 -35 -47
-32 -47 4 0 -6 -11 -21 -25 l-28 -24 790 -1 c619 0 794 3 804 13 11 9 13 9 7
0 -10 -19 620 -19 638 0 7 7 25 44 41 82 29 75 42 96 32 55 -3 -14 -13 -53
-21 -87 l-14 -62 274 -1 c315 -1 282 -13 312 117 l19 78 -5 -98 -5 -97 361 0
361 1 4 22 4 22 2 -22 1 -23 246 0 247 0 -6 28 c-3 16 -7 32 -8 38 -1 5 0 41
1 79 1 51 4 63 10 45 4 -14 8 -42 9 -62 1 -21 5 -38 10 -38 6 0 6 -12 0 -32
-12 -42 -11 -58 1 -58 6 0 10 14 10 31 0 17 4 28 10 24 6 -3 10 -17 10 -31 l0
-24 1001 0 c884 0 1000 2 995 15 -15 38 -15 47 0 18 l18 -33 109 0 c93 0 108
2 103 15 -15 38 -15 47 0 18 l18 -33 543 0 c299 0 543 3 543 6 0 3 -13 24 -28
47 -39 57 -48 77 -22 47 12 -14 37 -42 54 -62 l32 -37 372 -1 372 -1 0 234 c0
226 -1 235 -22 263 l-22 29 22 -19 22 -19 0 681 c0 579 -2 682 -14 682 -9 0
-12 7 -9 20 3 11 9 20 14 20 15 0 11 900 -4 919 -9 12 -9 13 1 7 9 -6 12 21
12 120 0 109 -2 129 -17 140 -17 13 -17 14 -1 8 16 -6 18 4 17 112 -1 66 -6
125 -11 132 -7 8 -7 12 0 12 8 0 11 95 12 315 0 294 -1 315 -17 315 -10 1 -31
7 -48 16 l-30 14 30 -5 c17 -3 38 -8 47 -11 14 -4 18 1 18 20 0 14 -4 26 -10
26 -5 0 -10 7 -10 16 0 8 5 12 10 9 7 -4 10 419 10 1262 0 697 -4 1263 -8
1256 -6 -9 -11 -7 -20 7 -7 11 -9 20 -5 19 24 -4 33 4 33 26 0 25 -1 25 -24
10 -20 -13 -24 -14 -29 -1 -4 9 4 16 24 20 l29 6 0 345 c0 190 -4 345 -9 345
-4 0 -20 -9 -34 -20 -14 -11 -28 -20 -31 -20 -3 0 -6 9 -6 20 0 14 7 20 24 20
13 0 31 3 40 6 14 5 16 147 16 1445 l0 1439 -595 0 c-577 0 -595 -1 -605 -19
-5 -11 -10 -30 -10 -43 l0 -23 -14 25 c-11 21 -11 28 2 43 14 16 -75 17 -1901
17 l-1916 0 6 -38 c4 -25 2 -34 -5 -27 -6 6 -12 21 -14 35 l-3 25 -1177 3
c-869 1 -1178 -1 -1178 -9 0 -9 -4 -9 -13 0 -10 8 -337 11 -1190 11 l-1177 0
0 -974z m4929 158 c259 -2 442 -16 664 -53 l109 -18 8 21 c9 21 9 21 9 -1 1
-13 2 -23 4 -23 1 0 68 -15 149 -33 129 -29 148 -31 154 -18 5 13 8 12 14 -6
6 -13 21 -24 42 -28 69 -15 389 -126 517 -180 176 -74 402 -188 558 -280 69
-41 129 -75 133 -75 5 0 11 -6 14 -12 3 -9 10 -7 21 7 16 20 16 19 10 -5 -5
-22 1 -29 42 -55 26 -16 103 -71 171 -122 77 -57 129 -90 138 -86 8 3 13 11
10 19 -3 7 1 18 9 24 11 9 11 4 4 -31 -6 -23 -6 -45 -2 -49 166 -135 435 -400
574 -565 100 -119 225 -285 312 -417 61 -91 74 -105 89 -97 16 9 17 7 8 -13
-9 -20 -1 -40 55 -138 82 -141 188 -358 247 -505 63 -154 61 -149 63 -155 11
-44 78 -230 83 -230 4 0 7 -12 8 -27 1 -16 19 -98 42 -183 42 -162 61 -257 42
-211 -6 14 -12 33 -13 43 -2 9 -6 20 -9 24 -4 3 -4 13 -1 22 4 15 3 15 -6 2
-5 -8 -8 -26 -6 -40 3 -14 2 -18 -2 -10 -3 8 -12 20 -19 25 -7 6 -25 56 -40
113 -15 56 -29 101 -31 98 -2 -2 10 -57 26 -122 165 -656 167 -1394 5 -2078
-15 -61 -29 -116 -33 -122 -4 -7 -111 18 -321 74 -173 46 -316 85 -318 87 -1
1 9 49 22 106 67 286 90 509 90 859 0 316 -13 463 -65 727 -255 1304 -1195
2372 -2459 2792 -1179 393 -2487 161 -3458 -611 -601 -477 -1050 -1150 -1252
-1874 -12 -43 -23 -80 -25 -82 -1 -2 -130 31 -286 73 -156 42 -300 80 -321 86
l-36 9 33 113 c199 670 516 1227 993 1751 70 76 126 143 124 148 -1 5 2 7 7 3
6 -3 43 25 83 63 142 134 286 252 432 357 36 26 66 49 66 52 0 11 -293 -211
-385 -291 -28 -25 -43 -32 -52 -24 -9 7 -11 5 -8 -11 4 -22 -10 -38 -19 -22
-4 5 -12 8 -19 7 -22 -3 -37 -17 -31 -28 4 -7 2 -8 -5 -4 -6 4 -19 2 -27 -5
-8 -7 -14 -8 -12 -3 2 5 -1 9 -7 9 -5 0 -9 -9 -8 -20 1 -15 1 -16 -3 -3 -4 14
-8 15 -19 5 -7 -6 -10 -16 -7 -22 3 -5 1 -6 -3 -2 -5 4 -52 -34 -104 -85 -53
-51 -26 -22 60 65 85 87 164 160 175 161 10 2 18 9 17 14 -2 6 17 28 42 49 25
20 45 41 45 46 0 5 -9 22 -21 38 -25 35 -22 36 21 4 19 -14 28 -25 20 -25 -7
0 -11 -3 -7 -6 3 -4 30 14 59 39 73 62 271 205 363 262 66 42 76 51 72 72 -4
22 -3 22 13 8 15 -14 23 -12 88 26 53 31 69 45 65 57 -5 13 -3 14 6 6 10 -9
55 9 189 76 517 258 1091 416 1655 456 l98 7 -5 26 -5 26 11 -25 10 -25 257
-1z m-449 -914 c0 -6 -10 -15 -22 -20 -21 -8 -21 -9 -3 -9 11 -1 35 3 52 8 18
5 35 6 38 1 3 -4 22 -4 42 1 66 15 84 7 89 -41 4 -31 3 -32 -24 -26 -49 12
-117 19 -110 12 6 -7 27 -13 58 -16 10 -1 9 -4 -5 -10 -21 -9 -8 -14 28 -11
29 4 19 -8 -23 -25 -50 -20 -47 -27 5 -13 52 15 125 17 125 4 0 -13 -46 -27
-85 -26 -26 0 -28 -1 -10 -10 16 -7 14 -8 -12 -5 -18 3 -35 1 -38 -4 -3 -6 4
-10 17 -11 l23 -1 -22 -6 c-13 -4 -31 -14 -41 -23 -10 -8 -22 -14 -27 -13 -6
2 -19 -3 -29 -11 -16 -12 -17 -17 -6 -30 10 -12 10 -15 -4 -15 -18 0 -22 -16
-4 -22 6 -2 -4 -15 -23 -28 -21 -15 -29 -18 -20 -7 15 19 16 19 -21 21 -17 1
-28 -3 -28 -11 0 -8 7 -10 17 -6 17 7 17 6 1 -19 -10 -15 -14 -35 -11 -48 4
-16 3 -21 -6 -16 -6 4 -8 12 -5 18 5 7 2 8 -6 3 -7 -4 -16 -2 -21 6 -6 10 -9
7 -10 -11 -1 -14 -1 -29 0 -34 1 -5 -17 -6 -39 -3 -34 4 -39 3 -30 -8 16 -19
5 -32 -26 -32 -18 0 -28 6 -31 18 -3 11 -9 19 -12 19 -17 0 -19 -14 -5 -34 13
-21 12 -24 -10 -43 -21 -19 -25 -19 -30 -6 -4 9 -4 23 -1 32 4 13 -2 17 -23
18 -15 0 -19 -1 -9 -4 10 -3 16 -10 14 -16 -2 -7 0 -22 4 -34 5 -13 4 -25 -2
-28 -5 -4 -7 -11 -3 -16 10 -17 -35 -57 -57 -52 -16 4 -18 11 -13 43 5 33 3
40 -17 51 -23 12 -24 11 -6 -8 16 -19 16 -20 -1 -36 -10 -10 -30 -17 -43 -17
-63 -1 -71 -2 -65 -8 4 -3 23 -7 42 -9 19 -1 45 -10 59 -21 l24 -19 -78 -21
c-43 -11 -87 -19 -97 -16 -10 2 -41 5 -69 7 -45 2 -50 4 -49 25 1 27 -12 29
-19 2 -3 -11 -12 -20 -20 -20 -8 0 -43 -13 -76 -29 -49 -23 -73 -28 -126 -27
-45 1 -69 6 -74 15 -8 12 -12 12 -26 -3 -12 -12 -21 -14 -30 -6 -9 8 -17 4
-28 -14 -12 -17 -22 -23 -37 -19 -15 4 -18 9 -11 16 6 6 11 16 11 21 0 6 -5 4
-10 -4 -5 -8 -10 -10 -10 -5 0 6 5 17 10 25 6 10 10 11 10 3 0 -19 18 -15 22
5 6 28 -3 52 -21 52 -14 0 -14 2 -1 10 13 8 12 10 -2 10 -10 0 -18 -4 -18 -10
0 -5 -7 -10 -15 -10 -18 0 -20 -17 -3 -22 10 -4 10 -16 0 -56 -6 -28 -9 -60
-6 -69 5 -14 4 -15 -4 -4 -5 7 -15 10 -21 7 -6 -4 -11 -2 -11 5 0 9 -3 9 -14
0 -11 -9 -15 -9 -19 1 -4 10 -7 10 -18 -1 -8 -8 -9 -11 -3 -8 7 4 15 0 18 -8
3 -9 1 -15 -7 -14 -24 3 -35 -1 -41 -17 -3 -8 -2 -12 4 -9 21 13 9 -9 -17 -32
-17 -14 -37 -22 -50 -20 -16 3 -20 0 -15 -11 3 -10 1 -13 -6 -8 -7 4 -12 2
-12 -4 0 -7 -7 -9 -16 -6 -8 3 -13 2 -10 -3 3 -5 -2 -15 -11 -22 -15 -12 -16
-12 -10 4 4 10 7 23 7 27 0 5 14 24 31 42 29 29 30 32 13 39 -10 3 -29 5 -41
4 -30 -3 -29 9 1 23 14 6 26 22 29 40 4 18 14 33 27 37 11 3 20 11 20 16 0 5
6 9 14 9 7 0 38 25 67 56 78 80 80 82 77 91 -5 15 30 55 42 48 6 -4 7 -12 3
-18 -11 -15 -10 -41 1 -47 11 -6 79 90 70 99 -4 3 -9 1 -11 -6 -2 -7 -11 -9
-19 -6 -18 7 -18 23 0 23 8 0 18 5 22 12 5 7 3 8 -7 3 -12 -8 -12 -6 0 8 15
18 46 23 56 8 3 -5 0 -13 -7 -17 -6 -4 -14 -2 -16 4 -2 7 -8 12 -13 12 -6 0
-5 -8 1 -20 8 -16 15 -18 29 -10 10 5 21 17 25 25 3 9 2 13 -4 10 -6 -3 -10
-2 -10 3 0 6 7 12 15 16 8 3 15 1 15 -5 0 -7 7 -8 18 -4 9 4 25 7 35 7 10 0
15 4 11 10 -4 6 -1 9 7 6 26 -9 50 11 43 36 -3 13 -1 27 5 31 6 3 8 11 5 17
-4 7 -2 8 4 4 7 -4 9 -18 6 -33 l-7 -26 49 34 c27 19 50 37 52 41 5 11 81 30
91 23 16 -9 60 16 54 31 -3 8 1 14 10 14 8 0 17 4 19 8 4 10 85 52 99 52 6 0
7 -5 3 -11 -7 -12 15 -7 69 16 28 12 29 13 11 24 -16 9 -17 12 -4 21 12 8 9
10 -12 10 -16 0 -28 5 -28 10 0 6 7 10 15 10 18 0 20 17 3 23 -13 4 53 20 127
31 28 4 34 3 20 -3 -19 -8 -18 -10 9 -20 15 -6 33 -10 40 -9 6 1 21 -2 34 -6
18 -6 29 0 56 29 l34 36 -46 -5 c-44 -5 -45 -5 -12 4 19 5 63 11 97 13 34 1
65 6 69 10 10 10 14 9 14 -3z m1207 -166 c3 3 1 6 -5 6 -7 0 -12 5 -12 11 0 6
9 9 20 6 11 -3 20 -1 20 4 0 5 5 9 10 9 6 0 10 -7 10 -15 0 -11 8 -13 33 -10
21 4 26 3 14 -3 -16 -7 -10 -13 36 -45 54 -38 81 -45 92 -27 8 13 -34 49 -57
50 -10 0 -18 5 -18 10 0 16 8 13 76 -32 51 -34 64 -47 60 -63 -19 -84 -19 -83
13 -99 34 -18 66 -22 41 -6 -8 5 -10 10 -5 10 18 0 36 -16 51 -45 18 -35 18
-37 -3 -33 -10 2 -18 12 -18 23 0 14 -9 21 -35 26 -48 10 -51 5 -28 -39 17
-31 27 -37 57 -40 19 -1 40 -7 45 -12 15 -15 24 -12 22 7 -1 21 40 31 57 14 8
-8 3 -11 -18 -11 -37 0 -21 -19 21 -26 89 -14 139 -16 127 -4 -6 7 -26 14 -45
15 -18 2 -40 4 -48 5 -8 1 -4 5 10 9 14 4 35 4 48 0 28 -11 30 10 2 34 -14 12
-38 17 -76 17 -36 0 -53 4 -49 11 4 6 1 10 -6 8 -31 -4 -42 3 -16 11 15 5 42
4 63 -2 45 -12 49 -8 23 25 -17 22 -18 27 -5 27 9 0 16 -7 16 -15 0 -11 8 -13
30 -9 23 5 38 0 70 -26 23 -18 43 -30 46 -28 2 3 -2 11 -11 18 -8 7 -15 19
-15 26 0 7 -12 20 -27 28 -16 8 -24 15 -20 16 10 0 50 -20 57 -29 17 -20 52
-31 70 -21 28 15 25 20 -7 14 -16 -2 -35 0 -43 6 -13 9 -13 11 0 20 12 8 11
10 -7 10 -37 0 -35 17 3 23 30 5 54 -3 148 -50 190 -95 377 -215 564 -360 45
-35 82 -70 82 -77 0 -8 8 -20 18 -27 15 -13 16 -12 3 4 -30 38 8 13 77 -50 70
-65 92 -102 55 -89 -16 5 -16 5 -2 -6 9 -7 19 -20 22 -28 4 -10 6 -8 4 6 -4
43 22 25 134 -92 101 -104 204 -227 279 -334 33 -47 64 -90 70 -97 5 -6 35
-50 65 -98 55 -85 55 -86 36 -106 -15 -16 -17 -27 -11 -50 5 -16 9 -33 9 -37
3 -22 13 -41 26 -46 9 -3 12 0 8 10 -4 12 0 14 23 8 39 -9 39 -10 19 -40 -9
-15 -13 -24 -7 -20 17 10 33 -19 24 -44 -6 -16 -11 -20 -16 -11 -4 6 -5 18 -2
26 3 9 -1 16 -12 17 -45 4 -57 3 -63 -4 -3 -5 -18 3 -34 16 -28 24 -70 42 -60
26 8 -13 -26 -21 -41 -9 -9 7 -19 7 -34 -1 -18 -10 -21 -19 -18 -52 3 -37 2
-39 -19 -35 -24 4 -33 -17 -10 -26 7 -4 6 -6 -4 -6 -11 -1 -16 -9 -15 -25 0
-15 7 -24 16 -24 40 3 70 -3 84 -18 20 -19 11 -40 -10 -24 -7 7 -32 14 -55 16
l-42 4 6 -36 c7 -41 -7 -42 -32 -3 -15 23 -15 23 2 10 15 -12 17 -11 17 2 0 8
-4 17 -9 19 -5 2 -11 21 -14 43 -2 23 -9 39 -15 37 -7 -1 -12 4 -12 10 0 9 -2
10 -8 2 -4 -7 -16 -13 -26 -15 -24 -5 -34 -29 -12 -29 8 0 20 -9 26 -20 6 -11
7 -20 3 -20 -4 0 1 -6 12 -13 10 -8 15 -19 11 -25 -4 -7 -1 -12 6 -12 7 0 21
-14 30 -30 14 -24 14 -30 3 -30 -7 0 -16 8 -18 18 -3 9 -4 -1 -4 -23 1 -22 -2
-51 -6 -65 -4 -14 -4 -19 -1 -12 3 6 12 12 20 12 7 0 16 12 20 28 3 15 7 32 9
38 2 6 -2 17 -8 24 -9 9 -9 11 3 10 34 -5 51 0 44 13 -5 9 -4 9 6 0 11 -10 17
-10 29 1 11 9 23 11 38 6 17 -7 21 -15 16 -40 -3 -23 -1 -30 7 -25 7 4 10 1 9
-6 -3 -20 19 -69 31 -69 18 0 10 -18 -11 -23 -15 -4 -19 -2 -15 8 3 9 0 12
-10 8 -8 -3 -13 -12 -10 -20 3 -8 6 -19 6 -25 0 -6 6 -8 13 -5 6 3 19 8 28 11
10 5 16 1 16 -9 0 -9 -6 -14 -12 -11 -7 2 -12 -4 -11 -17 1 -12 7 -21 13 -20
5 1 21 -9 33 -22 13 -14 18 -25 12 -25 -7 0 -12 -4 -12 -10 0 -15 16 -12 33 5
13 12 16 12 21 -8 5 -18 8 -19 15 -7 9 12 11 12 17 -3 3 -9 11 -17 16 -17 6 0
3 12 -7 26 -12 19 -13 25 -3 22 7 -3 17 -18 22 -34 5 -16 15 -41 22 -56 8 -14
14 -38 14 -53 0 -14 4 -24 9 -21 5 3 6 21 2 38 -4 18 -6 61 -6 95 1 53 5 65
28 89 15 15 27 23 27 19 0 -4 7 -2 15 5 9 7 13 21 10 31 -4 13 -1 19 8 19 10
0 13 13 13 48 -2 56 -8 68 -40 74 -27 5 -37 -12 -39 -68 -1 -40 -26 -36 -50 9
-28 55 -30 81 -7 102 14 13 17 21 9 26 -8 5 2 21 30 48 l41 41 26 -58 c98
-220 156 -392 212 -622 23 -91 43 -182 47 -202 6 -37 5 -38 -19 -28 -26 10
-41 -6 -30 -35 4 -10 0 -13 -15 -10 -29 5 -27 -20 4 -49 14 -13 25 -28 25 -35
0 -18 18 -13 33 10 14 19 15 20 20 2 14 -51 17 -92 6 -98 -8 -6 -8 -10 1 -15
10 -6 25 -130 16 -130 -1 0 -13 12 -27 27 -13 14 -18 23 -11 19 8 -5 12 -1 12
11 0 15 2 16 10 3 7 -10 10 -11 10 -2 0 7 -6 15 -14 18 -8 3 -17 15 -20 27 -4
16 -8 19 -17 10 -8 -8 -8 -16 0 -32 8 -13 8 -21 2 -21 -7 0 -6 -9 1 -25 7 -16
8 -29 2 -35 -6 -6 -10 -2 -12 13 -4 44 -8 57 -20 69 -9 9 -12 3 -12 -28 0 -21
-7 -52 -16 -69 -9 -16 -20 -43 -25 -60 l-8 -30 22 26 c12 14 27 35 34 45 11
17 12 15 11 -16 -1 -19 -4 -39 -7 -45 -3 -5 -6 -12 -6 -15 -5 -36 -48 -95 -63
-88 -4 2 -25 14 -47 28 -30 19 -35 26 -22 28 12 2 16 9 13 19 -3 8 -6 19 -6
24 0 6 -3 8 -8 5 -12 -7 -80 28 -96 49 -8 11 -12 25 -9 32 3 7 2 21 -3 31 -4
9 -8 21 -8 27 -1 5 -10 12 -21 15 -11 3 -21 13 -21 23 -2 33 -4 37 -14 37 -5
0 -10 -11 -10 -25 0 -13 -9 -32 -19 -42 -27 -25 -20 -87 12 -122 27 -29 40
-68 25 -77 -5 -3 -8 -15 -5 -25 3 -11 1 -19 -3 -19 -18 0 -70 53 -70 71 0 10
-4 19 -10 19 -13 0 -44 49 -37 57 4 3 13 1 21 -6 11 -9 15 -8 20 5 5 12 -3 27
-24 46 -36 32 -31 52 11 46 16 -3 25 0 22 5 -3 5 0 13 7 17 8 5 15 19 17 32 1
13 5 35 8 51 2 15 0 27 -6 27 -6 0 -7 5 -4 10 3 6 -1 10 -10 10 -9 0 -13 -4
-10 -10 4 -6 -6 -10 -24 -10 -16 0 -33 -4 -36 -10 -3 -5 -1 -10 5 -10 6 0 8
-5 4 -11 -4 -8 -9 -7 -15 2 -4 8 -5 17 0 22 4 4 6 19 3 32 -3 16 -9 22 -20 18
-12 -5 -14 -2 -8 13 5 10 9 24 9 30 0 6 6 11 14 11 10 0 10 -3 0 -15 -10 -13
-9 -14 10 -3 24 12 29 61 8 61 -20 0 -45 -25 -50 -50 -3 -14 -9 -26 -13 -28
-34 -11 -43 -28 -31 -59 9 -28 13 -31 25 -19 16 16 19 30 5 21 -5 -3 -13 0
-17 6 -5 8 -3 9 6 4 9 -6 10 -2 5 16 -7 21 -6 22 7 11 9 -7 15 -28 15 -50 0
-58 13 -104 28 -98 9 3 12 0 8 -9 -3 -8 -9 -13 -13 -10 -15 9 -19 -25 -6 -50
9 -18 16 -22 19 -13 4 10 8 10 16 -2 8 -12 5 -17 -16 -26 -21 -9 -23 -13 -11
-20 9 -5 19 -20 23 -34 7 -24 6 -24 -21 6 -16 17 -40 38 -53 47 -24 16 -42 75
-19 61 6 -4 8 -2 5 3 -7 10 20 28 36 25 4 -1 7 3 7 9 0 6 -6 9 -14 6 -21 -8
-36 13 -36 52 0 55 -9 31 -11 -30 -2 -43 -7 -59 -27 -77 -13 -13 -22 -26 -19
-29 3 -3 2 -15 -2 -27 -9 -23 7 -46 34 -46 8 0 15 -8 15 -17 0 -9 2 -14 5 -11
11 10 -7 58 -21 58 -21 0 -22 46 -2 65 7 7 9 1 4 -18 -5 -21 -4 -27 5 -21 7 4
9 3 6 -3 -4 -6 -1 -16 7 -22 8 -7 16 -8 18 -4 3 4 3 2 2 -4 -2 -7 5 -17 14
-22 9 -6 13 -11 7 -11 -5 -1 6 -10 25 -21 l35 -20 -35 6 c-19 2 -29 2 -22 -1
6 -3 10 -10 7 -15 -4 -5 1 -6 9 -3 18 7 23 -21 6 -31 -5 -3 -10 -1 -10 4 0 6
-7 11 -16 11 -8 0 -12 5 -8 11 4 8 0 8 -15 0 -31 -17 -23 -57 11 -53 17 2 31
-6 47 -27 16 -20 30 -28 47 -26 31 3 31 -9 0 -23 -17 -8 -27 -7 -36 1 -10 10
-10 7 0 -11 13 -27 13 -27 -17 -36 -14 -4 -24 -2 -30 7 -7 12 -12 11 -28 -6
-17 -17 -17 -19 -2 -14 10 4 17 1 18 -6 0 -8 2 -9 5 -1 6 15 43 6 40 -9 -2 -7
-1 -9 1 -4 3 4 9 4 14 1 6 -3 19 2 29 11 15 13 22 14 37 5 16 -10 16 -11 -4
-7 -13 3 -23 1 -23 -4 0 -5 7 -9 15 -9 8 0 15 -5 15 -11 0 -6 8 -8 18 -5 15 5
25 -5 46 -44 15 -27 31 -50 36 -50 5 0 7 6 4 14 -3 8 0 17 7 22 8 4 10 3 5 -4
-10 -16 0 -15 32 4 25 15 25 15 8 0 -11 -9 -15 -16 -8 -16 6 0 18 9 26 21 8
12 20 19 28 16 21 -7 48 12 48 35 0 15 5 19 20 15 15 -4 24 3 36 29 11 23 22
33 31 30 8 -4 19 -6 24 -6 20 0 6 -26 -36 -67 -25 -24 -52 -43 -61 -43 -9 0
-28 -7 -42 -14 -33 -18 -90 -42 -118 -50 -17 -5 -24 1 -40 36 -10 23 -24 43
-31 46 -14 4 -53 -33 -53 -50 0 -6 7 -3 15 8 8 10 15 15 15 11 0 -5 -9 -20
-20 -34 -12 -16 -20 -20 -21 -12 0 8 -5 4 -11 -9 -8 -15 -21 -22 -42 -24 -40
-2 -77 1 -96 8 -13 4 -13 6 0 15 11 8 1 9 -36 5 -47 -4 -52 -3 -66 22 -9 15
-37 49 -61 75 -35 37 -48 44 -54 33 -4 -7 -16 -15 -26 -17 -10 -2 -26 -17 -35
-34 -9 -16 -23 -34 -29 -38 -7 -4 -13 -13 -13 -18 0 -6 4 -8 8 -5 5 3 28 -22
53 -54 24 -33 50 -60 57 -60 6 0 12 -4 12 -9 0 -5 13 -14 30 -21 28 -12 47
-41 37 -57 -3 -5 13 -28 35 -53 22 -25 35 -35 28 -22 -15 31 -9 97 9 97 18 0
33 -48 31 -99 -1 -30 2 -37 14 -33 8 3 16 1 19 -6 2 -7 16 -1 36 16 18 15 39
27 47 27 8 0 14 6 14 13 0 7 9 18 20 25 11 7 20 21 20 31 0 10 7 32 15 47 8
16 15 36 15 44 1 8 7 26 15 40 14 25 14 24 15 -19 0 -46 34 -131 52 -131 15 0
38 -27 38 -44 0 -9 4 -16 10 -16 5 0 6 8 3 18 -6 15 -4 15 9 4 18 -15 58 -1
58 19 0 7 13 9 30 7 26 -4 29 -2 24 14 -3 10 -1 18 5 18 15 0 14 -25 -4 -93
-8 -32 -15 -69 -15 -84 0 -19 -4 -24 -16 -19 -14 5 -15 -3 -13 -62 3 -58 0
-72 -19 -96 -12 -16 -22 -39 -22 -52 0 -13 -13 -38 -29 -56 -15 -18 -31 -43
-35 -55 -4 -11 -22 -33 -41 -48 -19 -14 -35 -32 -35 -38 0 -7 -13 -24 -29 -38
-15 -13 -34 -42 -42 -62 -9 -25 -21 -40 -37 -44 -12 -3 -20 -8 -17 -11 3 -3
-9 -13 -26 -22 -17 -8 -32 -19 -32 -25 -1 -14 -21 -34 -29 -29 -4 2 -10 -1
-14 -7 -4 -7 -3 -9 4 -5 6 3 13 2 16 -3 3 -5 -1 -11 -8 -14 -8 -3 -20 -16 -27
-29 -11 -21 -10 -21 27 6 l39 29 -29 -31 c-20 -22 -36 -30 -48 -26 -10 3 -18
1 -18 -5 0 -6 -19 -16 -41 -23 -32 -9 -37 -13 -23 -18 15 -6 13 -8 -11 -14
-16 -4 -34 -14 -40 -23 -8 -11 -17 -13 -26 -7 -8 5 -21 9 -29 10 -8 1 -25 2
-37 3 -16 1 -21 6 -17 16 5 11 2 13 -12 8 -12 -4 -15 -3 -10 5 11 17 -5 15
-26 -5 -10 -9 -21 -13 -25 -9 -4 4 -1 11 7 16 8 6 10 10 4 10 -5 0 -15 -5 -22
-12 -9 -9 -12 -8 -12 5 0 9 8 17 18 17 15 0 15 2 2 11 -11 8 -6 9 23 7 20 -2
37 0 37 4 0 4 -4 8 -9 8 -5 0 -8 11 -5 24 3 20 -1 25 -18 28 -15 2 -24 11 -26
26 -2 12 -8 22 -14 22 -6 0 -5 6 2 15 11 13 10 18 -9 31 -15 11 -19 20 -13 27
5 7 6 20 3 30 -6 18 -8 18 -21 2 -11 -14 -11 -20 -1 -37 9 -15 10 -23 2 -31
-8 -8 -11 -5 -11 9 0 11 -7 29 -16 40 -15 18 -15 18 -10 -11 3 -16 9 -41 12
-54 5 -17 4 -22 -4 -17 -7 4 -15 0 -18 -8 -3 -9 -10 -16 -15 -16 -6 0 -5 9 1
21 6 11 9 25 6 32 -2 7 -5 4 -5 -5 -1 -25 -21 -23 -21 2 0 11 7 20 15 20 9 0
15 9 15 21 0 17 -3 19 -14 10 -11 -9 -15 -7 -19 10 -4 14 -11 20 -21 16 -8 -3
-17 1 -20 9 -10 26 -7 36 10 30 10 -4 13 -2 8 6 -4 6 -6 35 -5 65 1 29 -2 53
-6 53 -19 -1 -36 -20 -39 -46 -1 -16 -8 -30 -13 -32 -6 -2 -11 -10 -11 -18 0
-15 -22 -19 -34 -6 -4 4 -13 7 -19 7 -7 0 -12 16 -13 35 -1 19 -4 57 -8 83 -3
26 -2 56 3 66 13 24 -4 53 -18 31 -8 -12 -13 -11 -30 9 -15 17 -18 28 -11 36
11 13 -11 40 -23 28 -4 -3 -7 -1 -7 5 0 7 9 12 20 12 11 0 20 7 20 16 0 8 5
12 10 9 19 -11 10 10 -9 25 -14 10 -17 18 -11 30 14 25 -47 13 -65 -13 -17
-25 -20 -15 -5 14 11 20 -3 28 -15 9 -3 -5 -14 -10 -25 -10 -10 0 -21 -7 -24
-16 -5 -12 -14 -14 -38 -8 -29 6 -31 5 -19 -10 7 -9 9 -16 3 -16 -14 0 -24 32
-13 43 5 5 21 10 35 10 14 1 26 6 26 11 0 4 -9 6 -21 3 -16 -4 -24 1 -35 29
-14 34 -28 40 -78 34 -13 -1 -17 3 -13 14 4 10 1 16 -8 16 -18 0 -20 -40 -2
-40 6 0 21 -8 32 -16 19 -16 19 -16 -5 -9 -28 8 -26 3 8 -14 12 -7 22 -8 21
-4 -4 22 2 43 13 43 6 0 9 -3 6 -6 -4 -3 -2 -19 2 -35 6 -21 5 -31 -6 -37 -12
-7 -11 -12 6 -30 20 -21 77 -32 65 -12 -3 6 3 10 14 10 12 0 21 -5 21 -11 0
-5 4 -7 10 -4 6 3 10 3 11 -2 0 -4 2 -16 4 -25 2 -10 -1 -18 -6 -18 -5 0 -9 5
-9 10 0 13 -37 13 -45 0 -4 -6 -10 -8 -15 -5 -4 3 -10 -11 -12 -30 -3 -29 -1
-35 15 -35 10 0 16 -4 13 -9 -3 -4 6 -6 19 -3 14 2 25 9 25 14 0 6 -7 8 -15 5
-8 -4 -16 -3 -19 1 -9 14 33 11 45 -4 6 -8 8 -14 5 -14 -4 0 -2 -9 4 -21 7
-12 18 -18 26 -15 11 4 12 2 4 -14 -7 -13 -6 -22 3 -32 24 -26 47 -86 34 -91
-7 -3 2 -8 20 -12 22 -5 32 -14 36 -31 2 -14 -1 -24 -7 -24 -8 0 -8 -2 0 -8 6
-4 13 -15 17 -25 5 -12 13 -16 26 -12 25 8 91 -68 91 -104 l-1 -26 -17 24
c-36 51 -81 91 -101 91 -25 0 -70 46 -71 72 0 9 -4 20 -10 23 -5 3 -9 21 -8
39 2 44 -55 126 -97 139 -38 12 -65 35 -59 51 2 6 -9 26 -25 43 -16 18 -26 34
-23 37 3 3 0 6 -6 6 -6 0 -17 10 -23 23 -11 20 -11 21 4 8 10 -8 17 -9 17 -3
0 6 -10 14 -22 18 -23 7 -48 28 -48 39 0 15 -63 62 -79 58 -15 -4 -17 3 -13
64 3 48 1 65 -7 58 -6 -6 -12 -42 -14 -80 -2 -39 -9 -71 -15 -73 -17 -5 -82
50 -82 71 0 9 -5 17 -10 17 -6 0 -19 14 -29 31 -12 19 -21 27 -26 19 -4 -6 -1
-19 7 -28 8 -9 20 -30 28 -46 8 -16 27 -38 43 -49 15 -12 27 -29 27 -39 0 -10
6 -21 14 -24 8 -3 17 -17 20 -30 9 -34 132 -210 153 -218 14 -6 15 -9 4 -16
-12 -7 -12 -14 0 -46 8 -22 23 -41 34 -44 35 -9 75 -42 75 -60 0 -10 7 -23 15
-30 8 -6 14 -15 13 -18 -1 -4 2 -23 6 -42 3 -19 8 -52 11 -72 5 -47 21 -78 40
-78 9 0 12 -6 9 -15 -5 -11 -2 -14 12 -9 18 7 18 6 0 -12 -13 -14 -20 -15 -23
-6 -3 6 -9 10 -14 6 -5 -3 -9 3 -9 14 0 10 -3 22 -7 26 -5 4 -8 11 -9 14 -4
33 -18 89 -25 98 -5 6 -7 18 -4 26 3 8 -1 28 -10 44 -8 16 -15 34 -15 40 0 6
-7 17 -16 25 -13 10 -17 10 -25 -2 -7 -12 -10 -12 -18 0 -6 9 -11 10 -15 3
-10 -17 -36 -2 -36 19 0 10 -5 19 -11 19 -6 0 -8 -8 -4 -19 3 -11 1 -22 -5
-26 -5 -3 -10 -22 -10 -41 0 -27 -5 -37 -22 -43 -33 -12 -37 -3 -8 19 l25 20
-38 0 c-23 0 -36 4 -32 10 3 6 1 10 -4 10 -17 0 -13 -18 7 -29 11 -7 13 -13 6
-18 -6 -5 -13 -16 -17 -26 -6 -15 -3 -17 15 -11 16 5 20 3 15 -9 -6 -15 20
-33 31 -22 3 3 1 5 -5 5 -16 0 -4 38 14 44 11 5 13 2 9 -9 -8 -21 24 -71 34
-54 4 6 5 29 3 50 -4 25 -2 39 6 39 6 0 11 5 11 11 0 5 -4 7 -10 4 -5 -3 -10
-1 -10 5 0 7 6 10 14 7 8 -3 20 1 26 9 20 23 25 17 27 -33 1 -27 2 -55 3 -63
2 -16 -4 -45 -15 -72 -5 -13 -2 -15 17 -11 20 5 19 2 -11 -26 -19 -17 -39 -31
-45 -32 -6 0 -2 -4 9 -9 11 -5 14 -9 8 -9 -7 -1 -13 -6 -13 -12 0 -5 5 -7 10
-4 6 3 10 0 11 -7 0 -7 5 -4 10 7 9 17 20 21 64 21 57 -1 61 -10 11 -32 -17
-7 -25 -13 -18 -14 19 0 4 -20 -16 -20 -9 0 -25 -12 -35 -25 -22 -31 -15 -32
26 -3 18 12 26 15 20 8 -19 -21 -16 -47 7 -53 13 -3 20 0 20 9 0 8 7 14 15 14
18 0 19 -4 3 -30 -11 -17 -10 -22 2 -30 24 -15 26 -13 25 40 0 27 3 50 7 50 3
0 8 8 11 18 2 9 3 -4 3 -30 0 -27 -4 -48 -9 -48 -4 0 -3 -9 3 -20 11 -20 9
-21 -22 -24 -7 -1 -16 -5 -20 -11 -5 -6 -8 -5 -8 3 0 6 -10 22 -21 33 -19 19
-27 20 -58 13 -20 -6 -35 -15 -33 -22 2 -10 -3 -10 -18 -2 -11 6 -20 16 -20
22 0 6 6 5 17 -3 15 -13 15 -12 4 10 -10 19 -18 22 -42 17 -23 -4 -29 -2 -29
12 -1 9 -7 2 -15 -17 -19 -43 -19 -46 8 -59 l22 -11 -22 0 c-13 -1 -23 3 -23
9 0 5 -6 8 -12 6 -7 -1 -10 -1 -5 1 14 9 7 23 -13 23 -17 0 -19 -5 -14 -25 5
-18 2 -25 -9 -25 -10 0 -13 7 -10 18 2 10 -3 24 -11 31 -22 19 -20 31 5 28 12
-1 24 3 26 9 5 16 -43 24 -58 10 -9 -8 -10 -8 -5 1 3 6 2 14 -4 18 -5 3 -10
16 -10 28 0 16 -3 18 -12 9 -9 -9 -9 -17 -1 -34 13 -27 14 -58 1 -74 -4 -6 -6
-19 -2 -27 5 -15 8 -15 21 -1 9 8 13 24 10 35 -5 20 -5 20 14 3 13 -12 16 -20
8 -24 -8 -5 -7 -13 2 -27 10 -17 9 -23 -10 -42 -11 -11 -21 -28 -21 -36 0 -8
-4 -15 -10 -15 -5 0 -9 -3 -9 -7 3 -20 -2 -34 -10 -28 -6 3 -6 18 0 37 5 18 5
34 1 37 -5 4 -11 14 -15 24 -3 9 -11 17 -17 17 -6 0 -8 -5 -4 -11 3 -6 7 -31
8 -55 2 -43 1 -45 -24 -39 l-25 5 25 -15 25 -15 -27 6 c-17 4 -28 2 -28 -4 0
-19 12 -42 22 -42 5 0 6 5 3 10 -3 6 -1 10 5 10 7 0 10 -6 7 -12 -2 -7 -13
-13 -24 -13 -12 0 -25 -3 -29 -7 -4 -4 -13 -3 -21 3 -10 9 -13 7 -13 -10 0
-22 14 -28 25 -11 8 13 52 13 60 0 4 -6 -8 -10 -27 -10 -19 0 -40 -6 -46 -12
-10 -10 -15 -10 -23 2 -5 8 -8 22 -6 30 1 8 -10 27 -24 43 l-27 27 1 -34 c1
-21 5 -32 11 -29 6 4 8 3 4 -2 -4 -4 -2 -15 5 -23 10 -13 9 -15 -8 -8 -35 13
-40 12 -37 -12 2 -19 0 -21 -11 -10 -7 7 -16 21 -20 31 -8 21 -37 23 -37 2 0
-25 -64 -85 -80 -75 -7 4 -19 6 -27 3 -18 -7 -17 25 2 43 8 9 15 24 15 33 0
40 -59 51 -75 14 -6 -13 -19 -23 -30 -23 -12 0 -26 -5 -33 -12 -9 -9 -12 -9
-13 2 0 10 -4 7 -9 -5 -8 -19 -9 -19 -9 3 -1 19 -3 21 -15 10 -7 -7 -11 -18
-9 -25 3 -7 -3 -10 -16 -6 -12 3 -21 10 -21 15 0 5 -4 6 -10 3 -5 -3 -10 -2
-10 4 0 16 -33 18 -62 4 -16 -7 -28 -16 -28 -19 0 -2 15 3 33 12 28 15 31 15
19 1 -8 -9 -11 -21 -7 -27 3 -6 -3 -10 -15 -10 -13 0 -19 -4 -14 -11 4 -7 -1
-9 -12 -7 -11 2 -18 11 -18 21 1 13 -6 17 -28 17 -26 0 -29 2 -18 15 7 9 10
19 6 22 -4 4 -11 1 -15 -6 -5 -7 -14 -10 -21 -6 -7 4 -11 2 -9 -6 3 -26 -1
-39 -12 -39 -5 0 -7 5 -3 12 5 8 0 9 -15 5 -16 -4 -21 -1 -19 11 2 11 -3 17
-14 16 -11 -1 -15 4 -12 15 3 9 -1 6 -7 -6 -7 -14 -21 -23 -35 -23 -13 0 -25
-4 -29 -10 -3 -5 -12 -7 -21 -3 -9 3 -26 -6 -43 -26 -29 -32 -51 -40 -51 -18
-1 7 -6 5 -14 -6 -8 -10 -20 -15 -30 -11 -9 3 -23 1 -31 -6 -8 -7 -15 -9 -15
-5 0 4 -11 0 -25 -9 -23 -15 -24 -15 -18 1 7 17 5 17 -21 -1 -29 -18 -29 -18
-23 3 4 18 2 21 -14 16 -10 -4 -19 -2 -19 3 0 5 -20 8 -44 8 -24 -1 -42 2 -39
6 2 5 -12 8 -31 8 -20 0 -36 -5 -36 -11 0 -8 -13 -10 -37 -6 -33 5 -36 4 -20
-7 25 -19 21 -26 -12 -26 -17 0 -33 -4 -36 -10 -9 -15 -28 -12 -22 4 3 8 0 22
-8 32 -10 15 -16 16 -27 6 -12 -10 -22 -7 -49 11 -19 13 -33 28 -32 33 1 6
-10 11 -24 12 -14 1 -32 7 -39 13 -8 6 -25 8 -39 5 -16 -4 -25 -2 -25 5 0 8
-11 9 -31 5 -22 -4 -29 -2 -27 6 7 21 -17 36 -48 31 -22 -3 -26 -2 -14 6 8 6
11 11 5 11 -5 1 4 7 20 14 17 7 33 12 38 12 9 -1 39 55 32 62 -3 3 -5 0 -5 -6
0 -20 -16 -13 -17 7 -1 14 3 18 13 14 17 -6 19 8 3 24 -8 8 -7 13 2 18 8 5 10
4 5 -3 -4 -7 -3 -12 3 -12 16 0 24 46 11 69 -6 12 -17 21 -25 21 -40 0 -76
109 -37 111 14 0 14 2 2 6 -8 3 -22 11 -30 18 -19 15 -70 25 -70 14 0 -5 -5
-9 -11 -9 -6 0 -8 9 -4 22 6 17 4 20 -9 15 -9 -4 -16 -2 -16 3 0 6 6 10 13 11
9 0 9 2 -1 6 -7 3 -23 -3 -35 -13 -18 -16 -20 -16 -8 -2 15 20 8 48 -11 48
-17 0 -48 -36 -48 -56 0 -9 -5 -12 -12 -8 -9 5 -9 2 1 -9 12 -15 10 -17 -17
-17 -24 0 -31 5 -36 25 -7 29 -26 24 -26 -6 0 -10 -5 -19 -11 -19 -6 0 -9 7
-6 15 7 17 -8 29 -24 19 -8 -4 -7 -9 2 -15 11 -7 10 -9 -3 -9 -10 0 -18 7 -18
16 0 8 -4 13 -8 10 -4 -2 -8 7 -7 22 0 22 6 28 29 32 17 3 29 7 27 10 -2 3 3
17 10 32 10 24 17 27 56 25 38 -1 43 -4 39 -21 -3 -11 -1 -27 5 -37 9 -17 11
-17 39 -1 16 9 30 21 30 25 0 5 5 5 10 2 6 -3 10 -2 10 3 0 5 10 20 23 34 19
20 25 22 36 11 13 -14 35 -8 26 8 -5 8 6 13 26 11 3 0 10 8 17 19 10 16 9 19
-4 19 -9 0 -23 -8 -30 -17 -13 -16 -14 -15 -10 10 3 15 0 27 -5 27 -5 0 -9 7
-9 16 0 10 5 14 15 10 52 -21 50 -21 35 -4 -8 9 -17 16 -20 16 -28 -1 -41 6
-46 28 -4 16 -12 23 -20 20 -8 -3 -14 -1 -14 5 0 6 -7 3 -16 -5 -8 -9 -20 -16
-25 -16 -16 0 -22 29 -9 45 10 12 9 15 -4 15 -19 0 -20 5 -6 29 7 14 4 24 -15
41 -14 13 -25 18 -25 12 0 -6 -6 -9 -14 -6 -10 4 -13 -3 -12 -27 1 -18 8 -35
16 -38 13 -5 14 -12 4 -40 l-11 -34 -7 41 c-9 57 -26 63 -28 10 0 -24 0 -51 0
-61 1 -11 -3 -17 -10 -14 -8 2 -13 19 -12 40 1 20 -2 34 -7 32 -4 -3 -9 1 -12
7 -6 19 -15 7 -22 -31 -4 -21 -2 -30 5 -26 13 8 13 8 -8 -51 -14 -42 -20 -49
-30 -37 -8 7 -9 13 -2 13 5 0 10 4 10 8 0 5 -7 9 -16 9 -11 0 -14 -7 -9 -24 4
-17 1 -23 -11 -23 -10 0 -14 5 -10 15 3 10 -1 15 -13 15 -24 0 -46 25 -31 35
7 4 10 16 7 26 -3 11 -1 19 3 19 5 0 11 -14 15 -30 4 -18 13 -30 23 -30 12 0
13 3 4 12 -15 15 -16 28 -2 28 6 0 10 -7 10 -15 0 -9 9 -15 23 -15 17 0 19 2
7 10 -12 7 -12 13 -1 33 7 14 10 30 6 36 -8 14 22 64 34 57 4 -3 13 11 20 30
7 18 17 34 22 34 5 0 8 10 5 23 -2 12 0 31 5 42 7 18 8 17 8 -6 1 -21 7 -28
31 -33 18 -3 35 -15 41 -28 10 -22 71 -58 97 -58 8 0 10 -9 6 -25 -5 -21 -3
-25 16 -25 11 0 18 -4 15 -10 -10 -16 7 -11 19 6 18 25 58 8 112 -47 63 -63
74 -76 74 -89 0 -5 5 -10 10 -10 16 0 12 27 -6 34 -8 3 -12 11 -8 17 5 8 10 7
16 -5 5 -8 18 -21 29 -27 19 -10 20 -9 8 13 -7 13 -14 37 -15 53 -1 17 -2 36
-3 43 -1 7 -5 11 -10 8 -5 -4 -7 2 -4 13 3 10 0 22 -6 25 -6 4 -11 16 -11 27
0 11 4 18 9 15 4 -3 16 1 27 8 15 11 16 17 6 29 -9 10 -10 17 -2 22 12 8 14
35 1 35 -12 0 -22 -54 -10 -58 18 -7 8 -23 -13 -20 -18 2 -25 -6 -39 -47 l-18
-50 -2 35 c-1 19 -2 46 -3 60 -1 19 -6 25 -23 24 -13 0 -23 3 -23 8 0 8 16 12
33 9 5 -1 6 3 2 9 -3 6 -11 8 -16 5 -5 -4 -9 -1 -9 4 0 6 7 11 15 11 8 0 15 5
15 10 0 6 7 10 16 10 8 0 12 5 9 10 -9 14 -62 13 -71 -2 -4 -6 -3 -8 4 -4 6 3
14 1 18 -5 5 -8 -10 -9 -52 -5 -84 10 -133 26 -150 50 -13 19 -14 18 -15 -19
0 -32 -2 -36 -9 -20 l-9 20 -1 -20 c-1 -18 -3 -17 -12 5 -6 14 -11 34 -10 45
1 16 0 17 -4 3 -3 -10 -9 -18 -14 -18 -5 0 -17 -3 -27 -6 -15 -6 -16 -4 -5 7
19 20 14 31 -8 19 -11 -6 -20 -8 -20 -5 0 3 -13 -2 -29 -11 -26 -15 -32 -16
-47 -3 -16 12 -17 12 -10 -1 4 -8 -7 1 -25 20 -17 19 -29 29 -25 23 4 -7 6
-13 4 -14 -2 0 -29 -2 -60 -5 -54 -6 -56 -5 -51 16 3 12 1 25 -6 29 -9 6 -7
12 5 22 14 11 16 11 10 0 -7 -10 -2 -12 22 -6 20 4 41 1 61 -10 22 -11 37 -13
49 -6 27 15 87 81 73 81 -7 0 -9 4 -6 10 3 5 -3 10 -13 10 -24 0 -38 30 -20
41 7 4 9 11 4 16 -7 8 -30 -23 -31 -41 0 -5 -8 -10 -18 -12 -13 -2 -17 2 -13
12 3 8 8 20 11 27 3 7 -3 21 -14 31 -15 14 -24 15 -40 6 -12 -6 -21 -7 -21 -1
0 5 7 11 15 15 8 3 15 9 15 14 0 12 -41 12 -64 -1 -12 -6 -29 -10 -38 -8 -10
1 -18 -3 -18 -8 0 -6 -9 -11 -21 -11 -13 0 -19 5 -16 13 3 9 -13 12 -60 12
-59 0 -67 3 -85 28 -11 15 -27 27 -36 27 -8 0 -13 3 -9 6 3 4 14 3 24 -1 21
-10 29 -12 44 -14 6 0 9 -8 5 -16 -4 -10 1 -15 15 -15 11 0 17 5 14 10 -4 6 5
20 19 31 31 24 34 39 6 32 -11 -3 -20 0 -20 6 0 6 -18 14 -40 17 -22 4 -37 10
-34 15 3 5 -4 9 -15 9 -22 0 -27 16 -12 38 6 10 10 8 14 -8 3 -13 10 -19 17
-15 6 4 9 13 6 21 -3 8 -1 14 5 14 6 0 9 -10 7 -22 -1 -13 2 -23 7 -23 6 0 9
6 9 12 -1 7 2 10 7 7 5 -3 9 -11 9 -18 0 -8 9 -16 20 -19 11 -3 20 0 20 6 0 6
3 7 7 4 3 -4 13 2 20 13 13 19 16 19 36 5 30 -21 47 -19 47 8 0 26 -50 85 -68
79 -7 -2 -12 -14 -12 -28 0 -17 -4 -22 -15 -18 -8 4 -15 12 -15 20 0 17 -12
18 -28 2 -9 -9 -12 -8 -12 5 0 9 3 16 8 16 19 -3 33 2 27 11 -3 6 1 7 9 4 9
-4 18 0 22 9 3 9 13 13 26 9 14 -3 19 -1 14 6 -7 11 6 17 27 13 11 -2 81 31
88 41 3 5 15 10 27 11 11 0 19 4 17 7 -2 3 0 12 6 20 7 12 9 12 9 -4 0 -15 3
-16 15 -6 8 7 15 19 15 27 0 8 5 11 10 8 6 -3 24 4 41 15 16 12 33 19 36 16 8
-8 -29 -36 -39 -30 -5 3 -8 0 -8 -6 0 -8 6 -9 18 -4 9 4 29 8 45 9 15 2 34 3
42 4 8 0 15 8 15 16 0 20 27 30 43 17 7 -6 37 -14 67 -18 30 -4 61 -11 68 -17
7 -5 15 -7 19 -3 3 3 1 6 -5 6 -7 0 -12 5 -12 11 0 7 10 9 25 7 14 -3 28 -1
31 4 3 4 10 5 16 2 8 -5 9 -1 5 10 -4 11 -3 15 4 10 22 -13 29 20 8 42 -19 21
-19 21 1 19 11 -1 23 -5 27 -10 5 -4 2 -5 -4 -1 -13 7 -18 -6 -7 -17 7 -7 84
31 96 48 4 6 8 2 8 -7 0 -10 -4 -18 -10 -18 -5 0 -10 -5 -10 -10 0 -6 7 -10
16 -8 10 2 19 -3 22 -11 3 -8 0 -11 -7 -7 -6 4 -11 2 -11 -5 0 -6 8 -9 20 -6
33 9 26 -40 -11 -74 -17 -16 -35 -29 -41 -29 -19 0 -3 -45 20 -55 12 -5 22
-13 22 -17 0 -4 7 -5 15 -2 10 4 15 0 15 -10 0 -9 12 -21 28 -26 15 -6 36 -15
46 -21 11 -6 47 -13 80 -14 34 -2 75 -11 91 -19 17 -9 37 -16 46 -16 10 0 20
-15 28 -40 13 -45 30 -55 104 -65 26 -4 78 -22 114 -41 44 -24 74 -33 89 -30
30 8 71 73 55 89 -6 6 -11 26 -11 43 0 25 8 39 37 63 21 17 44 31 53 31 8 0 2
-7 -15 -16 -37 -19 -64 -44 -48 -44 7 0 15 5 18 10 4 6 10 8 15 5 4 -3 13 2
20 10 7 8 21 15 31 15 11 0 19 7 19 16 0 9 -5 12 -12 8 -6 -4 -8 -3 -5 3 13
21 113 -2 120 -28 5 -19 12 -21 105 -24 18 0 37 -7 42 -15 7 -11 28 -15 72
-16 83 -1 188 -14 210 -25 19 -10 93 22 81 35 -4 4 0 4 10 0 12 -4 17 -1 17 9
0 9 5 19 12 23 7 5 9 2 5 -8 -3 -9 0 -21 6 -28 9 -10 8 -12 -5 -7 -10 3 -20 1
-24 -5 -4 -6 -3 -8 3 -5 5 4 19 -2 30 -13 12 -10 24 -16 27 -12 4 3 4 -1 1 -9
-3 -9 1 -22 10 -29 13 -11 15 -9 15 9 0 12 7 24 15 27 12 5 11 9 -5 27 -14 14
-17 24 -10 33 7 8 6 13 -4 17 -9 4 -13 1 -10 -6 2 -7 -4 -13 -16 -14 -11 -1
-20 1 -20 3 0 12 30 34 47 34 20 0 47 -35 38 -50 -10 -16 2 -12 20 6 13 14 14
19 3 26 -9 7 -7 8 7 4 31 -9 107 18 127 45 12 16 23 65 33 144 9 66 20 128 26
138 6 11 6 24 -1 37 -5 10 -10 28 -10 39 0 10 -4 21 -10 23 -5 2 -6 17 -1 40
7 30 6 35 -6 31 -13 -5 -13 -3 -2 15 17 28 2 43 -18 17 -8 -11 -17 -19 -21
-18 -37 8 -71 10 -67 2 11 -16 -26 -58 -61 -69 -28 -9 -38 -9 -51 2 -14 11
-16 11 -8 -2 6 -10 2 -10 -12 3 -11 10 -43 20 -72 24 -49 6 -51 5 -51 -19 0
-29 -36 -50 -69 -41 -20 5 -26 15 -22 37 1 5 -5 4 -13 -4 -15 -11 -20 -7 -17
13 2 12 -7 8 -30 -15 l-22 -23 6 23 c6 26 -6 28 -45 8 -21 -11 -29 -12 -34 -3
-4 7 -4 9 1 5 4 -4 14 0 23 9 14 14 14 16 -2 25 -11 6 -15 16 -11 29 7 21 -8
30 -65 38 -8 1 -7 41 0 41 3 0 11 -5 16 -10 8 -8 10 -1 9 20 -2 35 -13 50 -24
32 -6 -10 -16 -11 -42 -4 -31 9 -32 10 -9 13 42 4 45 4 58 12 21 14 14 29 -9
17 -26 -15 -32 -8 -31 31 1 28 32 80 32 54 0 -6 16 -11 35 -12 19 -1 35 3 35
8 0 5 19 9 43 9 30 0 38 3 27 10 -12 7 -10 11 9 18 14 5 20 11 15 14 -9 6 -72
12 -89 8 -5 -1 -13 -2 -17 -1 -4 0 -15 -10 -23 -23 -16 -24 -68 -34 -90 -17
-16 13 -65 19 -71 9 -3 -5 -12 -7 -19 -4 -8 3 -19 -2 -25 -9 -7 -8 -16 -12
-21 -9 -20 12 -7 -15 14 -29 l22 -16 -25 6 c-23 6 -24 5 -10 -13 13 -17 13
-18 0 -7 -8 6 -26 13 -40 15 -14 2 -24 9 -22 16 4 21 -8 13 -17 -10 -7 -19 -2
-31 26 -65 19 -24 30 -43 24 -43 -6 0 -11 5 -11 11 0 5 -5 7 -10 4 -8 -5 -7
-11 1 -21 9 -11 7 -14 -12 -15 -21 -1 -20 -2 9 -15 18 -8 30 -19 27 -24 -3 -6
-2 -10 4 -10 18 0 21 17 6 30 -8 7 -15 17 -15 23 0 5 8 3 18 -6 10 -10 26 -17
35 -17 9 0 17 -7 17 -15 0 -7 7 -18 16 -23 11 -6 13 -12 6 -16 -6 -4 -16 3
-22 14 -6 11 -15 20 -20 20 -5 0 -2 -12 6 -27 20 -40 18 -43 -16 -27 -16 9
-30 19 -30 23 0 3 -14 12 -31 18 -20 8 -28 16 -23 24 4 8 3 9 -5 5 -6 -4 -9
-12 -6 -17 4 -5 -1 -9 -10 -9 -9 0 -14 4 -11 9 9 14 -17 20 -38 8 -17 -8 -11
-13 39 -33 31 -13 61 -21 66 -18 5 3 9 -4 9 -15 0 -11 7 -21 17 -23 14 -3 14
-5 -2 -18 -11 -8 -16 -10 -12 -4 4 7 0 15 -9 18 -12 5 -15 2 -11 -11 27 -90
27 -89 11 -68 -12 16 -17 17 -23 6 -6 -9 -12 -3 -20 21 -9 28 -9 30 3 16 7
-10 19 -18 27 -18 7 0 -1 14 -19 30 -34 30 -48 38 -37 20 10 -17 -15 -11 -40
9 -18 13 -21 21 -12 30 17 17 30 13 24 -9 -3 -13 0 -20 9 -20 17 0 17 1 4 35
-8 20 -16 26 -29 22 -13 -3 -22 3 -31 21 -9 21 -13 23 -21 11 -7 -11 -9 -11
-9 -1 0 8 9 16 21 19 12 3 18 11 15 19 -3 8 2 14 12 15 16 1 16 2 0 6 -9 2
-20 13 -23 23 -3 10 -13 21 -22 25 -14 5 -14 3 2 -15 25 -27 11 -38 -18 -14
-13 10 -8 4 12 -13 23 -23 29 -33 18 -33 -18 0 -61 53 -72 90 l-8 25 23 -20
c13 -11 20 -14 15 -6 -6 10 -3 12 13 7 11 -4 23 -2 27 3 3 7 0 8 -9 5 -9 -4
-18 1 -22 10 -3 9 -10 16 -16 16 -5 0 -6 -5 -2 -12 5 -8 2 -9 -9 -5 -9 3 -19
1 -23 -5 -13 -21 -24 17 -22 74 1 56 0 58 -38 89 -21 17 -38 38 -37 47 1 10 0
12 -3 5 -10 -22 -30 -14 -67 24 -26 26 -44 36 -66 36 -20 0 -31 5 -31 14 0 8
-4 11 -10 8 -5 -3 -10 -1 -10 5 0 7 -11 21 -24 31 -23 18 -32 59 -13 59 5 0 6
-8 2 -19 -7 -22 10 -37 50 -46 l30 -6 -31 15 c-36 16 -49 32 -35 41 14 8 2 35
-15 35 -24 0 -67 65 -68 103 -1 19 2 33 6 31 3 -2 14 3 22 12 12 11 16 12 16
2 0 -10 3 -9 10 2 5 8 10 10 10 4 0 -5 -7 -19 -16 -30 -8 -10 -12 -13 -8 -5 4
9 2 12 -6 9 -7 -2 -14 -16 -14 -31 -1 -18 3 -26 11 -23 16 6 27 -10 13 -19 -8
-5 -7 -11 1 -21 13 -16 35 -18 42 -4 3 6 4 5 3 -2 -1 -7 4 -19 11 -27 8 -7 11
-21 8 -29 -5 -13 -2 -12 14 2 22 20 46 13 36 -11 -4 -13 -3 -14 10 -3 8 7 12
17 9 24 -3 6 1 3 9 -7 10 -12 17 -14 22 -8 3 6 1 11 -5 11 -7 0 -9 7 -6 16 4
10 2 13 -7 9 -6 -4 -3 1 8 9 11 9 27 22 35 29 9 8 22 12 30 10 9 -3 8 2 -4 11
-16 13 -22 13 -35 3 -12 -9 -13 -9 -7 0 5 9 2 11 -8 7 -8 -3 -12 -12 -9 -20 8
-21 -15 -17 -40 7 l-22 21 23 -7 c26 -7 28 0 7 21 -8 9 -20 12 -27 8 -9 -5 -9
-2 1 9 9 11 18 14 25 8 8 -6 11 -2 11 15 0 13 -4 24 -10 24 -5 0 -2 5 8 11 9
5 22 7 28 4 5 -4 15 -3 22 3 18 13 49 23 43 13 -3 -5 1 -12 10 -15 8 -3 13 -9
10 -14 -2 -4 -1 -14 5 -22 6 -11 9 -6 9 18 0 18 -5 32 -12 32 -6 0 -3 8 7 18
18 17 20 16 50 -14 27 -26 34 -29 48 -19 9 7 17 22 17 33 0 22 20 42 20 20 1
-8 8 -4 19 9 10 12 22 19 26 15 4 -4 1 5 -6 20 -6 15 -16 25 -20 22 -5 -3 -9
9 -9 25 0 17 5 31 11 31 5 0 8 -4 5 -9 -3 -5 5 -12 18 -15 13 -3 31 -8 38 -11
8 -3 15 0 15 8 0 9 -8 12 -24 9 -26 -5 -28 0 -13 29 8 14 14 16 23 9 25 -21
87 -59 87 -53 0 3 8 -1 18 -8 9 -7 -3 7 -28 31 -25 25 -47 44 -49 43 -2 -2 -9
1 -15 6 -17 13 -56 20 -56 10 0 -5 5 -9 12 -9 6 0 9 -3 6 -6 -4 -3 -16 0 -28
6 -18 10 -21 9 -18 -1 3 -8 -2 -20 -10 -28 -11 -12 -18 -12 -34 -2 -15 9 -23
9 -34 0 -7 -6 -27 -9 -44 -7 -16 3 -30 1 -30 -4 0 -4 -5 -8 -11 -8 -5 0 -7 5
-4 10 3 6 -1 13 -9 16 -9 3 -16 15 -16 26 0 18 -1 18 -24 1 -22 -17 -26 -50
-3 -36 6 3 7 1 3 -5 -4 -7 -14 -12 -21 -12 -9 0 -12 -6 -9 -17 5 -15 4 -15 -4
-3 -6 8 -8 19 -4 24 9 16 11 56 2 56 -4 0 -10 9 -13 21 -4 16 -3 18 9 8 11 -9
14 -8 14 4 0 8 -11 17 -25 19 -14 3 -25 1 -25 -5 0 -8 -3 -8 -11 0 -8 8 -8 17
0 30 7 15 7 20 -4 20 -12 0 -13 -8 -6 -61 0 -4 7 -6 15 -3 8 3 18 -5 25 -19
16 -36 21 -33 -56 -35 -18 -1 -30 -6 -27 -11 3 -5 12 -7 20 -4 20 7 18 0 -8
-29 -26 -30 -32 -57 -15 -67 7 -4 3 -10 -13 -17 -23 -9 -21 -11 11 -15 6 0 18
-10 25 -21 12 -18 11 -21 -5 -21 -11 0 -17 4 -15 8 3 4 -4 8 -15 8 -11 0 -22
-4 -26 -9 -3 -5 -20 -13 -38 -17 -17 -4 -26 -9 -19 -11 23 -8 12 -25 -12 -19
-19 5 -25 2 -28 -14 -3 -20 -3 -20 -42 1 -26 14 -48 19 -65 14 -14 -3 -34 -7
-44 -8 -17 -1 -17 -2 -1 -14 14 -10 15 -13 3 -14 -10 0 -10 -2 -1 -6 6 -2 12
-9 12 -14 0 -6 -5 -7 -10 -4 -6 3 -13 -1 -16 -9 -10 -25 -22 -18 -16 9 3 20 1
24 -11 19 -9 -3 -31 -1 -50 5 -41 14 -66 6 -77 -25 -7 -18 -15 -23 -37 -20
-15 2 -20 1 -10 -1 9 -2 17 -7 17 -9 0 -9 -24 -30 -43 -37 -17 -6 -17 -8 -2
-23 9 -9 14 -23 11 -30 -3 -8 1 -14 8 -14 18 0 29 -27 13 -33 -9 -3 -58 10
-75 19 -2 1 2 12 8 24 9 18 9 21 0 15 -14 -9 -30 11 -30 39 0 10 5 16 13 13 6
-2 19 3 27 11 13 14 12 15 -4 9 -14 -6 -13 -2 6 22 13 15 26 26 30 24 5 -2 16
1 25 6 17 10 17 10 1 11 -10 0 -18 7 -18 15 0 10 10 15 34 15 19 0 38 5 41 10
4 6 11 8 16 5 5 -4 9 1 9 9 0 8 9 18 20 21 11 3 20 11 20 17 0 6 6 5 16 -3 14
-11 16 -10 14 6 -5 48 33 93 52 63 5 -9 8 -9 8 -2 0 17 32 27 41 12 4 -6 6
-15 4 -18 -2 -3 5 -11 16 -18 10 -7 19 -8 19 -3 0 6 -5 13 -11 17 -8 4 -7 9 2
15 12 8 12 10 0 18 -9 6 -10 11 -2 15 6 4 11 3 11 -2 0 -6 10 -8 22 -4 12 3
17 7 10 10 -15 5 -16 32 -2 32 6 0 13 -7 16 -15 8 -20 33 4 27 25 -3 8 3 3 13
-11 11 -14 25 -24 33 -21 9 3 12 0 9 -10 -4 -8 -2 -21 3 -29 6 -10 9 -7 9 13
0 16 -9 33 -22 44 l-23 16 23 -5 c12 -3 20 -1 16 4 -9 16 17 40 37 34 10 -4
27 -2 36 4 10 6 14 11 9 11 -5 0 -3 6 3 14 10 11 8 16 -8 21 -12 3 -26 3 -32
0 -6 -4 -19 2 -30 14 -20 21 -26 36 -10 26 5 -3 13 4 16 16 4 11 9 18 12 16 2
-3 0 -14 -6 -26 -7 -12 -7 -22 -2 -26 5 -3 12 3 15 12 7 23 74 32 130 17 19
-4 27 -3 23 4 -4 5 -1 12 7 15 7 3 16 14 18 25 5 16 -1 22 -26 28 -30 7 -30 7
-6 11 35 7 55 24 39 34 -7 4 -13 21 -14 38 -1 17 -4 34 -8 37 -10 10 -9 26 1
20 4 -2 9 5 9 16 1 11 -1 18 -4 14 -3 -3 -14 -1 -25 5 -17 9 -18 8 -6 -10 11
-18 10 -23 -6 -38 -18 -17 -18 -17 -13 5 4 17 1 22 -15 22 -10 0 -28 -4 -38
-10 -21 -11 -46 11 -37 34 4 10 1 13 -9 9 -7 -3 -14 -1 -14 3 0 5 16 14 34 20
33 10 34 10 25 -9 -6 -10 -8 -21 -5 -25 3 -3 6 0 6 6 0 7 9 12 20 12 22 0 27
15 8 24 -17 7 19 36 45 36 10 0 16 4 13 8 -2 4 6 9 19 10 13 1 27 -3 30 -8 3
-6 16 -9 28 -9 17 1 18 2 5 6 -10 2 -18 9 -18 14 0 6 18 8 46 3 l47 -7 -7 29
c-4 16 -16 36 -26 46 -11 9 -20 23 -20 31 0 10 -7 13 -18 11 -9 -3 -27 4 -39
15 -12 12 -29 21 -36 21 -8 0 -20 14 -27 30 -14 33 -38 56 -26 25 6 -16 2 -17
-41 -11 -27 3 -50 11 -51 16 -4 12 -22 3 -22 -11 0 -5 10 -9 23 -9 20 -1 21
-2 4 -14 -10 -8 -15 -20 -11 -29 5 -13 -1 -15 -33 -13 -21 2 -32 2 -25 -1 28
-10 10 -21 -19 -11 -30 10 -31 13 -26 54 3 27 1 41 -5 38 -12 -7 -29 16 -22
28 3 4 14 3 25 -3 12 -6 23 -9 25 -6 2 2 -7 10 -21 17 -31 17 -32 26 -3 34 22
5 22 6 3 20 -12 9 -24 11 -29 5 -14 -13 -18 -49 -5 -49 5 0 7 -4 4 -10 -12
-19 -34 -10 -49 22 -9 17 -16 37 -16 45 0 7 -4 13 -10 13 -5 0 -10 7 -10 15 0
8 -4 15 -10 15 -5 0 -10 -7 -10 -15 0 -9 -11 -20 -25 -25 -13 -5 -32 -17 -42
-27 -19 -19 -28 -21 -57 -8 -20 9 -39 -11 -31 -34 5 -12 3 -12 -11 0 -10 8
-12 15 -5 17 16 5 13 22 -4 22 -17 0 -20 32 -5 61 9 15 7 19 -7 19 -11 0 -14
3 -7 8 14 9 10 58 -7 78 -17 21 -5 28 46 27 25 -1 45 3 45 8 0 5 -11 7 -24 5
-36 -7 -63 3 -61 22 4 29 17 52 26 46 5 -3 9 -1 9 5 0 6 16 13 35 17 20 3 35
12 35 20 0 8 5 14 10 14 6 0 10 -4 10 -10 0 -5 5 -10 10 -10 6 0 10 8 8 17 -2
10 2 18 9 18 6 0 15 3 19 7 4 4 18 5 31 2 17 -5 30 0 45 15 25 28 15 41 -12
16 -11 -10 -23 -15 -26 -12 -10 9 25 59 36 52 6 -3 15 5 22 19 6 14 18 26 25
26 9 0 12 7 9 18 -6 18 48 122 63 122 5 0 19 16 31 35 12 19 26 33 31 29 5 -3
9 2 9 12 0 12 -6 15 -24 12 -21 -4 -23 -2 -13 12 7 12 19 16 37 13 19 -2 30 1
33 12 4 9 1 15 -9 15 -8 0 -12 5 -9 10 4 6 15 8 25 5 10 -3 22 0 26 6 4 8 3 9
-4 5 -18 -11 -14 10 4 28 21 21 23 20 16 -6 -5 -20 -3 -21 10 -10 14 11 16 10
12 -10 l-5 -23 10 23 c6 12 18 22 26 22 9 0 14 4 11 9 -9 14 20 21 33 8 7 -7
11 -7 11 -1 0 6 -10 15 -22 21 -19 8 -20 10 -4 16 10 4 15 3 11 -3 -3 -6 -1
-10 4 -10 6 0 11 5 11 12 0 6 3 8 6 5 4 -4 16 3 27 16 13 15 21 18 24 9 3 -6
9 -10 14 -6 5 3 9 -2 9 -11 0 -9 4 -14 10 -10 5 3 7 12 3 20 -3 9 1 15 11 15
19 0 22 20 4 20 -19 1 31 40 51 40 14 0 14 2 1 10 -13 8 -12 10 3 10 10 0 16
4 13 9 -3 5 9 11 27 14 96 15 164 28 182 36 11 5 27 12 35 14 9 4 6 6 -7 6
-25 1 -32 21 -8 21 8 0 15 5 15 10 0 6 -10 10 -22 10 -24 1 -44 13 -68 44 -14
18 -13 19 32 12 26 -4 60 -13 76 -21 15 -8 60 -18 100 -21 63 -6 72 -5 72 10
0 9 -12 21 -27 27 -16 7 -23 13 -15 16 18 7 15 50 -5 71 -10 10 -19 36 -21 57
-4 45 -17 58 -44 44 -12 -7 -36 -3 -77 11 -70 23 -92 25 -110 8 -11 -11 -13
-10 -8 5 4 11 1 17 -7 17 -7 0 -19 7 -26 15 -7 8 -21 15 -32 15 -10 0 -16 5
-13 10 3 6 -3 10 -15 10 -11 0 -32 12 -46 27 -22 24 -23 28 -10 42 12 12 20
12 41 3 35 -16 64 -15 71 3 5 12 12 10 40 -12 19 -14 37 -23 41 -19z m-553
-119 c17 -14 42 -35 56 -46 14 -11 31 -24 39 -29 10 -6 11 -12 2 -26 -6 -12
-11 -14 -11 -6 0 8 -6 12 -12 9 -7 -2 -19 10 -26 26 -16 38 -32 26 -51 -37
l-13 -45 -29 21 c-26 20 -27 22 -11 34 15 12 15 13 -8 14 -23 0 -22 2 10 18
26 12 30 18 17 20 -10 2 -24 -1 -30 -7 -14 -11 -42 -9 -54 4 -4 4 -3 5 4 1 8
-4 11 1 10 14 -1 11 -5 20 -9 20 -4 0 -8 6 -8 14 0 10 14 16 43 19 23 2 44 4
46 5 2 1 17 -9 35 -23z m-1224 -615 c0 -10 -4 -22 -10 -25 -5 -3 -10 -16 -9
-28 0 -21 1 -21 9 -2 6 14 9 15 10 5 0 -11 6 -8 20 9 16 18 20 20 20 7 0 -11
4 -14 13 -9 14 9 57 12 57 3 0 -9 38 -6 46 3 13 12 21 8 32 -18 6 -14 8 -25 3
-25 -4 0 -8 -7 -8 -15 0 -8 4 -12 8 -9 4 2 10 0 13 -5 17 -27 -109 -72 -180
-64 -24 3 -44 0 -48 -6 -4 -6 -11 -11 -16 -11 -12 0 -6 30 8 39 6 4 8 12 3 20
-5 7 -14 10 -20 7 -6 -4 -11 0 -11 8 0 9 5 16 12 16 6 0 3 7 -8 15 -12 9 -14
14 -6 15 7 0 11 4 8 9 -3 5 2 12 11 15 15 6 14 8 -2 20 -13 9 -16 19 -10 32 7
17 8 18 12 2 6 -25 23 -22 23 3 0 11 5 17 10 14 6 -3 10 -15 10 -25z m837 -28
c13 -8 20 -18 17 -23 -3 -5 2 -12 10 -15 14 -5 14 -8 1 -21 -8 -8 -15 -23 -15
-34 0 -33 -98 -109 -141 -109 -11 0 -19 -7 -19 -15 0 -10 -10 -15 -31 -15
l-32 0 7 70 c6 55 4 70 -6 70 -8 0 -6 5 5 11 13 7 15 14 8 23 -6 7 -6 17 -1
26 16 24 11 40 -10 40 -11 0 -20 -4 -20 -9 0 -5 -13 -9 -30 -9 -16 1 -30 4
-30 8 0 14 89 19 121 8 26 -9 33 -8 40 4 11 19 92 13 126 -10z m-653 -712 c5
-5 14 -6 21 -4 7 3 34 -15 61 -40 27 -25 52 -46 57 -46 4 0 5 -5 2 -10 -4 -7
-14 -6 -27 1 -33 18 -85 22 -94 8 -5 -9 -2 -10 9 -6 11 4 14 2 10 -9 -5 -13
-9 -13 -30 2 -18 11 -28 13 -36 5 -17 -17 -22 -13 -24 16 0 15 6 32 14 39 25
17 8 31 -48 38 -38 5 -54 4 -60 -6 -7 -11 -9 -10 -9 1 0 9 -8 11 -24 7 -14 -3
-28 -1 -32 6 -4 6 -3 8 2 5 6 -3 16 -1 24 4 17 11 170 2 184 -11z m530 -15
c14 -14 31 -25 38 -25 20 0 -4 -18 -36 -26 -21 -5 -27 -4 -22 5 5 7 -3 11 -23
11 -17 0 -31 -4 -31 -10 0 -12 35 -31 51 -28 6 2 13 -2 15 -8 3 -6 -9 -8 -31
-6 -19 2 -35 9 -35 14 0 6 -7 7 -16 4 -8 -3 -12 -2 -9 4 3 6 -2 10 -12 10 -11
0 -24 5 -31 12 -9 9 -15 9 -24 0 -9 -9 -8 -12 5 -12 19 0 41 -35 32 -50 -4 -6
-12 -4 -21 5 -8 8 -34 19 -57 25 -23 6 -50 15 -59 20 -10 6 -25 10 -33 10 -24
0 -17 -19 10 -26 27 -7 51 -31 41 -41 -3 -3 -15 2 -27 12 -16 15 -22 17 -28 6
-7 -10 -14 -8 -32 10 -15 15 -19 24 -10 27 9 3 6 11 -10 28 -12 13 -19 27 -15
31 11 12 115 13 122 2 3 -6 27 -9 53 -8 25 1 55 -3 66 -9 11 -6 14 -12 8 -12
-19 0 -16 -20 2 -20 21 0 31 30 14 40 -11 7 -10 10 4 16 9 3 24 4 32 1 8 -4
17 -2 20 3 10 16 22 12 49 -15z m434 -1281 c15 -46 57 -92 89 -100 13 -4 23
-13 23 -22 0 -13 2 -13 18 1 21 19 42 23 24 5 -7 -7 -12 -15 -12 -19 0 -4 34
-24 75 -45 79 -38 108 -66 98 -91 -5 -12 -10 -11 -24 8 -10 13 -26 24 -36 24
-11 0 -19 9 -21 23 -4 24 -17 29 -28 10 -5 -7 -3 -8 6 -3 7 4 11 4 8 -1 -2 -5
-11 -24 -18 -41 -15 -35 -34 -43 -43 -19 -4 10 -1 13 9 9 7 -3 14 0 14 6 0 6
-4 11 -10 11 -5 0 -10 7 -10 16 0 14 -3 14 -15 4 -13 -11 -14 -10 -8 5 5 15 3
17 -12 11 -18 -7 -18 -6 0 14 10 11 15 23 12 27 -4 3 -7 1 -7 -5 0 -7 -10 -12
-22 -12 -12 0 -19 3 -15 6 8 8 -27 76 -47 93 -14 12 -17 9 -22 -18 -5 -25 -9
-29 -20 -20 -11 9 -12 15 -2 26 10 13 7 19 -15 35 -16 11 -27 29 -26 41 0 15
2 17 6 7 8 -21 44 -60 56 -60 6 0 1 10 -11 23 -12 13 -22 30 -22 38 0 8 -7 25
-17 38 -12 18 -13 23 -2 19 8 -2 20 -22 27 -44z m-4365 -273 c8 -36 143 -154
167 -145 38 13 223 129 233 146 20 32 27 20 26 -44 -1 -65 -15 -180 -18 -142
-2 45 -23 45 -99 3 l-72 -40 27 -23 c85 -71 133 -88 133 -46 0 11 5 22 10 25
11 7 12 -91 1 -140 l-7 -30 -7 27 c-7 26 -156 168 -177 168 -19 0 -220 -131
-235 -153 -14 -20 -15 -12 -15 90 0 64 4 114 10 118 6 3 10 -5 10 -19 0 -40
17 -40 85 0 l65 38 -27 23 c-49 40 -92 65 -104 58 -6 -4 -14 -17 -19 -29 -6
-14 -9 5 -9 62 -1 81 11 109 22 53z m524 -100 c-4 -70 -3 -102 6 -111 9 -10 9
-11 0 -6 -9 5 -13 0 -13 -12 0 -15 5 -19 20 -15 11 3 20 10 20 15 0 14 45 5
46 -9 1 -7 3 -28 4 -45 2 -18 9 26 16 97 l12 130 -5 -160 c-11 -379 39 -783
143 -1142 244 -844 781 -1554 1542 -2036 138 -88 472 -253 632 -312 598 -221
1233 -279 1870 -170 251 43 566 139 816 249 667 294 1248 806 1616 1423 40 67
77 122 82 123 5 0 3 -7 -5 -16 -10 -13 -10 -17 2 -26 11 -8 11 -9 -3 -4 -18 5
-46 -29 -34 -41 3 -3 9 2 13 12 6 18 7 18 14 -1 11 -28 11 -46 -1 -39 -6 4 -7
12 -3 18 4 8 1 7 -9 -1 -11 -9 -18 -9 -21 -2 -3 6 -4 5 -3 -2 2 -7 -4 -19 -13
-26 -9 -8 -10 -11 -4 -7 7 3 22 1 33 -5 19 -10 23 -8 33 19 6 17 15 31 19 31
4 0 5 -8 1 -17 -6 -16 -3 -15 18 2 18 16 21 16 10 2 -8 -9 -11 -20 -8 -24 4
-3 21 18 38 46 33 52 49 69 28 28 -235 -449 -612 -884 -1044 -1207 -1026 -765
-2400 -939 -3590 -453 -443 180 -838 440 -1184 778 -302 295 -527 602 -715
975 -252 499 -378 996 -393 1555 -6 201 3 485 15 485 3 0 2 -44 -1 -99z m-103
-438 c3 -42 6 -94 6 -117 l-1 -41 -14 33 c-14 32 -15 32 -82 31 -136 -1 -303
-16 -318 -29 -8 -7 -15 -22 -16 -34 0 -20 0 -20 -8 -1 -11 25 -19 215 -10 215
3 0 9 -14 13 -31 l6 -31 164 7 c212 9 230 13 234 48 6 52 19 27 26 -50z m266
-1182 c40 -101 45 -138 14 -93 -8 12 -22 22 -31 22 -20 0 -300 -107 -330 -126
-13 -8 -23 -26 -25 -46 -3 -28 -9 -17 -44 77 -23 61 -40 112 -39 114 2 2 14
-9 27 -23 l23 -27 160 62 c205 78 195 72 195 116 0 20 2 34 4 32 2 -2 23 -51
46 -108z m100 -233 c57 -125 57 -127 28 -100 -13 12 -32 22 -40 22 -14 0 -75
-27 -291 -130 -46 -22 -49 -25 -45 -57 2 -18 1 -33 -3 -33 -5 0 -84 164 -98
204 -2 6 7 1 21 -11 13 -13 29 -23 35 -23 13 0 314 139 331 153 8 6 12 23 10
39 -8 50 8 30 52 -64z m6856 0 c-1 -33 0 -34 166 -118 l167 -85 25 24 c14 14
28 22 32 19 7 -8 -94 -208 -105 -208 -5 0 -8 15 -7 33 1 32 0 33 -166 117
l-167 85 -25 -24 c-14 -14 -28 -22 -32 -19 -7 8 94 208 105 208 5 0 8 -15 7
-32z m-6737 -234 c49 -89 62 -126 31 -89 -21 26 -48 17 -174 -52 -200 -110
-198 -109 -191 -146 10 -45 -3 -28 -63 78 -51 91 -58 116 -22 77 12 -12 24
-22 28 -22 15 0 318 171 329 186 8 11 9 24 3 40 -22 56 10 17 59 -72z m6759
-190 c162 -24 196 -27 213 -16 12 8 23 12 25 10 8 -9 -118 -198 -128 -192 -6
4 -6 10 1 17 17 17 13 45 -6 51 -17 5 -254 46 -266 46 -11 0 155 -211 170
-217 7 -3 23 3 33 12 36 32 32 8 -7 -54 -38 -60 -58 -71 -47 -26 4 17 -25 62
-130 204 -75 99 -136 186 -136 192 0 13 10 12 278 -27z m-6558 -116 c0 -7 -54
-98 -121 -203 -94 -149 -119 -196 -116 -217 2 -16 0 -28 -4 -28 -4 0 -35 41
-68 90 -60 86 -68 109 -29 73 17 -15 19 -15 37 1 21 19 155 225 150 230 -8 8
-255 -57 -268 -70 -12 -11 -12 -18 -3 -39 20 -43 -3 -28 -41 28 -36 52 -49 83
-25 59 20 -20 63 -14 273 37 237 58 215 54 215 39z m929 -955 c13 -9 -10 -12
-32 -4 -20 8 -30 6 -45 -7 -30 -26 -212 -278 -212 -293 0 -7 7 -21 17 -31 9
-10 14 -21 11 -24 -7 -7 -188 126 -188 138 0 5 9 4 19 -2 11 -5 26 -10 34 -10
13 0 198 235 226 288 9 17 9 26 -1 42 -7 11 -16 20 -21 20 -4 0 -5 4 -2 10 5
7 91 -49 194 -127z m126 -84 c52 -34 95 -63 95 -65 0 -2 -17 -2 -37 1 l-38 6
-97 -151 c-54 -83 -98 -158 -98 -167 0 -9 7 -25 17 -35 33 -36 6 -26 -87 34
-109 69 -105 66 -98 74 4 3 16 1 27 -6 12 -6 28 -7 36 -3 16 9 205 301 205
317 0 5 -10 20 -22 33 -37 39 -2 26 97 -38z m4480 -263 c48 12 24 -13 -66 -69
-84 -53 -109 -65 -109 -52 0 3 9 14 21 26 26 26 30 22 -114 124 -70 49 -107
70 -104 58 3 -10 15 -67 27 -128 28 -138 32 -147 66 -135 56 22 44 0 -26 -44
-59 -37 -78 -38 -56 -3 13 20 10 47 -29 247 -24 123 -41 228 -39 232 3 5 95
-53 204 -127 166 -113 204 -134 225 -129z m-4173 -143 c-14 -216 -14 -234 1
-251 10 -10 15 -21 12 -24 -6 -6 -205 94 -205 104 0 4 16 4 35 1 19 -3 35 -4
36 -2 4 23 25 285 23 288 -7 8 -199 -176 -202 -193 -2 -10 5 -24 15 -31 38
-28 2 -25 -56 5 -60 30 -74 52 -29 43 18 -3 59 28 198 151 96 86 177 152 181
148 4 -4 0 -112 -9 -239z m2038 -374 c81 -162 111 -213 129 -220 42 -17 10
-26 -101 -32 -108 -5 -134 2 -78 22 17 5 30 13 30 16 0 4 -28 64 -61 134 l-62
126 -42 -129 c-24 -71 -41 -135 -38 -143 3 -7 16 -13 28 -13 13 0 26 -4 29 -9
6 -10 -50 -21 -106 -21 -40 0 -51 15 -19 25 23 7 14 -15 96 236 72 218 72 219
83 219 4 0 55 -95 112 -211z m-422 191 c34 0 62 -4 62 -10 0 -5 -6 -10 -13
-10 -7 0 -21 -6 -31 -13 -15 -11 -18 -38 -25 -192 -8 -186 -6 -205 30 -205 11
0 19 -6 19 -12 0 -10 -28 -12 -115 -10 -89 3 -115 6 -115 17 0 7 12 15 28 17
25 3 28 8 33 54 4 28 8 114 10 190 l4 139 -32 16 c-43 22 -29 32 32 25 28 -3
78 -6 113 -6z"/>
<path d="M4708 9173 c-32 -5 -38 -23 -8 -23 34 0 33 -26 -1 -84 -19 -31 -36
-56 -39 -56 -8 1 -80 108 -80 119 0 6 11 13 25 17 54 13 20 21 -77 17 -57 -3
-109 -6 -115 -8 -19 -6 -16 -22 5 -27 10 -3 55 -52 99 -109 l81 -104 -60 -87
c-38 -55 -71 -91 -89 -98 -47 -20 -35 -34 24 -26 28 3 67 6 85 6 38 0 43 15 7
24 -15 4 -25 14 -25 24 0 16 66 132 75 132 9 0 85 -120 85 -134 0 -9 -9 -16
-19 -16 -11 0 -23 -4 -26 -10 -4 -6 17 -10 57 -10 84 0 168 11 168 21 0 5 -6
9 -14 9 -7 0 -53 52 -101 116 l-87 116 54 79 c38 58 62 83 85 91 18 7 33 16
33 20 0 8 -91 9 -142 1z"/>
<path d="M4920 9174 c0 -5 14 -15 30 -21 l30 -11 -1 -104 c-1 -56 -4 -143 -8
-193 -6 -84 -7 -90 -30 -95 -14 -3 -26 -11 -29 -18 -3 -9 25 -12 112 -12 71 0
116 4 116 10 0 6 -8 10 -19 10 -38 0 -42 19 -35 201 4 96 11 182 16 192 5 9
20 17 33 17 14 0 25 5 25 10 0 6 -26 10 -59 10 -32 0 -86 3 -120 6 -35 4 -61
3 -61 -2z"/>
<path d="M5214 9151 c4 -6 13 -11 20 -11 33 0 35 -24 15 -205 -20 -188 -26
-205 -72 -205 -10 0 -16 -4 -13 -9 3 -4 43 -11 88 -15 46 -4 98 -9 116 -13 37
-6 45 12 8 21 -13 3 -26 13 -30 21 -6 17 28 357 38 374 4 6 18 11 31 11 13 0
26 4 29 9 7 11 -33 18 -148 27 -66 5 -87 4 -82 -5z"/>
<path d="M2808 8612 c-54 -31 -98 -60 -98 -64 0 -4 15 -4 34 -1 40 6 40 6 144
-178 74 -130 84 -161 56 -177 -9 -5 -15 -14 -13 -20 2 -5 47 15 99 45 115 66
128 78 78 69 -43 -8 -42 -9 -145 174 -86 155 -86 154 -62 176 19 17 25 34 12
34 -5 0 -52 -26 -105 -58z"/>
<path d="M7096 8543 c-3 -4 3 -17 15 -29 25 -27 29 -17 -94 -207 l-90 -139
-34 7 c-18 3 -33 4 -33 1 0 -9 178 -126 191 -126 7 0 3 10 -9 23 -12 13 -22
27 -22 31 0 14 181 289 203 308 14 13 24 15 37 8 23 -12 30 -13 30 -1 0 14
-185 133 -194 124z"/>
<path d="M2580 8475 c-74 -52 -85 -67 -42 -59 25 5 30 2 35 -18 10 -36 8 -118
-3 -118 -14 0 -114 40 -124 50 -6 6 -2 17 9 30 10 11 16 23 12 26 -6 7 -187
-117 -187 -128 0 -5 12 -8 28 -8 15 0 79 -20 142 -44 l115 -44 -3 -107 c-3
-76 -8 -115 -19 -132 -9 -13 -13 -26 -11 -29 7 -6 138 85 138 96 0 5 -16 6
-35 3 l-35 -6 0 82 0 81 53 -21 c28 -11 63 -27 75 -36 l24 -15 -22 -23 c-12
-12 -18 -25 -13 -28 11 -6 184 115 181 127 -2 5 -16 11 -33 12 -16 2 -79 23
-140 48 l-110 44 0 100 c0 83 3 103 19 120 38 43 8 41 -54 -3z"/>
<path d="M8444 7193 l1 -37 -150 -93 c-82 -51 -156 -93 -164 -93 -8 0 -23 7
-33 17 -35 32 -27 6 26 -81 69 -113 77 -120 73 -71 l-2 39 150 92 c83 51 158
93 167 94 9 0 24 -7 33 -16 9 -9 18 -14 21 -11 7 7 -105 197 -116 197 -4 0 -7
-17 -6 -37z"/>
<path d="M1272 7148 c-22 -40 -37 -77 -34 -82 3 -5 10 -2 17 7 22 31 44 19 75
-42 l30 -59 -64 -7 c-77 -9 -89 -3 -81 36 12 53 -9 30 -67 -74 -52 -92 -60
-128 -24 -98 17 14 264 37 276 25 4 -5 25 -49 45 -98 25 -61 35 -98 31 -117
-10 -52 10 -38 51 34 42 75 46 103 9 68 -12 -11 -26 -17 -32 -13 -10 6 -74
124 -74 137 0 9 159 5 165 -5 3 -5 1 -18 -5 -29 -6 -12 -6 -22 -1 -26 5 -3 35
40 66 96 54 94 64 127 32 100 -17 -14 -287 -36 -297 -24 -3 4 -21 41 -39 80
-23 51 -32 85 -30 113 2 21 1 42 -3 45 -3 3 -24 -27 -46 -67z"/>
<path d="M8596 6952 c4 -17 1 -32 -8 -39 -29 -24 -306 -163 -325 -163 -11 0
-26 7 -33 15 -7 8 -17 15 -22 15 -9 0 84 -185 104 -205 6 -7 8 3 6 29 l-3 38
160 84 c88 46 168 84 177 84 9 0 24 -10 32 -22 9 -12 18 -19 22 -16 7 7 -97
208 -108 208 -4 0 -5 -13 -2 -28z"/>
<path d="M9080 5291 c0 -10 -6 -23 -13 -29 -7 -6 -93 -16 -190 -22 -188 -13
-207 -10 -207 31 0 11 -5 19 -11 19 -13 0 -2 -220 12 -235 5 -5 9 1 9 17 0 14
6 30 13 36 14 12 350 37 373 28 8 -3 20 -18 26 -33 12 -28 12 -28 16 17 5 62
-8 190 -19 190 -5 0 -9 -8 -9 -19z"/>
<path d="M8660 4915 c0 -63 4 -115 8 -115 4 0 13 14 19 30 l11 30 177 0 c182
0 215 -6 215 -40 0 -10 4 -21 9 -25 6 -3 11 42 13 111 2 64 0 118 -4 120 -3 2
-11 -10 -17 -26 l-10 -30 -191 0 -192 0 -11 30 c-6 17 -15 30 -19 30 -4 0 -8
-52 -8 -115z"/>
<path d="M8656 4703 c-4 -38 -9 -89 -12 -115 -5 -50 11 -68 22 -24 3 14 12 27
19 30 16 6 362 -21 376 -29 5 -4 9 -17 9 -30 0 -40 18 -38 24 2 14 98 18 203
7 203 -6 0 -11 -6 -11 -13 0 -7 -6 -21 -13 -31 -12 -16 -24 -16 -167 -6 -221
16 -220 15 -227 51 -9 49 -21 33 -27 -38z"/>
<path d="M5943 7719 c-34 -10 -42 -24 -20 -32 7 -4 6 -6 -5 -6 -9 -1 -18 4
-20 11 -3 7 -29 12 -66 12 -62 2 -62 1 -40 -16 13 -9 35 -20 50 -23 14 -4 29
-12 32 -20 2 -7 21 -19 40 -26 23 -8 36 -20 36 -31 0 -10 5 -15 13 -12 7 2 30
-3 51 -11 21 -9 39 -15 41 -13 9 11 -18 48 -35 48 -12 0 -20 7 -20 18 0 25
-30 64 -44 59 -7 -3 -12 3 -13 12 -2 20 47 21 92 2 27 -11 29 -14 13 -25 -25
-18 -22 -35 8 -46 51 -20 76 -5 32 19 -13 6 -15 9 -5 7 10 -4 17 0 17 9 0 8
-5 15 -11 15 -6 0 -9 7 -6 15 4 8 1 17 -5 21 -7 4 -8 3 -4 -4 11 -18 -16 -14
-52 8 -36 22 -34 22 -79 9z"/>
<path d="M6565 7610 c-3 -5 1 -10 9 -10 10 0 16 -9 16 -24 0 -15 14 -36 38
-58 20 -18 54 -55 76 -81 21 -26 43 -44 49 -40 5 3 7 1 3 -5 -9 -15 88 -137
108 -136 12 1 14 -2 7 -10 -7 -8 -4 -16 10 -25 12 -7 18 -19 15 -26 -3 -8 0
-17 6 -21 7 -4 8 -3 4 4 -4 7 -1 12 7 12 18 0 51 40 55 68 3 22 -5 26 -42 22
-11 -1 -15 3 -12 9 4 7 -1 11 -13 11 -10 0 -22 -6 -24 -12 -3 -7 -4 0 -4 16 2
25 -5 34 -38 53 -22 12 -34 23 -27 23 13 0 11 4 -25 45 -17 18 -16 25 3 25 8
0 12 5 9 10 -11 17 -37 11 -42 -10 -3 -11 -10 -20 -15 -20 -6 0 -8 9 -5 21 3
12 1 19 -6 16 -19 -6 -36 16 -26 35 6 10 5 19 -1 23 -5 3 -7 12 -4 20 3 7 -4
19 -16 25 -18 10 -21 9 -17 -2 2 -7 10 -12 16 -10 6 1 11 -2 11 -8 0 -5 -9
-10 -20 -10 -11 0 -20 5 -20 10 0 6 -6 10 -14 10 -8 0 -18 5 -22 12 -4 7 -3 8
4 4 25 -15 11 4 -17 24 -18 12 -32 16 -36 10z"/>
<path d="M5386 7395 c-8 -8 -19 -15 -25 -15 -13 0 -24 -36 -17 -58 7 -20 -16
-48 -69 -89 -16 -13 -27 -24 -24 -25 2 -2 13 -8 23 -14 11 -5 21 -17 22 -25 5
-24 30 -88 37 -95 12 -13 7 -24 -8 -18 -8 4 -15 1 -15 -5 0 -6 8 -11 18 -12 9
0 12 -3 5 -5 -6 -3 -27 3 -45 12 -25 14 -29 19 -15 22 20 4 23 28 5 36 -10 5
-10 7 0 12 17 8 15 24 -4 24 -8 0 -13 4 -10 9 7 11 -3 41 -13 41 -3 0 -17 -9
-30 -19 -20 -15 -22 -21 -12 -39 8 -15 8 -23 0 -27 -6 -4 -8 -13 -5 -21 3 -7
1 -16 -5 -19 -18 -11 20 -37 49 -32 15 2 21 2 15 0 -14 -5 -18 -23 -5 -23 4 0
13 -9 20 -20 10 -17 9 -25 -5 -48 -10 -15 -23 -33 -30 -40 -15 -16 -17 -26 -3
-17 6 3 10 1 10 -4 0 -6 8 -11 18 -11 9 0 26 -13 37 -30 11 -16 27 -29 35 -27
11 1 15 -8 15 -35 0 -20 3 -40 8 -44 4 -4 7 -2 7 6 0 9 9 11 30 7 17 -4 30 -2
30 3 0 6 -4 10 -10 10 -5 0 -15 10 -21 23 -9 18 -9 20 2 10 20 -19 31 -16 29
10 -5 52 0 67 20 67 17 0 19 4 14 26 -5 19 -4 25 5 20 6 -4 9 -12 6 -17 -4 -5
1 -9 9 -9 21 0 20 -10 -1 -26 -23 -16 -11 -27 28 -26 36 1 60 25 31 31 -45 9
-57 55 -22 86 27 25 9 49 -25 33 -19 -9 -30 -6 -59 11 -25 16 -43 20 -58 15
-19 -6 -21 -4 -12 7 15 18 24 69 13 69 -5 0 -9 7 -9 15 0 8 -6 15 -14 15 -7 0
-19 7 -26 15 -10 12 -10 15 3 15 19 0 28 26 21 63 -3 17 -1 26 5 23 5 -4 15
-1 21 6 6 7 25 29 43 49 49 55 63 85 47 104 -16 19 -64 19 -84 0z"/>
<path d="M6429 6051 c-18 -21 -79 -52 -88 -46 -5 2 -7 -7 -6 -20 2 -14 -2 -23
-8 -22 -6 1 -13 -6 -15 -16 -2 -12 3 -20 17 -24 12 -3 21 -12 21 -19 0 -17 8
-17 40 1 35 20 49 19 43 -5 -5 -19 -14 -24 -40 -21 -7 1 -13 -3 -13 -9 0 -6
-11 -16 -25 -22 -13 -6 -27 -19 -30 -30 -4 -11 -16 -18 -31 -18 -20 0 -24 4
-20 23 5 27 -3 42 -21 43 -7 1 -23 2 -35 3 -22 2 -21 3 10 31 17 16 32 33 32
36 0 3 -16 3 -35 0 -46 -9 -78 1 -71 21 5 13 1 14 -26 8 -18 -4 -38 -7 -45 -8
-7 0 -10 -4 -7 -9 7 -11 -15 -68 -27 -68 -5 0 -13 -10 -20 -21 -8 -15 -8 -19
0 -15 7 5 11 -4 11 -25 0 -26 -3 -31 -20 -26 -22 6 -25 -7 -21 -89 2 -30 -2
-43 -13 -47 -10 -4 -16 -18 -16 -36 0 -18 -7 -34 -17 -40 -16 -9 -16 -10 -2
-11 9 0 24 -16 33 -35 23 -48 43 -56 133 -53 76 2 79 3 113 38 47 50 76 67
130 75 25 4 50 11 56 16 8 6 14 4 18 -7 4 -11 13 -14 28 -10 15 3 30 -2 45
-16 14 -13 23 -16 23 -9 0 8 7 10 21 6 40 -13 84 -12 111 1 15 8 40 14 55 14
33 0 78 36 92 72 16 42 -36 117 -82 118 -18 0 -33 7 -107 52 -25 14 -63 30
-85 34 -21 4 -47 16 -57 28 -10 12 -17 15 -18 9 0 -7 -4 -13 -10 -13 -19 0 2
29 23 32 16 2 21 9 19 26 -2 16 2 22 15 23 16 0 16 1 -2 9 -21 8 -21 8 25 23
11 4 11 6 -3 6 -29 1 -62 22 -48 30 8 5 4 11 -12 18 -18 9 -26 7 -38 -6z"/>
<path d="M7226 5818 c-10 -5 -27 -8 -38 -5 -15 4 -18 2 -14 -10 5 -12 1 -14
-17 -9 -18 4 -23 1 -24 -14 -1 -13 3 -17 13 -13 19 7 75 -17 68 -29 -3 -5 -27
-6 -52 -3 -41 4 -43 4 -19 -6 15 -6 27 -14 27 -17 0 -13 60 -8 65 6 3 8 0 10
-8 6 -8 -5 -8 -2 2 9 9 11 18 14 30 8 9 -5 23 -6 31 -4 9 3 11 1 4 -4 -18 -14
-23 -39 -14 -77 4 -21 4 -36 -1 -36 -5 0 -9 10 -9 22 0 16 -3 19 -11 11 -6 -6
-17 -9 -25 -6 -10 3 -13 -4 -11 -25 1 -17 5 -28 10 -25 4 2 7 -5 7 -16 0 -12
6 -21 14 -21 15 0 46 -41 46 -62 1 -25 69 -88 96 -88 3 0 1 7 -6 15 -7 8 -11
15 -9 16 33 7 46 6 62 -2 26 -15 32 -4 10 18 -10 10 -27 17 -38 15 -11 -3 -17
-1 -13 4 5 4 23 7 41 6 31 -1 34 1 29 23 -3 20 0 25 16 25 32 0 35 16 7 38
-20 16 -22 21 -10 26 10 3 27 -6 45 -24 17 -17 30 -26 30 -20 0 5 10 10 21 10
21 0 21 1 -5 26 -14 15 -26 35 -26 45 0 10 -4 21 -10 24 -5 3 -10 14 -10 24 0
11 -13 25 -31 34 -20 9 -27 17 -20 22 9 5 9 10 0 21 -10 12 -14 12 -21 2 -6
-10 -12 -9 -23 6 -8 11 -15 26 -15 34 0 9 -7 13 -20 9 -10 -3 -24 1 -30 8 -13
16 -118 18 -144 3z"/>
<path d="M5424 3832 c-14 -9 0 -52 16 -52 6 0 8 -5 3 -12 -4 -7 -8 -19 -10
-27 -1 -7 -7 -19 -13 -25 -8 -8 -10 -7 -5 4 4 11 -2 16 -19 18 -20 1 -24 -2
-19 -15 5 -13 2 -15 -18 -10 -17 5 -31 -1 -51 -20 -16 -15 -28 -22 -28 -16 0
7 -10 15 -22 19 -13 3 -30 13 -39 20 -15 13 -15 10 -8 -35 4 -27 13 -60 20
-73 7 -13 12 -24 11 -25 -1 -2 -2 -12 -2 -23 0 -18 2 -19 21 -8 18 12 24 9 56
-26 l36 -39 25 29 c22 26 24 27 19 6 -3 -12 -1 -20 4 -16 5 3 9 1 9 -5 0 -5
-8 -15 -17 -21 -14 -9 -10 -10 20 -5 47 8 49 -9 2 -31 -19 -9 -35 -18 -35 -21
0 -8 45 9 62 24 13 11 21 12 37 3 19 -9 21 -8 21 15 0 14 3 25 8 25 4 0 7 27
7 60 0 49 -3 59 -15 55 -9 -3 -7 1 4 10 11 9 19 28 20 48 1 30 -1 33 -17 23
-10 -6 -20 -21 -23 -33 -4 -13 -10 -23 -15 -23 -12 0 -12 2 7 38 8 18 20 32
25 32 5 0 9 15 9 33 0 17 4 48 10 67 9 32 8 33 -5 16 -8 -11 -15 -24 -15 -29
0 -5 -7 -3 -17 4 -9 8 -18 13 -20 11 -3 -2 -8 0 -11 4 -4 4 -1 4 6 0 7 -4 12
-1 12 7 0 8 -7 18 -16 21 -19 7 -16 7 -30 -2z"/>
</g>
</svg>
